<svg width="1588" height="992" viewBox="0 0 1588 992" fill="none" xmlns="http://www.w3.org/2000/svg">
<path d="M67.395 898.86C94.865 916.29 122.305 933.72 149.485 951.61C122.385 943.55 95.075 935.41 70.175 922.02C45.275 908.64 22.645 889.47 9.94501 864.21C-2.74499 838.95 -4.14499 807.08 10.735 783.04C31.785 749.03 82.265 732.28 118.075 752.04C132.955 760.24 147.295 773.7 164.105 771.17C197.655 766.1 221.055 732.12 252.755 720.57C286.995 708.1 325.185 706.31 360.365 716.04C374.495 719.95 416.515 735.76 418.205 707.57C418.705 699.12 414.995 690.94 414.765 682.48C413.625 641.7 526.505 679.77 550.335 660.05C570.165 643.64 574.755 616.43 593.155 598.42C614.865 577.17 642.855 563.45 666.865 545.11C695.805 522.99 724.845 484.39 710.515 446.18C704.075 429.01 689.825 412.89 693.545 394.93C695.735 384.32 703.865 376.09 711.615 368.53C733.075 347.57 754.535 326.62 775.995 305.66C780.875 300.9 786.765 295.77 793.535 296.61C801.345 297.58 806.025 306.46 805.645 314.32C805.265 322.18 801.345 329.35 798.325 336.62C783.995 371.1 789.855 413.55 814.515 441.86C829.445 459 851.135 472.55 855.985 494.76C861.085 518.1 848.595 550.37 869.755 561.45C880.755 567.21 894.595 562.07 906.395 565.93C930.355 573.78 928.585 607.86 939.775 630.46C954.535 660.27 992.175 668.63 1020.17 686.59C1050.42 705.99 1070.15 737.74 1095.43 763.28C1127.9 796.09 1170.39 818.84 1215.7 827.66C1235.12 831.44 1259.75 830.28 1268.79 812.69C1278.27 794.25 1264.08 768.38 1277.3 752.4C1292.45 734.1 1320.97 750.03 1341.61 761.79C1373.08 779.73 1409.86 785.26 1445.55 791.52C1481.23 797.78 1518 805.61 1547.19 827.06C1576.38 848.52 1595.89 887.31 1584.21 921.6C1571.14 959.99 1526.86 977.31 1486.9 984.23C1338.06 1010 1187.95 958.59 1037.58 944.27C883.855 929.64 730.365 953.92 577.455 966.8C419.755 980.09 267.345 965.29 110.615 947.73" fill="#E3E5FC"/>
<path opacity="0.27" d="M721.745 593.13C721.465 606.46 723.245 619.93 720.795 633.04C718.345 646.14 710.365 659.4 697.525 663C679.435 668.07 656.685 653.3 642.915 666.07C632.415 675.81 636.995 693.48 631.275 706.61C619.665 733.27 575.905 726.82 558.375 750.02C552.155 758.25 549.785 769.71 541.155 775.37C530.705 782.21 517.015 777.11 504.915 774.01C455.765 761.43 405.355 786.44 362.355 813.38C333.575 831.42 305.575 850.69 278.455 871.14C272.755 875.44 266.825 880.14 264.365 886.84C260.455 897.45 266.545 909.06 273.615 917.88C306.655 959.07 374.675 916.65 427.365 920.07C518.615 925.98 586.915 909.88 678.315 906.96C742.725 904.9 801.435 916.76 864.815 905.09C924.435 894.11 997.435 912.41 1058.06 911.87C1085.91 911.62 1115.99 916.86 1139.91 902.6C1143.12 900.69 1146.22 898.36 1148.09 895.13C1153.48 885.82 1146.62 874.31 1139.38 866.37C1110.52 834.75 1017.94 846.35 993.175 811.42C927.115 718.22 896.305 722.24 823.115 696.84C813.605 693.54 803.675 690.21 796.535 683.12C789.395 676.03 786.095 663.92 792.025 655.79C797.515 648.27 808.445 646.81 814.805 640C828.265 625.57 812.425 602.91 812.535 583.18C812.585 575.05 815.515 567.23 816.655 559.19C820.375 532.99 793.885 492.46 764.005 501.8C735.115 510.8 722.275 568.24 721.745 593.13Z" fill="#A7ADFF"/>
<path d="M714.645 388.98C706.465 395.09 698.045 401.47 693.135 410.42C686.425 422.64 696.465 432.7 700.555 443.61C703.005 450.12 704.235 454.73 702.875 461.66C701.725 467.51 694.255 473.69 698.705 479.93C704.955 488.62 716.195 483.54 722.255 495.7C727.215 505.65 725.275 517.33 731.655 526.8C738.265 536.62 749.515 544.31 753.655 555.67C758.015 567.61 748.365 585.19 761.685 593.56C768.785 598.03 778.725 594.24 783.815 587.57C794.515 573.54 794.355 547.37 797.025 530.68C798.265 522.93 803.675 512.69 810.825 515.93C815.315 517.97 821.425 550.34 830.805 533.59C832.645 530.3 832.395 526.29 832.095 522.54C831.665 517.25 829.885 511.29 830.695 505.98C833.635 486.7 838.255 476.33 832.265 456.04C831.625 453.86 831.145 451.1 832.915 449.67C833.845 448.92 835.125 448.81 836.315 448.74C843.775 448.27 852.405 448.76 856.405 440.93C860.715 432.49 850.615 426.09 847.755 419.02C848.325 420.44 868.315 426.17 871.555 427.95C865.435 413.33 850.695 402.04 835.685 397.7" fill="#F44E4E"/>
<path d="M724.585 458.95C726.735 465.87 729.955 472.13 734.375 477.19C737.845 481.16 742.075 484.59 744.335 489.43C746.275 493.58 746.555 498.38 748.335 502.61C755.215 518.96 768.065 501.51 772.585 493.41C778.185 483.4 783.725 480.45 794.265 480.6C795.445 480.62 796.765 480.57 797.575 479.67C798.335 478.82 798.345 477.51 798.175 476.35C797.245 469.91 790.315 460.94 797.095 455.45C799.775 453.28 803.265 452.63 806.485 451.5C822.635 445.81 822.245 416.14 821.635 401.9C821.405 396.54 819.285 391.43 816.395 387C800.275 362.25 758.685 362.16 739.125 383.12C723.245 400.12 716.815 433.9 724.585 458.95Z" fill="#D7384E"/>
<path d="M925.915 409.57C917.315 416.42 854.805 369.34 793.825 315.07L862.965 259.99C901.985 331.75 933.745 403.33 925.915 409.57Z" fill="#5A54FF"/>
<path d="M622.875 409.57C631.475 416.42 693.985 369.34 754.965 315.07L685.825 259.99C646.805 331.75 615.045 403.33 622.875 409.57Z" fill="#5A54FF"/>
<path d="M678.315 270.13C678.315 352.35 720.065 397.45 771.565 397.45C823.065 397.45 864.815 352.35 864.815 270.13C864.815 237.29 854.035 187.59 839.465 139.73H702.945C688.685 187.59 678.315 237.29 678.315 270.13Z" fill="#A7ADFF"/>
<path d="M771.565 0C754.585 0 724.375 67.78 702.935 139.73H839.455C817.545 67.78 787.025 0 771.565 0Z" fill="#5A54FF"/>
<path d="M840.705 387.63H702.425C691.555 387.63 682.665 378.74 682.665 367.87V367.87C682.665 357 691.555 348.11 702.425 348.11H840.705C851.575 348.11 860.465 357 860.465 367.87V367.87C860.465 378.74 851.575 387.63 840.705 387.63Z" fill="#978CFF"/>
<path d="M834.435 398.41H708.695C705.735 398.41 703.305 395.98 703.305 393.02V393.02C703.305 390.06 705.735 387.63 708.695 387.63H834.435C837.395 387.63 839.825 390.06 839.825 393.02V393.02C839.825 395.98 837.405 398.41 834.435 398.41Z" fill="#5A54FF"/>
<path d="M771.565 195.42C744.525 195.42 722.615 217.34 722.615 244.37C722.615 245.87 722.705 247.34 722.835 248.8C751.555 237.13 780.065 225.07 808.005 211.76C799.045 201.75 786.055 195.42 771.565 195.42Z" fill="white"/>
<path d="M722.835 248.8C725.075 273.76 746.025 293.32 771.565 293.32C798.605 293.32 820.515 271.4 820.515 244.37C820.515 231.83 815.755 220.42 808.005 211.76C780.065 225.07 751.555 237.13 722.835 248.8Z" fill="#E3E5FC"/>
</svg>
