<svg width="581" height="513" viewBox="0 0 581 513" fill="none" xmlns="http://www.w3.org/2000/svg">
<path opacity="0.67" d="M366.368 512.684H296.625C283.142 512.684 272.113 501.655 272.113 488.172V363.374C272.113 349.891 283.142 338.861 296.625 338.861H366.363C379.846 338.861 390.875 349.891 390.875 363.374V488.172C390.881 501.655 379.851 512.684 366.368 512.684Z" fill="#A7ADFF"/>
<path d="M492.093 512.684H422.356C408.873 512.684 397.843 501.655 397.843 488.172V264.473C397.843 250.99 408.873 239.961 422.356 239.961H492.093C505.576 239.961 516.606 250.99 516.606 264.473V488.172C516.611 501.655 505.576 512.684 492.093 512.684Z" fill="#A7ADFF"/>
<path d="M240.867 512.684H171.13C157.647 512.684 146.617 501.655 146.617 488.172V412.371C146.617 398.888 157.647 387.859 171.13 387.859H240.867C254.35 387.859 265.38 398.888 265.38 412.371V488.172C265.385 501.655 254.35 512.684 240.867 512.684Z" fill="#E3E5FC"/>
<path d="M556.488 173.931H428.26C414.777 173.931 403.748 162.901 403.748 149.418V122.043C403.748 108.56 414.777 97.5306 428.26 97.5306H556.488C569.971 97.5306 581 108.56 581 122.043V149.418C581 162.901 569.971 173.931 556.488 173.931Z" fill="#E3E5FC"/>
<path opacity="0.67" d="M525.384 148.524H397.156C383.673 148.524 372.644 137.494 372.644 124.011V63.9895C372.644 50.5065 383.673 39.477 397.156 39.477H525.384C538.867 39.477 549.896 50.5065 549.896 63.9895V124.011C549.902 137.494 538.867 148.524 525.384 148.524Z" fill="#A7ADFF"/>
<path d="M407.439 117.562C420.387 135.384 445.331 139.337 463.148 126.388L416.266 61.8523C398.443 74.7955 394.49 99.7387 407.439 117.562Z" fill="white"/>
<path d="M420.458 58.8046L441.939 88.3712L472.078 66.4756C459.855 50.3266 436.918 46.8427 420.458 58.8046Z" fill="white"/>
<path d="M475.595 71.2462C475.448 71.0445 475.279 70.8645 475.126 70.6628L444.987 92.5583L467.346 123.335C484.008 111.232 487.704 87.9132 475.595 71.2462Z" fill="white"/>
<path d="M530.765 83.5624H497.621C495.926 83.5624 494.541 82.1776 494.541 80.482V80.482C494.541 78.7864 495.926 77.4016 497.621 77.4016H530.765C532.46 77.4016 533.845 78.7864 533.845 80.482V80.482C533.845 82.1776 532.46 83.5624 530.765 83.5624Z" fill="white"/>
<path d="M530.765 94.0249H497.621C495.926 94.0249 494.541 92.6401 494.541 90.9445V90.9445C494.541 89.2489 495.926 87.8641 497.621 87.8641H530.765C532.46 87.8641 533.845 89.2489 533.845 90.9445V90.9445C533.845 92.6347 532.46 94.0249 530.765 94.0249Z" fill="white"/>
<path d="M530.765 104.482H497.621C495.926 104.482 494.541 103.097 494.541 101.402V101.402C494.541 99.706 495.926 98.3212 497.621 98.3212H530.765C532.46 98.3212 533.845 99.706 533.845 101.402V101.402C533.845 103.097 532.46 104.482 530.765 104.482Z" fill="white"/>
<path d="M530.765 114.939H497.621C495.926 114.939 494.541 113.554 494.541 111.859V111.859C494.541 110.163 495.926 108.778 497.621 108.778H530.765C532.46 108.778 533.845 110.163 533.845 111.859V111.859C533.845 113.554 532.46 114.939 530.765 114.939Z" fill="white"/>
<path d="M135.424 268.273H16.1381C7.26216 268.273 0 261.011 0 252.135V248.422C0 239.546 7.26216 232.284 16.1381 232.284H135.424C144.3 232.284 151.562 239.546 151.562 248.422V252.135C151.562 261.011 144.3 268.273 135.424 268.273Z" fill="#E3E5FC"/>
<path d="M134.088 251.383L133.968 251.53C133.685 251.879 133.161 251.933 132.812 251.65L122.372 243.145C122.023 242.861 121.968 242.338 122.252 241.989L122.372 241.841C122.655 241.493 123.179 241.438 123.528 241.722L133.968 250.227C134.323 250.516 134.377 251.034 134.088 251.383Z" fill="white"/>
<path d="M134.088 250.483L133.968 250.336C133.685 249.987 133.161 249.932 132.812 250.216L122.372 258.721C122.023 259.005 121.968 259.528 122.252 259.877L122.372 260.024C122.655 260.373 123.179 260.428 123.528 260.144L133.968 251.639C134.323 251.35 134.377 250.832 134.088 250.483Z" fill="white"/>
<path d="M153.896 308.313H74.1263C68.189 308.313 63.3367 303.455 63.3367 297.523V295.043C63.3367 289.105 68.1945 284.253 74.1263 284.253H153.896C159.833 284.253 164.685 289.111 164.685 295.043V297.523C164.685 303.455 159.827 308.313 153.896 308.313Z" fill="#A7ADFF"/>
<path d="M153.001 297.022L152.919 297.12C152.729 297.354 152.38 297.387 152.145 297.196L145.161 291.51C144.927 291.319 144.894 290.97 145.085 290.736L145.167 290.638C145.357 290.403 145.706 290.37 145.941 290.561L152.925 296.248C153.154 296.439 153.192 296.787 153.001 297.022Z" fill="white"/>
<path d="M153.001 296.417L152.919 296.319C152.729 296.084 152.38 296.051 152.145 296.242L145.161 301.929C144.927 302.12 144.894 302.468 145.085 302.703L145.167 302.801C145.357 303.035 145.706 303.068 145.941 302.877L152.925 297.191C153.154 296.995 153.192 296.651 153.001 296.417Z" fill="white"/>
<path d="M241.33 174.045L195.571 187.234C191.34 188.455 186.886 185.99 185.665 181.76L176.287 149.227C175.066 144.996 177.53 140.542 181.761 139.321L227.52 126.132C231.751 124.911 236.205 127.375 237.427 131.606L246.804 164.139C248.02 168.369 245.556 172.824 241.33 174.045Z" fill="#FDC510"/>
<path d="M178.768 143.644L228.453 83.5624L234.826 97.5252L225.132 98.3157L185.806 143.644H178.768Z" fill="#FDC510"/>
<path d="M290.59 299.29L282.701 326.638L272.647 325.111L282.695 297.038C282.695 297.038 288.311 297.131 290.59 299.29Z" fill="#EAC2AB"/>
<path d="M323.079 333.126C323.079 333.126 315.953 335.721 302.137 337.236C288.322 338.752 269.796 337.929 266.481 336.92C261.438 335.394 264.524 319.964 269.141 319.779C273.759 319.593 275.842 325.771 283.737 319.872C290.497 314.817 296.484 323.601 308.745 325.514C321.007 327.434 325.974 328.197 323.079 333.126Z" fill="#FDC510"/>
<path d="M302.797 300.664C304.907 278.18 312.654 246.252 307.829 223.626C302.922 200.624 286.501 192.74 270.177 176.318C253.314 159.346 253.39 175.572 253.39 175.572L251.891 180.429C259.857 187.081 236.707 191.432 244.471 198.29C252.834 205.678 259.382 209.353 267.462 217.018C277.761 226.788 283.3 222.585 282.172 236.94C281.85 241.013 274.599 278.136 272.467 293.756C270.003 311.835 257.589 306.323 291.053 312.081C311.864 315.652 301.483 314.736 302.797 300.664Z" fill="#4B369D"/>
<path d="M221.3 341.805L220.896 369.753L210.886 370.587L213.16 341.451C213.16 341.451 218.552 340.262 221.3 341.805Z" fill="#EAC2AB"/>
<path d="M260.811 380.03C260.811 380.03 253.625 382.189 239.918 382.903C226.212 383.617 210.93 383.835 208.187 381.889C205.445 379.942 203.978 363.777 208.542 363.853C213.105 363.93 214.757 370.134 222.908 364.764C229.892 360.162 235.224 369.153 247.18 371.732C259.137 374.31 263.978 375.335 260.811 380.03Z" fill="#FDC510"/>
<path d="M242.879 354.214C242.606 353.156 241.549 352.23 240.66 351.303C232.498 342.798 236.729 332.449 239.919 323.328C247.492 301.689 247.688 278.703 250.261 256.273C252.769 234.378 259.006 212.989 268.111 192.697C271.421 185.325 276.213 173.871 263.101 174.121C256.891 174.241 250.986 173.096 245.163 171.172C242.099 170.158 245.491 169.705 242.099 170.158C230.536 171.706 222.946 190.445 223.982 197.554C226.049 211.708 225.187 224.842 223.35 239.203C220.749 259.561 220.705 280.339 214.528 299.972C211.502 309.594 208.28 319.157 205.118 328.737C203.27 334.325 195.904 346.047 198.401 351.761C201.83 359.606 223.911 356.886 230.95 357.823C236.238 358.516 243.811 357.807 242.879 354.214Z" fill="#5A54FF"/>
<path d="M266.018 68.0404L262.981 88.8237C257.616 90.3012 251.989 93.1145 246.33 93.109C246.586 89.2544 250.626 84.8437 252.48 81.2071C254.732 76.7964 256.318 72.2276 256.067 67.2771C255.413 54.3393 266.018 68.0404 266.018 68.0404Z" fill="#D4A79A"/>
<path d="M275.439 27.755C275.428 27.7768 284.167 33.3161 279.533 46.5701C274.577 60.751 267.43 72.6256 262.844 71.3989C250.163 68.0022 246.39 59.1371 242.563 51.4879C237.868 42.1049 250.675 21.0817 250.675 21.0817L261.416 16.6873L275.439 27.755Z" fill="#EAC2AB"/>
<path d="M291.642 26.8663C292.918 23.9113 291.489 18.3611 289.298 16.3111C288.453 15.5206 287.346 14.9699 286.19 14.9863C285.323 14.9972 284.44 15.3243 283.6 15.1226C281.07 14.5229 281.076 12.511 278.753 11.6114C277.025 10.9408 275.188 12.3093 273.345 12.571C271.949 12.7673 270.57 12.3148 269.218 11.9386C265.412 10.8809 261.983 8.86906 258.052 8.11667C254.737 7.48423 251.215 7.56601 248.053 8.8527C244.754 10.1939 242.23 12.9308 240.725 16.2075C239.825 18.1648 239.395 20.3893 239.793 22.4938C239.466 20.7655 236.042 22.3302 235.453 22.9572C233.147 25.4161 227.34 32.6128 228.174 35.7423C228.834 38.223 226.784 40.4693 227.368 42.9772C228.06 45.9649 236.429 47.6933 237.928 50.4138C239.651 53.5324 243.451 55.348 246.908 54.7864C246.101 52.0222 245.305 49.198 245.365 46.2975C245.43 43.397 242.492 30.0613 257.926 28.4147C264.06 27.7605 270.924 33.0272 276.954 33.7196C279.816 34.0467 282.739 33.7469 285.525 32.9345C287.678 32.3075 289.957 29.5597 291.293 27.526C291.429 27.3134 291.544 27.0953 291.642 26.8663Z" fill="#4B369D"/>
<path d="M281.888 25.5251C285.683 23.497 286.784 18.9118 287.172 14.8391C287.591 10.412 287.51 9.62143 283.524 6.50285C281.987 5.29794 278.181 4.01125 278.176 4.01125C268.536 0.783625 257.638 -1.53896 247.535 1.23615C238.25 3.78772 231.838 11.2189 228.654 19.4897C227.035 23.6932 226.136 28.213 226.114 32.6837C226.092 37.5906 228.131 43.0372 224.685 47.3552C225.956 47.4479 227.248 47.328 228.469 46.9954C223.181 47.7641 215.215 49.0726 215.024 55.3698C214.942 58.1285 216.862 60.5329 218.481 62.8391C220.1 65.1453 221.529 68.024 220.405 70.5756C218.988 73.7978 214.065 75.0681 213.432 78.5083C212.68 82.5974 216.807 84.4675 218.475 87.6515C220.574 91.6642 218.563 96.3312 218.083 100.491C217.652 104.182 221.294 105.878 223.671 108.08C230.563 114.465 230.475 121.721 222.935 128.776C222.783 128.918 222.843 129.196 222.952 129.371C223.066 129.556 223.311 129.632 223.535 129.687C233.278 132.069 245.938 123.27 248.184 114.497C249.198 110.545 246.614 106.848 247.748 103.048C248.963 98.9645 253.827 97.4325 257.065 95.0608C263.024 90.7046 269.398 83.1644 268.52 75.6242C267.986 71.0336 266.443 65.8595 263.057 62.1194C260.097 58.8427 251.253 57.0544 251.346 52.1585C251.384 49.994 253.249 48.3202 254.655 46.5974C258.216 42.2303 251.39 38.4247 254.759 36.1458C256.929 34.6791 259.497 33.6487 262.136 33.2071C264.933 32.7382 267.784 32.2966 269.959 30.4538C271.993 28.7309 274.801 24.8382 277.947 25.0999C281.872 25.427 286.381 24.511 288.415 21.3597" fill="#4B369D"/>
<path d="M270.646 129.158C269.245 116.624 275.728 96.6747 267.909 86.4957C267.108 85.4543 266.247 84.413 265.085 83.7315C250.381 75.1063 240.202 88.5075 235.502 100.3C231.43 110.523 231.931 119.933 231.626 130.597C231.119 148.573 226.643 166.063 220.929 183.15C218.89 189.245 218.35 196.344 224.113 197.271C231.904 198.519 233.583 189.551 241.02 187.234C247.813 185.118 253.298 186.416 260.718 186.797C264.398 186.988 276.42 184.726 275.69 178.325C273.95 163.163 271.344 150.083 271.257 139.522C271.23 136.11 271.034 132.637 270.646 129.158Z" fill="#D7384E"/>
<path d="M250.741 96.293C250.741 96.293 246.499 114.781 242.034 137.314C237.569 159.853 244.193 176.853 244.193 176.853C245.158 179.339 246.15 181.82 247.23 184.224C249.345 188.962 250.043 192.113 249.22 197.244C248.527 201.567 249.988 205.378 253.161 208.638C255.43 210.966 258.276 212.771 260.238 215.355C260.555 215.77 261.078 216.239 261.552 215.999C261.956 215.797 261.939 215.263 261.868 214.837C261.225 211.005 260.582 207.172 259.933 203.339C259.808 202.592 259.682 201.818 259.868 201.082C260.053 200.346 260.636 199.648 261.438 199.523C262.397 199.375 263.264 200.057 263.968 200.684C265.036 201.643 265.778 205.138 267.751 203.813C268.58 200.455 265.249 194.12 263.188 191.383C261.16 188.286 257.278 188.907 256.073 185.603C254.775 182.038 253.483 178.478 252.229 174.901C243.342 139.408 255.871 124.835 255.871 124.835C255.871 124.835 253.123 122.539 255.086 104.902C257.06 87.2753 250.741 96.293 250.741 96.293Z" fill="#EAC2AB"/>
<path d="M260.696 123.384C260.696 123.384 270.881 90.7919 256.585 91.3916C242.29 91.9913 237.639 129.632 237.639 129.632L261.083 128.324L260.696 123.384Z" fill="#F44E4E"/>
</svg>
