<svg width="487" height="451" viewBox="0 0 487 451" fill="none" xmlns="http://www.w3.org/2000/svg">
<path d="M175.446 149.822L160.315 194.641L120.867 198.446C120.867 198.446 151.018 173.084 155.169 144.17C159.32 115.256 175.446 149.822 175.446 149.822Z" fill="#D4A79A"/>
<path d="M233.23 65.5928C233.23 65.5928 238.123 78.0347 221.772 107.438C205.421 136.841 185.634 160.328 176.661 155.782C151.86 143.213 147.824 122.085 143.162 103.617C137.444 80.9706 172.895 39.5049 172.895 39.5049L196.987 34.0454L233.23 65.5928Z" fill="#EAC2AB"/>
<path d="M265.591 65.4828C268.34 57.9946 267.9 49.5882 262.429 41.4951C260.846 39.153 258.542 37.3057 255.859 36.8329C253.842 36.4755 251.648 36.8933 249.79 36.0192C244.209 33.4131 245.914 24.5889 240.971 21.3231C237.282 18.8875 232.378 21.4715 227.974 21.2901C224.647 21.1526 221.662 19.4153 218.71 17.8813C210.397 13.5654 203.398 7.04482 194.65 3.42715C187.267 0.375775 179.069 -0.987723 171.13 0.793622C162.845 2.65194 155.692 8.32035 150.639 15.7646C147.621 20.218 145.57 25.54 145.488 30.939C145.553 26.5022 136.878 28.8663 135.212 30.1638C128.697 35.2329 124.029 48.8734 124.469 57.0049C124.815 63.4431 126.646 69.5733 126.8 76.0499C127.135 90.2182 125.612 113.805 146.593 114.189C146.037 106.976 145.537 99.6253 147.06 92.4669C149.781 79.7171 155.45 62.8658 167.227 55.6194C192.094 40.3296 200.462 80.1019 219.27 87.6287C236.781 94.6496 259.362 82.4386 265.591 65.4828Z" fill="#4B369D"/>
<path d="M153.504 69.5733C153.504 69.5733 146.879 55.9494 143.283 72.9216C139.693 89.8994 147.467 95.7767 147.467 95.7767L153.504 69.5733Z" fill="#EAC2AB"/>
<path d="M195.475 309.626C193.677 286.37 190.461 261.772 185.079 238.493C180.917 220.498 177.008 195.856 159.304 185.603C126.146 166.393 104.808 213.818 98.9528 238.779C92.2783 267.215 93.125 297.173 92.8171 326.197C92.5422 352.224 88.8805 380.907 92.4212 406.489C93.048 411.003 94.6974 415.633 98.2326 418.508C107.222 425.82 116.491 416.127 124.057 411.817C131.132 407.781 138.626 408.447 146.142 405.736C152.745 403.356 155.994 398.418 161.52 394.581C176.012 384.508 191.616 400.711 207.323 397.676C241.466 391.079 215.4 400.387 201.661 331.794C200.259 324.806 196.113 317.906 195.475 309.626Z" fill="#F44E4E"/>
<path d="M284.235 258.363C297.204 250 302.23 231.23 314.226 221.169C319.114 217.073 324.909 214.643 330.654 212.394C338.857 209.178 347.143 206.215 355.488 203.51C354.966 207.776 351.678 210.937 348.264 212.823C344.85 214.709 341.073 215.781 337.895 218.145C336.493 219.184 335.206 220.515 334.481 222.225C332.848 226.068 334.431 230.686 333.744 234.881C332.452 242.749 324.381 245.959 318.196 249.808C305.424 257.753 297.171 273.405 283.861 280.113C283.861 280.113 183.974 363.05 171.658 360.757C159.343 358.465 142.348 245.344 142.348 245.344C142.348 245.344 130.627 187.043 161.421 214.973C192.215 242.903 173.258 335.681 188.476 326.103C203.684 316.52 284.235 258.363 284.235 258.363Z" fill="#EAC2AB"/>
<path d="M183.594 261.156C183.594 261.156 180.059 189.297 150.254 195.23C120.45 201.162 139.588 281.823 139.588 281.823L188.223 271.41L183.594 261.156Z" fill="#D7384E"/>
<path d="M250.807 436.965H49.6467C40.696 436.965 33.3727 429.641 33.3727 420.691V397.748C33.3727 388.797 40.696 381.474 49.6467 381.474H250.807C259.757 381.474 267.081 388.797 267.081 397.748V420.691C267.075 429.641 259.752 436.965 250.807 436.965Z" fill="#E3E5FC"/>
<path d="M145.399 450.825H10.8805C4.8932 450.825 0 445.926 0 439.945V424.605C0 418.618 4.8987 413.725 10.8805 413.725H145.399C151.387 413.725 156.28 418.623 156.28 424.605V439.945C156.28 445.932 151.381 450.825 145.399 450.825Z" fill="#F44E4E"/>
<path d="M138.45 433.188L137.955 433.792C137.763 434.029 137.411 434.062 137.174 433.869L125.953 424.732C125.717 424.539 125.684 424.187 125.876 423.951L126.371 423.346C126.563 423.11 126.915 423.077 127.152 423.269L138.373 432.407C138.604 432.599 138.642 432.951 138.45 433.188Z" fill="white"/>
<path d="M138.45 432.709L137.955 432.105C137.763 431.868 137.411 431.835 137.174 432.028L125.953 441.165C125.717 441.358 125.684 441.709 125.876 441.946L126.371 442.551C126.563 442.787 126.915 442.82 127.152 442.628L138.373 433.49C138.604 433.292 138.642 432.94 138.45 432.709Z" fill="white"/>
<path d="M122.781 433.187L122.286 433.792C122.094 434.029 121.742 434.062 121.505 433.869L110.284 424.732C110.048 424.539 110.015 424.187 110.207 423.951L110.702 423.346C110.894 423.11 111.246 423.077 111.483 423.269L122.704 432.407C122.94 432.599 122.973 432.951 122.781 433.187Z" fill="white"/>
<path d="M122.781 432.709L122.286 432.105C122.093 431.868 121.741 431.835 121.505 432.028L110.284 441.165C110.047 441.358 110.014 441.709 110.207 441.946L110.701 442.551C110.894 442.787 111.246 442.82 111.482 442.628L122.704 433.49C122.94 433.292 122.973 432.94 122.781 432.709Z" fill="white"/>
<path d="M105.682 433.188L105.187 433.792C104.995 434.029 104.643 434.062 104.407 433.869L93.1853 424.732C92.9489 424.539 92.9159 424.187 93.1084 423.951L93.6032 423.346C93.7956 423.11 94.1475 423.077 94.3839 423.269L105.605 432.407C105.842 432.599 105.875 432.951 105.682 433.188Z" fill="white"/>
<path d="M105.682 432.709L105.188 432.105C104.995 431.868 104.643 431.835 104.407 432.028L93.1855 441.165C92.949 441.358 92.9161 441.709 93.1085 441.946L93.6033 442.551C93.7957 442.787 94.1476 442.82 94.384 442.628L105.605 433.49C105.842 433.292 105.875 432.94 105.682 432.709Z" fill="white"/>
<path opacity="0.26" d="M463.606 278.81L259.972 349.409C247.052 349.409 236.578 338.936 236.578 326.015V225.468C236.578 212.548 247.052 202.075 259.972 202.075L463.606 131.475C476.526 131.475 487 141.949 487 154.869V255.416C487 268.336 476.526 278.81 463.606 278.81Z" fill="#A7ADFF"/>
<path opacity="0.13" d="M451.037 272.878L247.403 343.477C234.483 343.477 224.01 333.003 224.01 320.083V219.542C224.01 206.621 234.483 196.148 247.403 196.148L451.037 125.548C463.958 125.548 474.431 136.022 474.431 148.942V249.484C474.431 262.404 463.958 272.878 451.037 272.878Z" fill="#A7ADFF"/>
<path opacity="0.39" d="M328.504 242.82L265.673 264.603C261.687 264.603 258.454 261.37 258.454 257.384V226.359C258.454 222.373 261.687 219.14 265.673 219.14L328.504 197.357C332.49 197.357 335.723 200.59 335.723 204.576V235.601C335.723 239.587 332.49 242.82 328.504 242.82Z" fill="white"/>
<path d="M470.94 97.833L408.109 119.616C404.123 119.616 400.89 116.383 400.89 112.397V81.372C400.89 77.386 404.123 74.1532 408.109 74.1532L470.94 52.3702C474.926 52.3702 478.159 55.603 478.159 59.589V90.6141C478.159 94.6001 474.926 97.833 470.94 97.833Z" fill="#A7ADFF"/>
<path d="M447.123 89.6024L387.635 110.225C383.858 110.225 380.801 107.163 380.801 103.391V74.0212C380.801 70.2441 383.863 67.1872 387.635 67.1872L447.123 46.5643C450.9 46.5643 453.957 49.6267 453.957 53.3983V82.7685C453.957 86.5456 450.895 89.6024 447.123 89.6024Z" fill="#E3E5FC"/>
<path d="M467.598 329.017L408.109 349.64C404.332 349.64 401.276 346.578 401.276 342.806V313.436C401.276 309.659 404.338 306.602 408.109 306.602L467.598 285.979C471.375 285.979 474.432 289.042 474.432 292.813V322.183C474.432 325.96 471.375 329.017 467.598 329.017Z" fill="#E3E5FC"/>
<path d="M368.881 339.024L306.051 360.807C302.064 360.807 298.832 357.574 298.832 353.588V322.568C298.832 318.582 302.064 315.349 306.051 315.349L368.881 293.566C372.867 293.566 376.1 296.799 376.1 300.785V331.81C376.1 335.791 372.867 339.024 368.881 339.024Z" fill="#A7ADFF"/>
<path opacity="0.51" d="M328.504 299.515L265.673 321.298C261.687 321.298 258.454 318.065 258.454 314.079V283.054C258.454 279.068 261.687 275.835 265.673 275.835L328.504 254.052C332.49 254.052 335.723 257.285 335.723 261.271V292.296C335.723 296.282 332.49 299.515 328.504 299.515Z" fill="white"/>
<path opacity="0.51" d="M358.682 280.267V280.267C357.149 280.267 355.89 279.008 355.89 277.474V230.642C355.89 229.108 357.149 227.849 358.682 227.849V227.849C360.216 227.849 361.475 229.108 361.475 230.642V277.474C361.475 279.008 360.222 280.267 358.682 280.267Z" fill="white"/>
<path opacity="0.51" d="M373.709 188.67V188.67C373.192 187.225 373.956 185.619 375.402 185.102L449.713 158.586C451.159 158.069 452.764 158.833 453.281 160.279V160.279C453.798 161.725 453.033 163.33 451.587 163.847L377.277 190.364C375.831 190.881 374.225 190.116 373.709 188.67Z" fill="white"/>
<path opacity="0.51" d="M373.709 198.798V198.798C373.192 197.352 373.956 195.746 375.402 195.23L449.713 168.713C451.159 168.196 452.764 168.96 453.281 170.406V170.406C453.798 171.852 453.033 173.458 451.588 173.974L377.277 200.491C375.831 201.002 374.225 200.244 373.709 198.798Z" fill="white"/>
<path opacity="0.51" d="M373.709 208.92V208.92C373.192 207.474 373.956 205.868 375.402 205.351L449.713 178.835C451.159 178.318 452.764 179.082 453.281 180.528V180.528C453.798 181.974 453.033 183.579 451.588 184.096L377.277 210.613C375.831 211.13 374.225 210.366 373.709 208.92Z" fill="white"/>
<path opacity="0.51" d="M373.709 219.047V219.047C373.192 217.601 373.956 215.995 375.402 215.479L449.713 188.962C451.159 188.445 452.764 189.209 453.281 190.655V190.655C453.798 192.101 453.033 193.707 451.588 194.223L377.277 220.74C375.831 221.252 374.225 220.493 373.709 219.047Z" fill="white"/>
<path opacity="0.51" d="M373.709 229.169V229.169C373.192 227.723 373.956 226.117 375.402 225.6L449.713 199.084C451.159 198.567 452.764 199.331 453.281 200.777V200.777C453.798 202.223 453.033 203.828 451.588 204.345L377.277 230.862C375.831 231.379 374.225 230.615 373.709 229.169Z" fill="white"/>
<path opacity="0.51" d="M373.709 239.29V239.29C373.192 237.844 373.956 236.239 375.402 235.722L449.713 209.205C451.159 208.689 452.764 209.453 453.281 210.899V210.899C453.798 212.345 453.033 213.95 451.588 214.467L377.277 240.984C375.831 241.501 374.225 240.736 373.709 239.29Z" fill="white"/>
<path opacity="0.51" d="M373.709 249.418V249.418C373.192 247.972 373.956 246.366 375.402 245.85L449.713 219.333C451.159 218.816 452.764 219.58 453.281 221.026V221.026C453.798 222.472 453.033 224.078 451.588 224.594L377.277 251.111C375.831 251.622 374.225 250.864 373.709 249.418Z" fill="white"/>
<path opacity="0.51" d="M373.709 259.539V259.539C373.192 258.093 373.956 256.488 375.402 255.971L449.713 229.455C451.159 228.938 452.764 229.702 453.281 231.148V231.148C453.798 232.594 453.033 234.199 451.588 234.716L377.277 261.233C375.831 261.75 374.225 260.985 373.709 259.539Z" fill="white"/>
<path opacity="0.51" d="M373.709 269.667V269.667C373.192 268.221 373.956 266.615 375.402 266.098L449.713 239.582C451.159 239.065 452.764 239.829 453.281 241.275V241.275C453.798 242.721 453.033 244.327 451.588 244.843L377.277 271.36C375.831 271.871 374.225 271.113 373.709 269.667Z" fill="white"/>
<path opacity="0.51" d="M373.709 279.789V279.789C373.192 278.343 373.956 276.737 375.402 276.22L449.713 249.704C451.159 249.187 452.764 249.951 453.281 251.397V251.397C453.798 252.843 453.033 254.448 451.588 254.965L377.277 281.482C375.831 281.999 374.225 281.234 373.709 279.789Z" fill="white"/>
<path d="M339.978 107.949C340.671 107.52 341.397 107.136 342.133 106.795C351.947 102.292 363.592 106.613 368.1 116.427C372.603 126.241 368.282 137.886 358.468 142.389L356.511 138.122C363.971 134.697 367.254 125.845 363.834 118.384C360.409 110.924 351.557 107.641 344.096 111.061C343.535 111.319 342.98 111.616 342.452 111.941L339.978 107.949Z" fill="#E3E5FC"/>
<path d="M351.7 142.911L360.365 143.725L356.736 135.807L351.7 142.911Z" fill="#E3E5FC"/>
<path d="M350.04 146.089C349.347 146.518 348.621 146.902 347.884 147.243C338.071 151.746 326.42 147.425 321.917 137.611C317.415 127.797 321.736 116.152 331.55 111.649L333.507 115.916C326.046 119.341 322.764 128.193 326.184 135.654C329.609 143.114 338.461 146.397 345.922 142.977C346.482 142.718 347.038 142.422 347.566 142.097L350.04 146.089Z" fill="#E3E5FC"/>
<path d="M338.323 111.127L329.653 110.313L333.282 118.225L338.323 111.127Z" fill="#E3E5FC"/>
<path opacity="0.36" d="M358.682 216.138C366.605 216.138 373.027 209.716 373.027 201.794C373.027 193.872 366.605 187.45 358.682 187.45C350.76 187.45 344.338 193.872 344.338 201.794C344.338 209.716 350.76 216.138 358.682 216.138Z" fill="#F44E4E"/>
<path d="M358.683 208.969C362.645 208.969 365.857 205.757 365.857 201.794C365.857 197.832 362.645 194.619 358.683 194.619C354.72 194.619 351.508 197.832 351.508 201.794C351.508 205.757 354.72 208.969 358.683 208.969Z" fill="#F44E4E"/>
<path opacity="0.36" d="M358.682 211.938C364.285 211.938 368.826 207.396 368.826 201.794C368.826 196.192 364.285 191.65 358.682 191.65C353.08 191.65 348.539 196.192 348.539 201.794C348.539 207.396 353.08 211.938 358.682 211.938Z" fill="#F44E4E"/>
</svg>
