<svg width="297" height="108" viewBox="0 0 297 108" fill="none" xmlns="http://www.w3.org/2000/svg">
<path d="M79.28 107.176C74.928 107.176 71.7707 105.896 69.808 103.336C68.3573 101.459 63.5787 94.5467 55.472 82.6L55.088 81.832C54.832 81.4053 54.5333 80.9787 54.192 80.552C53.8507 80.1253 53.5093 79.784 53.168 79.528C52.8267 79.1867 52.4853 78.888 52.144 78.632C51.888 78.376 51.632 78.1627 51.376 77.992C51.12 77.8213 50.9067 77.6933 50.736 77.608C50.5653 77.4373 50.4373 77.3093 50.352 77.224H50.096L52.272 76.712C56.0267 75.688 59.1413 74.4933 61.616 73.128C63.92 71.6773 66.0533 69.9707 68.016 68.008C70.064 66.0453 71.8133 63.8693 73.264 61.48C74.6293 59.0053 75.696 56.4027 76.464 53.672C77.232 50.9413 77.616 48.0827 77.616 45.096C77.616 40.6587 76.7627 36.4773 75.056 32.552C73.3493 28.6267 71.0027 25.2133 68.016 22.312C65.1147 19.3253 61.7013 16.9787 57.776 15.272C53.8507 13.5653 49.6693 12.712 45.232 12.712C42.2453 12.712 39.3867 13.096 36.656 13.864C33.9253 14.632 31.3227 15.7413 28.848 17.192C26.4587 18.5573 24.2827 20.264 22.32 22.312C20.3573 24.2747 18.6507 26.408 17.2 28.712C15.8347 31.1867 14.768 33.832 14 36.648C13.232 39.3787 12.848 42.1947 12.848 45.096C12.848 49.6187 13.7013 53.8 15.408 57.64C17.0293 61.6507 19.2907 65.1067 22.192 68.008C25.1787 70.9093 28.6773 73.2133 32.688 74.92C35.6747 76.2 39.088 76.968 42.928 77.224C46.256 77.48 48.8587 78.9307 50.736 81.576L55.6 88.36L54.064 88.744C50.8213 89.4267 47.8773 89.768 45.232 89.768C41.136 89.768 37.168 89.256 33.328 88.232C29.488 87.1227 25.9467 85.5867 22.704 83.624C19.376 81.7467 16.3467 79.4427 13.616 76.712C10.8853 73.9813 8.58133 70.952 6.704 67.624C4.74133 64.296 3.20533 60.7547 2.096 57C1.072 53.16 0.56 49.192 0.56 45.096C0.56 41 1.072 37.0747 2.096 33.32C3.20533 29.48 4.69867 25.896 6.576 22.568C8.53867 19.24 10.8853 16.2107 13.616 13.48C16.3467 10.7493 19.376 8.44533 22.704 6.56799C26.032 4.60533 29.5733 3.06933 33.328 1.96C37.168 0.935997 41.136 0.423996 45.232 0.423996C49.328 0.423996 53.296 0.935997 57.136 1.96C60.8907 3.06933 64.432 4.60533 67.76 6.56799C71.088 8.53066 74.1173 10.8347 76.848 13.48C79.5787 16.2107 81.8827 19.24 83.76 22.568C85.7227 25.896 87.216 29.48 88.24 33.32C89.3493 37.0747 89.904 41 89.904 45.096C89.904 49.192 89.392 53.16 88.368 57C87.2587 60.7547 85.7227 64.296 83.76 67.624C81.8827 70.952 79.5787 73.9813 76.848 76.712C74.8853 78.5893 72.5813 80.424 69.936 82.216L69.424 82.6L68.784 82.984C68.3573 83.3253 68.016 83.5387 67.76 83.624C67.6747 83.7093 67.632 83.752 67.632 83.752H68.144C69.936 83.752 71.344 84.4347 72.368 85.8C76.464 91.176 80.3893 96.296 84.144 101.16L86.064 103.464C86.4907 104.061 86.6187 104.616 86.448 105.128C86.2773 105.725 85.8507 106.109 85.168 106.28C83.2053 106.877 81.2427 107.176 79.28 107.176ZM127.569 87.976C125.606 88.488 123.601 88.744 121.553 88.744C118.054 88.744 114.812 88.104 111.825 86.824C108.838 85.4587 106.236 83.6667 104.017 81.448C101.884 79.144 100.22 76.456 99.025 73.384C97.8303 70.312 97.233 67.0693 97.233 63.656V29.096H109.137V63.784C109.308 65.576 109.734 67.2827 110.417 68.904C111.014 70.5253 111.91 71.8907 113.105 73C114.129 74.1947 115.409 75.1333 116.945 75.816C118.566 76.4987 120.358 76.84 122.321 76.84C124.113 76.84 125.777 76.4987 127.313 75.816C128.934 75.1333 130.342 74.2373 131.537 73.128C132.732 72.0187 133.67 70.696 134.353 69.16C135.036 67.624 135.42 65.96 135.505 64.168V28.968H147.537V88.616H135.505V84.136C134.652 84.7333 133.798 85.2453 132.945 85.672C131.238 86.696 129.446 87.464 127.569 87.976ZM195.877 87.976C192.976 89 189.818 89.512 186.405 89.512C182.224 89.512 178.298 88.7013 174.629 87.08C170.874 85.544 167.632 83.4107 164.901 80.68C162.17 77.9493 159.994 74.7493 158.373 71.08C156.837 67.3253 156.069 63.3573 156.069 59.176C156.069 54.9947 156.837 51.0693 158.373 47.4C159.909 43.7307 162 40.5307 164.645 37.8C167.29 35.0693 170.405 32.8933 173.989 31.272C177.573 29.6507 181.37 28.84 185.381 28.84C189.306 28.84 192.976 29.608 196.389 31.144C199.888 32.68 202.917 34.7707 205.477 37.416C208.122 40.0613 210.17 43.2187 211.621 46.888C213.157 50.472 213.925 54.3547 213.925 58.536C213.925 60.9253 213.029 62.5893 211.237 63.528C210.128 64.04 208.805 64.296 207.269 64.296H168.741C169.082 65.4053 169.509 66.472 170.021 67.496C171.045 69.544 172.368 71.2933 173.989 72.744C175.61 74.28 177.488 75.4747 179.621 76.328C181.669 77.1813 183.888 77.608 186.277 77.608C188.325 77.608 190.288 77.3093 192.165 76.712L193.061 76.328C194.682 75.7307 196.005 75.432 197.029 75.432C200.016 75.432 202.917 77.352 205.733 81.192L206.373 81.96L205.605 82.6C205.008 83.1973 204.41 83.6667 203.813 84.008C201.338 85.7147 198.693 87.0373 195.877 87.976ZM191.397 42.024C189.52 41.256 187.514 40.872 185.381 40.872C183.248 40.872 181.242 41.256 179.365 42.024C177.402 42.792 175.653 43.8587 174.117 45.224C172.837 46.4187 171.514 48.1253 170.149 50.344C169.552 51.2827 169.125 52.3493 168.869 53.544C169.552 53.1173 170.192 52.904 170.789 52.904H201.253C200.997 51.9653 200.613 51.0693 200.101 50.216C199.162 48.3387 197.925 46.7173 196.389 45.352C194.938 43.9013 193.274 42.792 191.397 42.024ZM247.738 88.36C245.178 89.0427 242.533 89.384 239.802 89.384C235.45 89.384 231.397 88.0187 227.642 85.288C223.973 82.5573 221.199 79.6987 219.322 76.712L218.938 75.944L219.45 75.432C221.839 72.9573 224.357 71.72 227.002 71.72C229.306 71.72 231.439 72.616 233.402 74.408C235.877 76.6267 238.01 77.736 239.802 77.736C240.911 77.736 242.063 77.5653 243.258 77.224C244.367 76.968 245.434 76.5413 246.458 75.944C247.311 75.3467 248.037 74.664 248.634 73.896C249.061 73.2133 249.274 72.36 249.274 71.336C249.274 70.4827 249.061 69.7573 248.634 69.16C248.037 68.3067 247.269 67.5813 246.33 66.984C245.221 66.216 243.983 65.6187 242.618 65.192C241.253 64.5947 239.845 64.1253 238.394 63.784C236.261 63.1867 234.213 62.4187 232.25 61.48C230.202 60.456 228.367 59.2613 226.746 57.896C224.869 56.2747 223.375 54.44 222.266 52.392C221.327 50.5147 220.858 48.4667 220.858 46.248C220.858 43.688 221.327 41.3413 222.266 39.208C223.205 36.9893 224.527 35.112 226.234 33.576C227.941 31.9547 229.989 30.7173 232.378 29.864C234.767 29.096 237.327 28.712 240.058 28.712C244.154 28.712 247.866 29.608 251.194 31.4C252.303 31.9973 253.413 32.7653 254.522 33.704C255.631 34.5573 256.655 35.5813 257.594 36.776C258.533 37.8853 259.173 38.9093 259.514 39.848L259.77 40.488L259.258 41C257.039 43.048 254.65 44.072 252.09 44.072C250.298 44.072 248.506 43.56 246.714 42.536C245.861 42.1093 244.709 41.64 243.258 41.128C241.807 40.616 240.741 40.36 240.058 40.36C238.863 40.36 237.797 40.5307 236.858 40.872C235.919 41.2133 235.151 41.64 234.554 42.152C233.957 42.664 233.487 43.2613 233.146 43.944C232.89 44.6267 232.762 45.3947 232.762 46.248C232.762 46.8453 232.89 47.4 233.146 47.912C233.573 48.5947 234.127 49.1493 234.81 49.576C235.663 50.1733 236.559 50.6427 237.498 50.984C238.607 51.4107 239.631 51.752 240.57 52.008L242.234 52.392C245.05 53.16 247.567 54.1413 249.786 55.336C252.09 56.4453 254.095 57.768 255.802 59.304C257.509 60.9253 258.831 62.7173 259.77 64.68C260.794 66.728 261.306 68.9467 261.306 71.336C261.306 74.2373 260.666 76.84 259.386 79.144C258.191 81.448 256.57 83.368 254.522 84.904C252.559 86.44 250.298 87.592 247.738 88.36ZM274.1 88.872V42.152H266.676V37.16C266.676 35.1973 267.359 33.576 268.724 32.296C270.089 30.9307 271.711 30.248 273.588 30.248H274.1V23.208C274.1 17.1493 276.916 14.12 282.548 14.12H286.388V30.248H296.756V33.704C296.756 36.008 295.903 38.0133 294.196 39.72C292.575 41.3413 290.612 42.152 288.308 42.152H286.388V76.584C286.388 79.9973 285.193 82.8987 282.804 85.288C280.415 87.6773 277.513 88.872 274.1 88.872Z" fill="#79747E"/>
</svg>
