<svg width="800" height="588" viewBox="0 0 800 588" fill="none" xmlns="http://www.w3.org/2000/svg">
<path d="M442.345 528.921L442.96 540.393L453.816 541.007L452.997 527.897L442.345 528.921Z" fill="#FFB27D"/>
<path d="M396.869 541.417L399.123 527.488L411.413 529.331L405.882 544.08L396.869 541.417Z" fill="#FFB27D"/>
<path d="M391.956 550.02C391.792 541.171 394.892 538.413 396.462 538.139C399.412 544.53 406.568 541.758 409.777 539.573C411.553 541.758 416.906 546.702 424.116 548.996C432.719 553.093 430.876 556.78 424.116 557.804C413.956 558.624 404.725 553.639 401.379 551.044L400.969 552.888C399.74 552.683 396.217 551.823 391.956 550.02Z" fill="#2555A5"/>
<path d="M392.162 549.815V546.742L401.38 550.225L400.765 553.093L392.162 549.815Z" fill="#133A7A"/>
<path d="M439.477 545.924C437.511 541.991 439.75 538.14 441.116 536.706C446.36 539.492 450.812 537.662 452.996 536.297C453.611 536.297 456.315 537.034 456.479 537.526C460.166 540.803 465.287 542.442 468.155 542.852C471.022 543.261 471.022 542.647 474.914 545.105C481.469 550.431 466.516 551.66 466.311 551.66C466.106 551.66 455.25 552.274 453.406 550.431C451.931 548.956 449.241 548.587 448.08 548.587V550.636L439.477 549.611V545.924Z" fill="#2555A5"/>
<path d="M439.512 549.556L439.512 546.652L448.081 548.382L448.081 550.635L439.512 549.556Z" fill="#133A7A"/>
<path d="M332.55 343.745C338.45 343.417 345.66 345.657 348.528 346.818L353.649 340.673C351.601 339.785 347.258 337.477 346.275 335.347C345.046 332.684 344.636 329.816 337.876 326.948C331.117 324.08 333.575 326.743 337.671 329.816C340.949 332.274 338.013 332.001 336.033 331.66L327.839 328.382C320.67 325.514 319.645 326.539 326.2 330.226C330.559 332.678 326.815 332.274 322.923 330.84C316.532 328.71 318.621 331.182 320.465 332.684L324.562 334.937C324.63 335.005 324.234 335.019 322.103 334.527C314.729 333.708 318.348 335.961 321.079 337.19C323.127 337.668 326.814 338.706 325.176 339.034C317.802 337.723 319.372 339.58 321.079 340.673C323.606 341.492 329.437 343.254 332.55 343.745Z" fill="#FFB27D"/>
<path d="M420.632 308.102C416.535 297.778 436.132 302.708 446.442 306.463C446.988 306.805 447.753 308.348 446.442 311.789C441.321 320.598 427.801 318.139 420.632 308.102Z" fill="white"/>
<path d="M436.813 314.043L438.861 311.38L442.344 313.428L441.115 315.682L448.899 345.179L436.813 347.227L438.861 315.682L436.813 314.043Z" fill="#545272"/>
<path d="M423.09 306.26L424.729 291.306L442.755 298.476C442.755 301.07 442.877 306.997 443.369 309.947C437.961 316.338 427.596 310.152 423.09 306.26Z" fill="#FFB27D"/>
<path d="M450.538 286.595C451.357 274.141 449.787 268.432 448.899 267.135C431.692 254.435 416.125 278.196 422.679 290.692C429.234 303.187 439.886 303.597 442.959 302.777C446.031 301.958 449.514 302.163 450.538 286.595Z" fill="#FFB27D"/>
<path d="M420.017 269.592C416.979 282.249 421.86 290.486 424.319 292.944L425.548 288.847C425.275 289.257 424.278 288.766 422.475 283.522C421.451 276.147 426.367 280.244 427.596 281.883C428.825 280.449 430.464 271.846 430.464 270.207C437.347 271.354 446.441 269.729 450.128 268.773C449.719 266.11 447.465 264.062 445.212 261.604C443.369 259.35 423.704 254.229 420.017 269.592Z" fill="#545272"/>
<path d="M515.269 336.166C513.958 338.46 509.67 342.721 507.69 344.565L510.557 350.3L523.258 350.915C526.262 349.89 533.09 347.35 536.367 345.384C539.645 343.417 537.323 343.609 535.753 343.95L532.885 344.565C533.295 343.95 534.893 342.27 538.006 340.468C541.12 338.665 538.211 338.624 536.367 338.829L532.271 340.468C533.431 339.444 535.999 337.149 536.982 336.166C538.826 332.069 533.5 336.166 532.885 336.781C532.394 337.272 530.222 338.351 529.198 338.829C529.266 338.488 530.222 336.863 533.5 333.093C536.982 327.768 531.451 331.66 527.764 335.142C525.142 338.092 521.073 338.146 519.366 337.805C519.502 337.463 520.144 336.289 521.619 334.322C525.306 325.924 516.908 333.298 515.269 336.166Z" fill="#FFB27D"/>
<path d="M405.884 463.782V407.451L458.938 395.365L460.987 405.812V468.903C459.758 488.09 457.3 527.733 457.3 532.813C454.186 535.435 444.258 533.906 439.683 532.813C439.273 514.105 438.454 475.827 438.454 472.385C436.324 470.747 434.699 458.866 434.152 453.13L427.802 480.169C423.706 496.761 415.061 531.461 413.259 537.525C407.195 537.852 399.261 533.701 396.052 531.584C396.735 522.844 398.838 502.702 401.788 492.05C404.737 481.398 405.748 468.766 405.884 463.782Z" fill="#1D468A"/>
<path d="M438.453 432.236C437.633 433.874 435.107 446.302 433.946 452.31C434.834 455.929 436.978 462.634 438.453 460.504C440.296 457.841 439.477 430.187 438.453 432.236Z" fill="#173870"/>
<path d="M441.32 406.836C439.845 410.933 439.067 413.596 438.042 413.391L439.886 423.838C441.456 418.58 443.942 407.819 441.32 406.836Z" fill="#173870"/>
<path d="M347.915 334.936C344.966 337.558 341.907 343.949 340.746 346.817C346.618 350.709 360.82 359.763 370.653 364.843C380.485 369.923 391 360.951 395.029 355.83L403.427 344.359V415.439C403.086 415.234 402.731 415.029 404.042 415.848C418.79 423.018 438.046 416.463 443.167 406.016C454.638 417.979 461.602 412.776 463.651 408.679L458.53 350.299C460.032 352.484 465.535 358.452 475.531 364.843C485.528 370.415 496.63 365.799 500.932 362.794C505.029 360.132 513.837 354.396 516.295 352.757C516.131 349.644 512.539 343.813 510.764 341.286L486.388 347.022C483.111 343.539 474.958 334.158 468.567 324.489C462.995 314.329 454.774 309.604 451.36 308.512L439.889 342.31C433.744 329.883 419.897 305.439 413.669 307.078C405.885 309.126 401.993 311.379 396.668 316.091C392.407 319.86 381.509 337.189 376.593 345.383C368.604 342.447 351.684 336.247 347.915 334.936Z" fill="#F99744"/>
<path d="M445.621 317.524C446.768 309.986 443.914 306.463 442.344 305.644C442.48 305.575 442.835 305.316 443.163 304.824C445.621 305.152 450.333 308.102 452.381 309.536L448.284 320.802C448.489 321.416 449.308 322.768 450.947 323.26C448.981 330.634 443.983 340.808 441.729 344.973C442.549 338.964 444.474 325.063 445.621 317.524Z" fill="#CD7123"/>
<path d="M414.077 306.873C414.569 305.562 419.608 303.459 422.066 302.571C421.042 306.463 426.777 320.802 431.284 326.742C436.528 333.461 440.024 342.379 441.116 345.997L423.705 326.742L426.777 324.284C422.817 319.3 414.733 308.839 414.077 306.873Z" fill="#CD7123"/>
<path d="M409.98 335.552C409.652 336.699 405.473 341.765 403.425 344.155V347.432C405.883 344.906 410.635 338.993 409.98 335.552Z" fill="#C67633"/>
<path d="M457.094 322.236L458.528 349.685L462.624 354.601C462.761 354.738 462.952 354.437 462.624 352.143C462.788 343.785 459.006 328.723 457.094 322.236Z" fill="#C67633"/>
<path d="M425.549 281.678C424.593 281.337 422.968 281.35 424.115 284.136C425.263 286.922 425.686 287.346 425.754 287.209" stroke="#545272"/>
<path d="M424.523 294.378C428.484 297.997 437.674 304.743 442.754 302.777C439.272 307.078 424.523 303.391 424.523 294.378Z" fill="#EC9F6A"/>
<path d="M791.076 560.458L781.089 506.633L784.138 504.74L795.071 560.458H791.076Z" fill="url(#paint0_linear_17_1436)"/>
<path d="M757.118 561.403L765.528 516.724L761.639 518.196L752.913 561.403H757.118Z" fill="url(#paint1_linear_17_1436)"/>
<path d="M726.106 560.458L718.747 523.033H715.173L722.322 560.458H726.106Z" fill="url(#paint2_linear_17_1436)"/>
<path d="M672.822 546.364L682.389 498.952H685.858L676.291 546.364H672.822Z" fill="url(#paint3_linear_17_1436)"/>
<path d="M797.712 457.522C791.091 413.456 773.967 400.486 764.138 399.744C720.53 391.579 704.921 431.541 700.708 438.593C696.496 445.645 696.62 463.832 681.258 490.679C665.896 517.527 675.752 493.905 677.486 511.767C800.183 559.074 802.693 490.679 797.712 457.522Z" fill="url(#paint4_linear_17_1436)"/>
<path d="M778.829 448.585C776.054 410.823 758.68 400.121 750.34 399.491C713.335 392.552 700.089 426.508 696.514 432.501C692.94 438.493 693.045 453.947 680.009 476.759C666.974 499.572 672.65 513.449 680.85 515.551C777.568 537.208 780.9 476.759 778.829 448.585Z" fill="url(#paint5_linear_17_1436)"/>
<path d="M715.034 501.646C715.739 501.7 779.916 487.209 744.322 487.838C715.847 488.341 712.932 497.253 715.034 501.646Z" fill="#D0A85B"/>
<path d="M8.18301 546.401L18.4119 491.273L15.2894 489.334L4.09147 546.401H8.18301Z" fill="url(#paint6_linear_17_1436)"/>
<path d="M42.963 547.369L34.3492 501.608L38.3331 503.115L47.2699 547.369H42.963Z" fill="url(#paint7_linear_17_1436)"/>
<path d="M74.7236 546.399L82.2607 508.068H85.9215L78.5998 546.399H74.7236Z" fill="url(#paint8_linear_17_1436)"/>
<path d="M129.299 531.965L119.5 483.405H115.947L125.745 531.965H129.299Z" fill="url(#paint9_linear_17_1436)"/>
<path d="M1.38979 440.973C8.17095 395.84 25.7094 382.557 35.7757 381.797C80.4393 373.433 96.4268 414.363 100.741 421.585C105.055 428.808 104.928 447.435 120.662 474.933C136.396 502.43 126.301 478.236 124.525 496.531C-1.14169 544.983 -3.71263 474.933 1.38979 440.973Z" fill="url(#paint10_linear_17_1436)"/>
<path d="M20.7301 431.82C23.5726 393.144 41.3672 382.183 49.9092 381.537C87.8098 374.431 101.376 409.209 105.037 415.346C108.698 421.483 108.591 437.311 121.942 460.676C135.293 484.041 129.479 498.254 121.08 500.407C22.0221 522.587 18.6092 460.676 20.7301 431.82Z" fill="url(#paint11_linear_17_1436)"/>
<path d="M86.0699 486.165C85.3474 486.22 19.6171 471.378 56.0728 472.022C85.2374 472.538 88.2228 481.665 86.0699 486.165Z" fill="#D0A85B"/>
<path d="M672.002 579.12C650.677 588.048 656.178 570.703 668.636 567.336L659.208 492.587L682.777 502.705L677.839 569.387C677.54 570.077 676.671 576.361 672.002 579.12Z" fill="#FFB27D"/>
<path d="M646.464 577.884C640.996 582.551 644.945 583.568 647.603 583.494L678.585 582.82L679.41 573.62C680.094 572.348 677.726 567.335 667.423 573.62C664.595 575.344 660.892 574.743 659.905 570.703C657.703 571.151 651.931 573.216 646.464 577.884Z" fill="#50246B"/>
<path d="M624.935 554.027L649.781 492.593C650.01 492.363 664.579 498.606 672.003 502.3C659.222 521.775 633.063 561.509 630.675 564.65C627.69 568.576 629.756 571.347 629.297 573.425C628.379 573.425 626.313 574.118 614.373 577.351C602.434 580.584 610.011 572.732 615.521 569.499C619.93 566.913 623.634 558.107 624.935 554.027Z" fill="#FFB27D"/>
<path d="M599.325 577.884C593.858 582.551 597.806 583.569 600.464 583.494L631.447 582.821V572.274C632.13 571.002 630.854 569.491 620.284 573.62C609.714 577.749 610.868 573.396 612.766 570.703C610.564 571.152 604.793 573.216 599.325 577.884Z" fill="#50246B"/>
<path d="M648.605 488.185C646.573 492.263 648.682 494.055 649.99 494.441L684.39 514.136C687.084 506.953 677.695 486.331 712.557 491.66C754.483 493.699 760.655 464.396 758.501 449.489C747.726 449.566 725.67 450.138 723.639 451.806C721.099 453.892 689.238 464.318 674.693 465.94C660.148 467.562 651.144 483.087 648.605 488.185Z" fill="url(#paint12_linear_17_1436)"/>
<path d="M717.794 454.753C719.837 454.391 719.11 449.317 718.49 446.826L758.666 443.428C758.821 444.334 759.038 447.052 758.666 450.676C753.557 454.527 724.296 455.206 717.794 454.753Z" fill="#8B49B3"/>
<path d="M719.143 448.815C709.106 417.644 711.399 400.683 713.799 396.099C713.799 373.252 735.495 356.601 746.414 354.538L758.872 445.377C751.98 446.217 734.384 448.082 719.143 448.815Z" fill="url(#paint13_linear_17_1436)"/>
<path d="M685.827 409.757L661.902 395.82L668.803 384.168L680.306 391.251L698.939 389.651L685.827 409.757Z" fill="url(#paint14_linear_17_1436)"/>
<path d="M634.593 371.391C636.064 374.316 643.938 378.704 647.692 380.532C650.817 382.726 659.871 391.502 664.008 395.616L669.983 386.932C668.374 385.865 663.824 383.092 658.492 380.532C651.598 378.476 650.449 375.276 647.002 369.791C643.555 364.306 645.623 369.563 645.164 370.934C644.796 372.031 642.866 370.629 641.946 369.791C640.338 368.039 636.615 364.901 634.593 366.363C632.065 368.192 632.754 367.735 634.593 371.391Z" fill="#FFB27D"/>
<path d="M668.862 384.168C663.117 388.882 661.83 393.989 661.905 395.953L665.72 398.31L672.676 386.996C672.302 386.682 671.016 385.676 668.862 384.168Z" fill="#4586F2"/>
<path d="M620.924 408.177C617.084 410.864 619.324 411.536 620.924 411.536C622.753 411.088 626.639 410.148 627.553 409.969C628.696 409.745 631.896 412.656 633.725 413.552C635.188 414.268 640.735 413.253 643.325 412.656L664.812 413.552L665.269 404.37L644.926 407.281C643.478 407.879 639.76 408.625 636.468 406.834C631.896 402.803 625.724 404.818 620.924 408.177Z" fill="#FFB27D"/>
<path d="M717.614 367.933C716.468 363.626 713.318 357.598 711.885 355.122L718.227 348.252L731.116 361.064L719.046 375.175C719.046 374.556 718.759 372.241 717.614 367.933Z" fill="#FFB27D"/>
<path d="M725.65 364.107C722.957 363.139 719.066 367.094 717.794 369.354C717.869 369.676 719.185 373.256 719.365 374.031C721.161 373.394 726.885 368.343 729.915 366.043C729.616 365.801 728.344 365.075 725.65 364.107Z" fill="white"/>
<path d="M731.263 376.111C727.349 365.154 711.16 375.655 703.41 382.959C697.272 387.829 684.812 397.796 684.075 398.71C683.338 399.623 681.159 400.916 680.162 401.449L667.962 403.275V415.145H692.131L721.825 397.568C731.032 391.861 730.342 387.524 731.263 376.111Z" fill="url(#paint15_linear_17_1436)"/>
<path d="M662.615 403.71L661.902 414.459L669.983 415.145V403.024L662.615 403.71Z" fill="#4586F2"/>
<path d="M715.731 363.636C717.527 363.994 719.837 359.24 720.51 357.226L713.808 359.79C714.033 360.387 715.013 362.205 715.731 363.636Z" fill="#E4A579"/>
<path d="M724.716 355.168C706.158 367.927 702.428 355.245 702.883 347.31C702.201 340.992 701.564 327.293 704.475 323.04C708.114 317.724 747.914 339.22 724.716 355.168Z" fill="#FFB27D"/>
<path d="M723.367 358.69C722.625 353.494 724.293 344.152 725.22 340.131C729.775 338.893 740.045 336.558 744.678 337.115C749.311 337.672 753.712 348.637 755.333 354.05C756.105 360.392 757.464 374.234 756.723 378.874C754.87 385.602 756.955 386.53 758.576 391.401C760.198 396.273 760.893 402.305 751.395 404.161C743.797 405.646 742.052 398.903 742.13 395.345V379.57C742.13 373.074 738.655 368.898 732.632 367.274C726.609 365.65 724.293 365.186 723.367 358.69Z" fill="#0F2B53"/>
<path d="M707.707 326.569C703.466 325.291 702.253 333.342 702.176 337.527C700.563 335.701 699.41 328.852 699.641 326.569C699.871 324.287 703.098 319.036 706.324 318.58C708.721 319.858 712.546 318.504 714.159 317.667C717.308 316.525 725.036 314.927 730.751 317.667C737.895 321.091 742.504 329.537 742.043 332.505C741.582 335.472 743.426 335.016 745.269 337.983C746.421 341.179 739.969 345.06 732.825 345.745C725.681 346.43 715.081 337.983 713.698 332.961C712.315 327.939 711.394 326.569 707.707 326.569Z" fill="#163561"/>
<path d="M128.748 296.099C126.92 293.749 126.898 288.374 127.116 285.981C127.66 284.675 127.703 280.04 123.525 271.945C118.302 261.826 88.9258 299.69 89.905 304.912C90.6884 309.09 88.273 316.01 86.9673 318.948L105.573 327.108C106.443 322.212 109.555 313.072 115.039 315.684C120.522 318.295 123.416 314.596 124.178 312.42C124.613 310.244 126.006 305.239 128.095 302.627C132.339 300.995 131.033 299.037 128.748 296.099Z" fill="#F7B39D"/>
<path d="M130.38 275.862C135.603 283.174 129.945 286.96 126.463 287.939C126.355 284.567 125.68 277.429 123.852 275.862C117.977 276.515 116.345 279.453 113.407 282.391C111.057 284.741 110.034 290.333 109.817 292.836C102.962 282.064 100.351 292.836 101.33 295.773C102.309 298.711 95.4548 300.017 95.4548 301.975C95.4548 303.934 93.8228 306.545 92.8435 306.545C91.8643 306.545 91.2115 309.483 90.5587 311.441C88.6002 311.441 86.3153 301.649 85.3361 300.017C84.5527 298.711 83.0513 291.421 82.3984 287.939C81.0928 284.349 80.0483 275.666 86.3153 269.66C92.5824 263.655 103.941 264.329 108.838 265.417C112.755 266.723 122.351 269.204 129.402 268.681C138.215 268.029 133.318 274.23 130.38 275.862Z" fill="#1C1717"/>
<path d="M101.657 306.545C102.44 308.895 110.47 313.182 114.387 315.032C110.731 314.248 108.076 318.405 107.206 320.581C105.465 318.187 101.918 312.029 101.657 306.545Z" fill="#EFA069"/>
<path d="M87.2944 318.295L105.9 326.782C103.615 331.025 106.879 336.9 109.49 344.734C113.146 349.696 114.713 369.433 115.039 378.681C114.495 386.515 112.624 403.096 109.49 406.752C105.573 411.322 107.858 426.337 107.858 434.17C107.858 442.004 98.3923 438.087 94.4754 434.17C90.5585 430.253 80.7662 428.621 76.8493 437.108C72.9324 445.595 65.425 440.699 56.612 441.351C49.5615 441.874 53.6743 424.378 56.612 415.565C57.156 415.239 58.701 409.363 60.5289 388.473C62.6179 361.316 69.6683 341.688 72.9324 335.268C74.8909 332.657 79.4606 326.847 82.0719 324.497C85.2054 323.975 86.8592 320.145 87.2944 318.295Z" fill="#9566FA"/>
<path d="M101.029 398.196L108.863 408.641C109.951 410.818 113.824 414.778 120.613 413.211C127.925 413.211 138.457 412.341 142.809 411.906C147.923 411.47 158.934 410.861 162.067 411.906C165.984 413.211 177.082 413.864 180.346 414.19C183.61 414.517 194.055 409.294 186.222 410.274C185.073 410.274 184.003 410.405 183.164 410.56C189.057 409.096 196.407 406.856 187.527 407.336C184.655 408.119 183.066 408.097 182.631 407.989C189.703 405.595 200.453 401.526 186.875 404.398C183.284 404.398 200.257 399.502 184.589 401.46C172.055 403.027 172.186 399.284 173.818 397.217C176.212 397 180.607 395.977 179.04 393.627C177.082 390.689 178.388 395.259 172.512 393.953C167.812 392.909 161.197 397.217 158.477 399.502L122.898 397.217L115.717 387.425L101.029 398.196Z" fill="#F7B39D"/>
<path d="M73.9124 374.111C64.4466 319.927 101.984 323.191 112.102 369.215C112.865 372.348 119.601 383.359 122.874 388.473C118.413 391.954 107.271 400.485 98.3931 406.752C91.3427 399.44 79.135 381.945 73.9124 374.111Z" fill="#8959EF"/>
<path d="M149.336 559.117L144.114 543.775L156.191 541.164L160.108 559.117H149.336Z" fill="#F7B39D"/>
<path d="M143.788 547.692L121.593 471.638H150.643L159.456 544.754L143.788 547.692Z" fill="#2D4364"/>
<path d="M146.242 566.777C144.03 558.956 146.138 555.783 147.469 555.173C151.581 560.16 157.289 556.027 159.629 553.338C161.716 554.863 167.624 558.004 174.563 558.357C183.16 559.987 182.384 563.692 176.62 566.18C167.789 569.28 158.426 567.009 154.849 565.486L154.916 567.219C153.776 567.324 150.446 567.383 146.242 566.777Z" fill="#142743"/>
<path d="M164.677 557.81L163.371 540.837H176.101L174.143 561.074L164.677 557.81Z" fill="#F7B39D"/>
<path d="M162.487 563.943C160.331 556.106 162.463 552.948 163.798 552.348C167.874 557.365 173.612 553.273 175.971 550.6C178.047 552.141 183.932 555.324 190.869 555.727C199.454 557.418 198.651 561.118 192.869 563.564C184.015 566.601 174.67 564.263 171.104 562.714L171.158 564.447C170.018 564.544 166.688 564.579 162.487 563.943Z" fill="#193052"/>
<path d="M109.516 436.713C83.9256 428.618 68.9315 424.091 53.3727 426.267C43.2551 475.994 73.6102 480.778 90.9099 480.125C108.21 479.472 115.651 480.125 128.448 480.125C140.85 480.125 140.524 477.3 151.622 486.327L161.742 543.775L177.408 544.754C179.693 524.952 182.78 486.243 184.085 477.626C185.717 466.855 184.412 451.514 169.723 450.534C157.973 449.751 117.459 438.562 109.516 436.713Z" fill="#3C5780"/>
<path d="M705.479 413.22H121.993C120.025 413.22 118.431 414.815 118.431 416.782C118.431 418.749 120.025 420.344 121.993 420.344H705.479C707.86 420.344 709.571 418.053 708.894 415.77C708.446 414.258 707.056 413.22 705.479 413.22Z" fill="#A4C0EE"/>
<path d="M135.582 572.85L129.25 571.003L160.912 418.497H169.883L135.582 572.85Z" fill="#A4C0EE"/>
<path d="M228.983 417.177H219.221L253.521 573.377L261.965 570.474L228.983 417.177Z" fill="#A4C0EE"/>
<path d="M586.239 417.441H577.005L544.551 571.266L552.994 573.113L586.239 417.441Z" fill="#A4C0EE"/>
<path d="M669.88 573.114L635.843 418.233H645.078L677.796 571.531L669.88 573.114Z" fill="#A4C0EE"/>
<path d="M319.351 571.548L314.041 547.703L332.007 544.495L334.862 571.173L319.351 571.548Z" fill="#FFB27D"/>
<path d="M370.001 573.242L368.236 544.918L385.131 542.579L387.401 571.683L370.001 573.242Z" fill="#FFB27D"/>
<path d="M367.985 587.476C365.49 584.981 366.946 570.321 367.985 563.303C372.491 562.783 382.802 561.743 388 561.743C388 571.36 399.697 572.4 408.535 576.819C415.605 580.354 416.333 584.53 415.813 586.176C412.26 586.61 403.804 587.476 398.397 587.476C391.639 587.476 390.859 585.137 386.7 583.057C383.373 581.394 383.061 585.31 383.321 587.476H367.985Z" fill="#163561"/>
<path d="M383.322 585.138L367.206 584.618L367.726 587.737H383.322V585.138Z" fill="#0A1F3D"/>
<path d="M318.013 587.642C315.266 585.427 315.153 570.695 315.44 563.606C319.865 562.61 330.006 560.479 335.176 559.926C336.199 569.488 347.94 569.278 357.198 572.731C364.604 575.494 365.772 579.569 365.43 581.261C361.944 582.07 353.628 583.831 348.252 584.406C341.532 585.125 340.508 582.882 336.151 581.257C332.666 579.957 332.773 583.884 333.261 586.01L318.013 587.642Z" fill="#163561"/>
<path d="M332.885 582.821L316.84 584.421L317.765 587.445L333.226 585.398L332.885 582.821Z" fill="#0A1F3D"/>
<path d="M365.891 460.742C355.941 434.208 303.702 439.118 278.827 444.89C276.55 450.174 272.096 463.62 272.486 475.131C272.974 489.52 338.333 475.619 344.674 486.593C349.746 495.373 360.932 532.198 365.891 549.514H388.084C389.303 529.272 380.036 493.422 380.036 490.739C380.036 488.057 374.914 474.643 365.891 460.742Z" fill="url(#paint16_linear_17_1436)"/>
<path d="M345.652 399.53C341.359 397.774 333.133 401.725 329.556 403.919C330.694 406.277 333.165 411.09 333.945 411.48C334.921 411.968 337.116 414.162 338.823 413.187C340.53 412.211 343.457 410.992 346.383 411.48C349.31 411.968 350.529 410.992 352.236 409.041C353.943 407.09 353.7 409.285 355.894 410.992C358.089 412.699 361.991 413.675 359.796 407.09C357.602 400.505 351.017 401.725 345.652 399.53Z" fill="#FFB27D"/>
<path d="M289.801 487.812C252.731 476.496 227.53 459.035 217.613 451.475C217.613 416.161 274.355 450.255 302.726 471.716C307.685 475.862 318.871 486.447 323.943 495.616C329.016 504.786 333.698 535.856 335.406 550.245H311.506L305.653 530.003C302.076 517.078 293.898 490.544 289.801 487.812Z" fill="url(#paint17_linear_17_1436)"/>
<path d="M232.005 358.802C234.737 353.144 234.769 344.413 234.444 340.755C228.835 293.443 259.563 296.125 267.367 304.661C275.171 313.197 269.806 328.073 269.806 337.097C269.806 346.12 261.514 343.438 258.1 343.438C255.905 355.631 261.514 360.997 262.002 363.923C255.564 372.508 238.021 367.5 230.054 363.923C229.566 364.574 229.274 364.46 232.005 358.802Z" fill="#FFB27D"/>
<path d="M209.81 366.85C190.885 385.97 207.127 431.884 217.614 452.451C252.732 465.133 287.851 452.451 292.973 444.159C298.094 435.867 296.631 390.75 290.046 375.386C283.461 360.021 273.218 358.802 260.781 358.802C246.148 371.289 234.848 364.005 231.028 358.802C228.914 359.371 221.711 361.777 209.81 366.85Z" fill="url(#paint18_linear_17_1436)"/>
<path d="M223.224 335.145C241.758 356.021 251.757 339.291 254.44 328.316C243.709 314.854 252.733 311.245 257.61 315.878H259.074L259.561 307.587C270.292 306.855 271.024 305.392 272.243 296.612C273.606 286.794 263.545 282.305 258.098 281.248C253.627 280.679 241.905 280.662 230.784 285.15C210.054 297.588 212.981 315.147 223.224 335.145Z" fill="#163561"/>
<path d="M278.584 406.6L269.56 384.895C265.252 372.945 262.634 352.801 286.632 367.824C296.664 391.234 299.58 398.471 299.915 399.589C303.544 401.469 311.397 400.976 323.945 399.528C328.334 401.479 330.285 402.698 331.749 402.698L335.651 412.697C324.839 416.762 300.923 425.233 291.753 426.598C285.51 421.721 280.372 411.234 278.584 406.6Z" fill="url(#paint19_linear_17_1436)"/>
<path d="M207.501 580.609L219.366 516.662L215.744 514.414L202.755 580.609H207.501Z" fill="url(#paint20_linear_17_1436)"/>
<path d="M247.844 581.734L237.853 528.653L242.474 530.401L252.84 581.734H247.844Z" fill="url(#paint21_linear_17_1436)"/>
<path d="M262.883 583.625L271.626 539.162H275.872L267.379 583.625H262.883Z" fill="url(#paint22_linear_17_1436)"/>
<path d="M308.689 584.208L297.324 527.879H293.202L304.568 584.208H308.689Z" fill="url(#paint23_linear_17_1436)"/>
<path d="M212.252 464.742C219.942 415.448 239.832 400.94 251.247 400.11C301.898 390.976 309.186 434.051 314.078 441.94C318.97 449.829 317.099 454.549 324.92 492.397C331.989 526.607 330.748 510.015 328.734 529.996C186.223 582.916 206.466 501.833 212.252 464.742Z" fill="url(#paint24_linear_17_1436)"/>
<path d="M618.698 40.1189C620.073 40.5042 623.321 41.8401 625.308 44.1014C627.792 46.9279 631.827 40.6496 631.638 39.6767C631.45 38.7038 635.487 36.9778 637.494 39.7677C639.502 42.5576 643.502 43.8237 645.657 39.1977C647.812 34.5716 649.668 35.6727 651.725 37.5081C653.783 39.3435 654.836 39.7839 656.278 39.6552" stroke="#FF7C0D" stroke-width="4.75524"/>
<path d="M622.653 217.276L654.834 207.01L647.634 240.012L622.653 217.276Z" fill="url(#paint25_linear_17_1436)"/>
<rect x="254.981" y="43.3835" width="380.468" height="183.989" rx="10" fill="white"/>
<circle cx="321.293" cy="121.207" r="44.6762" fill="#D1E4FF"/>
<path d="M365.969 121.207C365.969 130.634 362.987 139.818 357.451 147.448C351.915 155.077 344.107 160.759 335.145 163.682C326.183 166.605 316.527 166.618 307.557 163.72C298.587 160.822 290.764 155.161 285.207 147.547C279.649 139.933 276.643 130.757 276.617 121.331C276.591 111.904 279.547 102.711 285.062 95.0671C290.578 87.4228 298.37 81.7189 307.323 78.7714C316.277 75.824 325.933 75.7841 334.911 78.6574L321.293 121.207H365.969Z" fill="#00FF57"/>
<path d="M365.969 121.207C365.969 130.634 362.987 139.818 357.451 147.448C351.915 155.077 344.107 160.759 335.145 163.682C326.183 166.605 316.527 166.618 307.557 163.72C298.587 160.822 290.764 155.161 285.207 147.547C279.649 139.933 276.643 130.757 276.617 121.331C276.591 111.904 279.547 102.711 285.062 95.0671C290.578 87.4228 298.37 81.7189 307.323 78.7714C316.277 75.824 325.933 75.7841 334.911 78.6574L321.293 121.207H365.969Z" fill="#81C2FF"/>
<path d="M365.969 121.207C365.969 129.452 363.687 137.536 359.377 144.564L321.293 121.207H365.969Z" fill="#BAAFFB"/>
<path d="M365.969 121.207C365.969 125.446 365.366 129.662 364.178 133.731L321.293 121.207H365.969Z" fill="#7F91F0"/>
<rect x="276.616" y="177.413" width="111.45" height="2.88234" fill="#DEEAFF"/>
<rect x="276.616" y="186.639" width="97.0386" height="2.88234" fill="#DEEAFF"/>
<rect x="276.616" y="194.792" width="82.627" height="2.88234" fill="#DEEAFF"/>
<g filter="url(#filter0_f_17_1436)">
<path d="M415.922 201.105C415.922 201.105 421.242 149.143 446.186 141.777C469.242 134.968 461.197 185.062 483.416 175.884C507.179 166.069 496.912 100.862 520.887 91.5761C541.028 83.7745 570.229 142.169 590.783 135.532C610.418 129.191 609.519 80.5271 609.519 80.5271" stroke="#1E6AD6" stroke-opacity="0.12"/>
<path d="M437.299 200.625C437.299 200.625 442.619 148.663 467.564 141.297C490.619 134.488 500.829 177.136 523.049 167.958C546.811 158.143 515.888 113.593 539.862 104.307C560.003 96.5052 570.71 131.361 591.264 124.723C610.899 118.383 621.288 81.248 621.288 81.248" stroke="#FF7C0D" stroke-opacity="0.12"/>
</g>
<path d="M411.845 195.67C411.845 195.67 417.165 143.708 442.11 136.341C465.165 129.533 457.121 179.626 479.34 170.449C503.103 160.634 492.836 95.4272 516.81 86.1408C536.951 78.3392 566.153 136.734 586.707 130.096C606.342 123.756 605.442 75.0918 605.442 75.0918" stroke="#1E6AD6"/>
<path d="M433.223 195.189C433.223 195.189 438.543 143.228 463.487 135.861C486.543 129.052 496.753 171.7 518.972 162.523C542.735 152.708 511.811 108.158 535.786 98.8714C555.927 91.0699 566.633 125.925 587.187 119.288C606.822 112.947 617.212 75.8127 617.212 75.8127" stroke="#FF7C0D"/>
<path d="M208.209 135.344L216.096 115.628L229.227 132.316L208.209 135.344Z" fill="#0176FF"/>
<path d="M385.43 23.4662L383.438 11.0217L395.211 15.5191L385.43 23.4662Z" fill="url(#paint26_linear_17_1436)"/>
<path d="M518.592 200.227C519.556 201.691 521.484 205.537 521.484 209.216C521.484 213.815 530.368 211.307 530.988 210.262C531.608 209.216 536.773 210.889 536.359 215.07C535.946 219.251 538.632 223.641 544.417 221.132C550.202 218.624 551.028 221.132 551.442 224.477C551.855 227.822 552.475 229.076 553.921 230.121" stroke="#0199FF" stroke-width="4.75524"/>
<path fill-rule="evenodd" clip-rule="evenodd" d="M140.267 53.6152C136.806 56.3616 136.226 61.3936 138.973 64.8547L147.918 76.1279C150.664 79.5889 155.696 80.1683 159.157 77.422L170.294 68.5852L176.549 71.0578L175.563 64.4043L186.5 55.7256C189.961 52.9793 190.541 47.9472 187.794 44.4862L178.849 33.213C176.103 29.7519 171.071 29.1726 167.61 31.9189L140.267 53.6152Z" fill="url(#paint27_linear_17_1436)"/>
<path fill-rule="evenodd" clip-rule="evenodd" d="M590.443 29.9C599.795 29.0805 607.068 22.8005 607.068 15.175C607.068 6.99253 598.694 0.359375 588.363 0.359375C578.033 0.359375 569.659 6.99253 569.659 15.175C569.659 22.4786 576.331 28.5479 585.111 29.7673L587.815 34.4518L590.443 29.9Z" fill="url(#paint28_linear_17_1436)"/>
<path fill-rule="evenodd" clip-rule="evenodd" d="M241.549 246.094C243.34 236.879 239.309 228.156 231.979 226.054C224.114 223.798 215.429 230.018 212.58 239.948C209.732 249.878 213.799 259.757 221.664 262.013C228.685 264.027 236.358 259.287 239.951 251.184L245.2 249.875L241.549 246.094Z" fill="#FF7C0D"/>
<defs>
<filter id="filter0_f_17_1436" x="410.424" y="75.5183" width="216.345" height="130.637" filterUnits="userSpaceOnUse" color-interpolation-filters="sRGB">
<feFlood flood-opacity="0" result="BackgroundImageFix"/>
<feBlend mode="normal" in="SourceGraphic" in2="BackgroundImageFix" result="shape"/>
<feGaussianBlur stdDeviation="2.5" result="effect1_foregroundBlur_17_1436"/>
</filter>
<linearGradient id="paint0_linear_17_1436" x1="795.119" y1="561.959" x2="792.959" y2="502.654" gradientUnits="userSpaceOnUse">
<stop offset="0.550331" stop-color="#7C8DB7"/>
<stop offset="1" stop-color="#A1ACBB"/>
</linearGradient>
<linearGradient id="paint1_linear_17_1436" x1="765.572" y1="562.607" x2="764.032" y2="515.038" gradientUnits="userSpaceOnUse">
<stop offset="0.550331" stop-color="#7C8DB7"/>
<stop offset="1" stop-color="#A1ACBB"/>
</linearGradient>
<linearGradient id="paint2_linear_17_1436" x1="726.144" y1="561.466" x2="724.897" y2="521.617" gradientUnits="userSpaceOnUse">
<stop offset="0.550331" stop-color="#7C8DB7"/>
<stop offset="1" stop-color="#A1ACBB"/>
</linearGradient>
<linearGradient id="paint3_linear_17_1436" x1="685.903" y1="547.642" x2="684.225" y2="497.165" gradientUnits="userSpaceOnUse">
<stop offset="0.550331" stop-color="#7C8DB7"/>
<stop offset="1" stop-color="#A1ACBB"/>
</linearGradient>
<linearGradient id="paint4_linear_17_1436" x1="735.923" y1="398.649" x2="735.923" y2="527.923" gradientUnits="userSpaceOnUse">
<stop stop-color="#F7CD7E"/>
<stop offset="1" stop-color="#EEBA59"/>
</linearGradient>
<linearGradient id="paint5_linear_17_1436" x1="725.743" y1="398.56" x2="725.743" y2="520.142" gradientUnits="userSpaceOnUse">
<stop stop-color="#FBE0B3"/>
<stop offset="1" stop-color="#FFCB6A"/>
</linearGradient>
<linearGradient id="paint6_linear_17_1436" x1="4.04172" y1="547.938" x2="6.25458" y2="487.198" gradientUnits="userSpaceOnUse">
<stop offset="0.550331" stop-color="#7C8DB7"/>
<stop offset="1" stop-color="#A1ACBB"/>
</linearGradient>
<linearGradient id="paint7_linear_17_1436" x1="34.3043" y1="548.601" x2="35.8819" y2="499.881" gradientUnits="userSpaceOnUse">
<stop offset="0.550331" stop-color="#7C8DB7"/>
<stop offset="1" stop-color="#A1ACBB"/>
</linearGradient>
<linearGradient id="paint8_linear_17_1436" x1="74.6847" y1="547.432" x2="75.9619" y2="506.619" gradientUnits="userSpaceOnUse">
<stop offset="0.550331" stop-color="#7C8DB7"/>
<stop offset="1" stop-color="#A1ACBB"/>
</linearGradient>
<linearGradient id="paint9_linear_17_1436" x1="115.901" y1="533.274" x2="117.62" y2="481.576" gradientUnits="userSpaceOnUse">
<stop offset="0.550331" stop-color="#7C8DB7"/>
<stop offset="1" stop-color="#A1ACBB"/>
</linearGradient>
<linearGradient id="paint10_linear_17_1436" x1="64.6741" y1="380.675" x2="64.6741" y2="513.078" gradientUnits="userSpaceOnUse">
<stop stop-color="#F7CD7E"/>
<stop offset="1" stop-color="#EEBA59"/>
</linearGradient>
<linearGradient id="paint11_linear_17_1436" x1="75.1009" y1="380.584" x2="75.1009" y2="505.109" gradientUnits="userSpaceOnUse">
<stop stop-color="#FBE0B3"/>
<stop offset="1" stop-color="#FFCB6A"/>
</linearGradient>
<linearGradient id="paint12_linear_17_1436" x1="703.317" y1="449.489" x2="703.317" y2="514.136" gradientUnits="userSpaceOnUse">
<stop stop-color="#3D8F7D"/>
<stop offset="1" stop-color="#44B09D"/>
</linearGradient>
<linearGradient id="paint13_linear_17_1436" x1="735.303" y1="354.538" x2="735.303" y2="448.815" gradientUnits="userSpaceOnUse">
<stop stop-color="#00A3FE"/>
<stop offset="1" stop-color="#0047FE"/>
</linearGradient>
<linearGradient id="paint14_linear_17_1436" x1="703.73" y1="372.15" x2="664.009" y2="414.529" gradientUnits="userSpaceOnUse">
<stop stop-color="#0045B7"/>
<stop offset="1" stop-color="#0750C9"/>
<stop offset="1" stop-color="#00348A"/>
</linearGradient>
<linearGradient id="paint15_linear_17_1436" x1="739.45" y1="350.816" x2="671.503" y2="423.25" gradientUnits="userSpaceOnUse">
<stop stop-color="#3E86FC"/>
<stop offset="1" stop-color="#0750C9"/>
<stop offset="1" stop-color="#00348A"/>
</linearGradient>
<linearGradient id="paint16_linear_17_1436" x1="330.328" y1="440.333" x2="330.328" y2="549.514" gradientUnits="userSpaceOnUse">
<stop stop-color="#3D8F7D"/>
<stop offset="1" stop-color="#44B09D"/>
</linearGradient>
<linearGradient id="paint17_linear_17_1436" x1="276.509" y1="436.199" x2="276.509" y2="550.245" gradientUnits="userSpaceOnUse">
<stop stop-color="#3D8F7D"/>
<stop offset="1" stop-color="#44B09D"/>
</linearGradient>
<linearGradient id="paint18_linear_17_1436" x1="248.572" y1="358.802" x2="248.572" y2="457.821" gradientUnits="userSpaceOnUse">
<stop stop-color="#00A3FE"/>
<stop offset="1" stop-color="#0047FE"/>
</linearGradient>
<linearGradient id="paint19_linear_17_1436" x1="288.177" y1="366.842" x2="315.1" y2="421.969" gradientUnits="userSpaceOnUse">
<stop stop-color="#4FC0FF"/>
<stop offset="1" stop-color="#0047FE"/>
</linearGradient>
<linearGradient id="paint20_linear_17_1436" x1="202.697" y1="582.392" x2="205.264" y2="511.935" gradientUnits="userSpaceOnUse">
<stop offset="0.550331" stop-color="#7C8DB7"/>
<stop offset="1" stop-color="#A1ACBB"/>
</linearGradient>
<linearGradient id="paint21_linear_17_1436" x1="237.801" y1="583.164" x2="239.63" y2="526.649" gradientUnits="userSpaceOnUse">
<stop offset="0.550331" stop-color="#7C8DB7"/>
<stop offset="1" stop-color="#A1ACBB"/>
</linearGradient>
<linearGradient id="paint22_linear_17_1436" x1="262.838" y1="584.823" x2="264.319" y2="537.481" gradientUnits="userSpaceOnUse">
<stop offset="0.550331" stop-color="#7C8DB7"/>
<stop offset="1" stop-color="#A1ACBB"/>
</linearGradient>
<linearGradient id="paint23_linear_17_1436" x1="293.148" y1="585.725" x2="295.142" y2="525.757" gradientUnits="userSpaceOnUse">
<stop offset="0.550331" stop-color="#7C8DB7"/>
<stop offset="1" stop-color="#A1ACBB"/>
</linearGradient>
<linearGradient id="paint24_linear_17_1436" x1="284.02" y1="398.886" x2="284.02" y2="543.495" gradientUnits="userSpaceOnUse">
<stop stop-color="#F7CD7E"/>
<stop offset="1" stop-color="#EEBA59"/>
</linearGradient>
<linearGradient id="paint25_linear_17_1436" x1="622.653" y1="217.276" x2="660.761" y2="225.589" gradientUnits="userSpaceOnUse">
<stop stop-color="#00A3FE"/>
<stop offset="1" stop-color="#0047FE"/>
</linearGradient>
<linearGradient id="paint26_linear_17_1436" x1="385.43" y1="23.4662" x2="390.623" y2="9.87184" gradientUnits="userSpaceOnUse">
<stop stop-color="#00A3FE"/>
<stop offset="1" stop-color="#0047FE"/>
</linearGradient>
<linearGradient id="paint27_linear_17_1436" x1="153.938" y1="42.7671" x2="176.449" y2="71.1368" gradientUnits="userSpaceOnUse">
<stop stop-color="#7FD1FF"/>
<stop offset="1" stop-color="#83A6FF"/>
</linearGradient>
<linearGradient id="paint28_linear_17_1436" x1="588.363" y1="0.359375" x2="588.363" y2="34.4518" gradientUnits="userSpaceOnUse">
<stop stop-color="#7FD1FF"/>
<stop offset="1" stop-color="#83A6FF"/>
</linearGradient>
</defs>
</svg>
