<svg width="664" height="461" viewBox="0 0 664 461" fill="none" xmlns="http://www.w3.org/2000/svg">
<rect x="162" y="0.350586" width="35.1974" height="45.9522" fill="#1160A8"/>
<rect x="162" y="161.672" width="35.1974" height="45.9522" fill="#1160A8"/>
<rect x="430.87" y="161.672" width="35.1974" height="45.9522" fill="#1160A8"/>
<rect x="433.802" y="0.350586" width="35.1974" height="45.9522" fill="#1160A8"/>
<rect x="163.955" y="3.28345" width="302.111" height="201.407" fill="#7CC0FF"/>
<rect x="172.755" y="11.106" width="282.557" height="179.898" fill="white"/>
<rect x="201.109" y="49.2354" width="3.91082" height="128.079" fill="#1160A8"/>
<rect x="201.109" y="173.405" width="216.073" height="3.91082" fill="#1160A8"/>
<rect x="217.729" y="111.808" width="19.5541" height="61.5955" fill="#F2F6FF"/>
<rect x="240.216" y="78.5669" width="19.5541" height="94.8375" fill="#F2F6FF"/>
<rect x="262.703" y="83.4556" width="19.5541" height="89.9489" fill="#F2F6FF"/>
<rect x="286.168" y="111.808" width="19.5541" height="61.5955" fill="#F2F6FF"/>
<rect x="308.656" y="146.029" width="19.5541" height="27.3758" fill="#F2F6FF"/>
<rect x="331.143" y="83.4556" width="19.5541" height="89.9489" fill="#F2F6FF"/>
<rect x="353.63" y="69.7673" width="19.5541" height="103.637" fill="#F2F6FF"/>
<rect x="376.117" y="66.8345" width="19.5541" height="106.57" fill="#F2F6FF"/>
<circle cx="389.806" cy="66.8349" r="6.09394" stroke="#CD4825" stroke-width="1.5"/>
<path d="M206.486 139.674C212.515 134.133 225.16 126.279 227.507 139.185C228.484 149.939 237.284 157.272 245.594 140.651C247.941 134.003 254.72 113.113 257.816 103.498C262.378 96.9804 272.481 88.2462 276.392 105.454C276.392 111.32 277.044 117.023 277.37 119.142C278.022 123.867 281.281 131.363 289.102 123.541C291.058 120.413 291.546 114.416 291.546 111.809C293.339 106.432 298.977 98.9032 307.19 111.809C308.363 116.893 308.656 125.008 308.656 128.43C308.493 132.83 309.439 142.411 314.523 145.54C320.878 149.451 326.255 145.051 326.255 137.229C326.255 130.972 327.885 115.068 328.699 107.898C330.818 100.565 336.619 89.1262 342.876 102.032C343.658 109.854 343.854 114.09 343.854 115.231C344.994 119.794 349.133 126.475 356.564 116.697C359.693 109.658 361.778 94.2102 362.43 87.3663C362.756 83.1296 365.07 74.1673 371.718 72.2118C378.367 70.2564 386.221 68.7899 389.317 68.301" stroke="#1160A8" stroke-width="1.5"/>
<circle cx="318.434" cy="146.029" r="6.09394" stroke="#CA3E1B" stroke-width="1.5"/>
<path d="M617.918 413.197C613.518 396.397 635.418 398.197 646.918 401.197C647.752 401.864 650.018 403.497 652.418 404.697C665.218 411.897 664.085 404.697 661.918 400.198C658.418 392.698 656.418 390.197 641.418 388.197C626.321 386.184 614.918 398.697 610.418 407.697C614.752 416.531 622.318 429.997 617.918 413.197Z" fill="#2D9662"/>
<path d="M635.5 393.546C619.9 393.546 614.667 403.546 614 408.546L614.5 409.046C618 403.046 620 395.546 635.5 395.546C651 395.546 653 400.046 655.5 401.546C657.5 402.746 658 402.046 658 401.546C657 398.879 651.1 393.546 635.5 393.546Z" fill="#2D8E5A"/>
<path d="M647.418 375.697C657.418 370.097 647.585 367.031 641.418 366.197C637.585 366.197 627.818 368.097 619.418 375.697C606.918 388.697 608.918 405.197 609.918 417.697C610.918 430.197 620.918 435.197 618.418 411.697C615.918 388.197 634.918 382.697 647.418 375.697Z" fill="#3DAE72"/>
<path d="M642.5 372.046C644.1 370.846 639.5 371.546 637 372.046C634.333 372.713 627.5 375.746 621.5 382.546C613.9 392.946 612 403.879 612 408.046C613 410.879 614.8 414.946 614 408.546C613 400.546 619 390.046 624 382.546C629 375.046 640.5 373.546 642.5 372.046Z" fill="#2E8E5B"/>
<path d="M614.147 430.429C599.678 389.174 604.523 355.105 621.418 340.197C625.085 337.864 633.418 333.697 637.418 335.697C642.418 338.197 640.418 346.697 624.418 371.697C612.217 390.762 612.373 417.701 614.147 430.429Z" fill="#329866"/>
<path d="M631 344.545C634.2 338.945 631.333 341.545 629.5 343.545C624 350.045 616 366.546 614 379.546C610.8 389.946 611.667 414.879 612.5 426.046C613 427.213 614 428.846 614 426.046C614 422.546 612 393.546 616 376.546C620 359.546 627 351.545 631 344.545Z" fill="#2D8D5A"/>
<path d="M589.918 358.197C593.918 364.597 602.252 400.864 605.918 418.197C605.918 420.697 607.118 426.297 611.918 428.697C616.718 431.097 611.585 379.364 608.418 353.197C606.918 344.697 597.918 336.197 592.418 330.197C586.328 323.552 576.918 321.197 576.418 328.697C575.918 336.197 584.918 350.197 589.918 358.197Z" fill="#2E8E5B"/>
<path d="M587 334.046C585 328.046 584.833 331.546 585 334.046C585 334.38 585.7 336.046 588.5 340.046C591.3 344.046 595 348.046 596.5 349.546C600.5 359.046 600 362.546 601 366.046C601.801 368.849 602 378.546 604 387.046C606.4 391.446 608.333 404.213 609 410.046H611C609.5 396.546 604.5 384.546 604 375.546C603.5 366.546 599.5 350.546 597 347.046C594.5 343.546 589.5 341.546 587 334.046Z" fill="#3EAF73"/>
<path d="M569.418 374.697C577.418 376.697 596.418 397.197 604.918 407.197C608.918 417.197 616.518 431.597 614.918 409.197C612.918 381.197 591.418 364.197 572.418 353.197C538.918 344.697 559.418 372.197 569.418 374.697Z" fill="#329866"/>
<path d="M564.5 360.546C562.5 356.946 563.666 356.713 564.5 357.046C564.5 359.046 571.833 364.213 575.5 366.546C578.5 368.213 585.2 372.146 588 374.546C599 390.046 595 382.546 599 387.546C610.2 403.546 611 409.879 610 411.046H608C608 400.546 592 385.046 590 380.046C588 375.046 567 365.046 564.5 360.546Z" fill="#2D8C59"/>
<path d="M595.418 400.697C609.018 402.297 608.085 409.697 605.918 413.197C609.752 416.364 616.318 419.297 611.918 405.697C607.518 392.097 592.418 388.031 585.418 387.698C581.252 386.864 571.218 387.598 564.418 397.198C557.218 407.598 563.752 408.197 567.918 407.197C571.418 404.364 581.818 399.097 595.418 400.697Z" fill="#3DAE72"/>
<path d="M567.5 402.546C565.1 402.946 567.833 400.046 569.5 398.546C575.5 392.546 590 393.546 594 393.546C598 393.546 607 396.546 610 403.546C612.4 409.146 614.667 414.546 615 416.546C614.5 417.879 613.5 419.846 613.5 417.046C613.5 414.246 608.191 405.213 605.537 401.046C596.642 391.699 586.372 396.055 579 396.546C571.945 397.017 570.5 402.046 567.5 402.546Z" fill="#2D8C59"/>
<path d="M585.418 413.697C584.618 404.497 590.085 403.864 593.418 404.697H631.918C637.918 404.697 638.418 409.364 637.918 411.697L634.918 428.197C633.918 435.531 631.718 450.797 630.918 453.197C630.118 455.597 625.918 456.864 623.918 457.197H600.918C595.718 457.197 593.752 454.531 593.418 453.197C591.085 443.864 586.218 422.897 585.418 413.697Z" fill="#162131"/>
<path d="M623.918 457.197H606.918C603.718 457.197 603.252 454.531 603.418 453.197C603.252 449.197 601.818 437.497 597.418 422.697C593.018 407.897 597.585 404.531 600.418 404.697H631.918C637.918 404.697 638.418 409.364 637.918 411.697L634.918 428.197C633.918 435.531 631.718 450.797 630.918 453.197C630.118 455.597 625.918 456.864 623.918 457.197Z" fill="#1F2B3E"/>
<path d="M9 363.046H113V451.046C113 453.255 111.209 455.046 109 455.046H13C10.7909 455.046 9 453.255 9 451.046V363.046Z" fill="#A2AAAB"/>
<path d="M25 363.046H113V451.046C113 453.255 111.209 455.046 109 455.046H29C26.7909 455.046 25 453.255 25 451.046V363.046Z" fill="#B8BCBC"/>
<rect x="35" y="414.046" width="68" height="31" rx="2" fill="#A2AAAB"/>
<circle cx="69" cy="428.046" r="4" fill="#8D9596"/>
<rect x="35" y="374.046" width="68" height="31" rx="2" fill="#A2AAAB"/>
<circle cx="69" cy="388.046" r="4" fill="#8D9596"/>
<rect y="345.046" width="121" height="19" rx="4" fill="#B8BCBC"/>
<rect x="9" y="364.046" width="104" height="5" fill="#8C9799"/>
<rect x="25" y="345.046" width="96" height="19" rx="4" fill="#A2AAAB"/>
<rect x="22" y="328.046" width="75" height="17" rx="2" fill="#86B2F3"/>
<path d="M30 321.546C30 317.956 32.9101 315.046 36.5 315.046H87V328.046H36.5C32.9101 328.046 30 325.136 30 321.546V321.546Z" fill="#339867"/>
<mask id="mask0_17_1986" style="mask-type:alpha" maskUnits="userSpaceOnUse" x="30" y="315" width="57" height="14">
<path d="M30 321.546C30 317.956 32.9101 315.046 36.5 315.046H87V328.046H36.5C32.9101 328.046 30 325.136 30 321.546V321.546Z" fill="#51C0A6"/>
</mask>
<g mask="url(#mask0_17_1986)">
<path d="M61 326.046C50.5 325.546 32.1667 320.713 28 316.546C27.1667 320.046 25.5 328.646 25.5 335.046C25.5 343.046 91.5 331.046 88.5 329.546C85.5 328.046 87 324.546 61 326.046Z" fill="#2A8559"/>
</g>
<path d="M82 309.046C82 305.732 79.3137 303.046 76 303.046H25V315.046H76C79.3137 315.046 82 312.36 82 309.046V309.046Z" fill="#F27559"/>
<path d="M25 306.046H49C50.6569 306.046 52 307.389 52 309.046V309.046C52 310.703 50.6569 312.046 49 312.046H25V306.046Z" fill="#E5EFFE"/>
<path d="M25 306.046H26V312.046H25V306.046Z" fill="#D8E5F8"/>
<path d="M87 319.046H63C61.3431 319.046 60 320.389 60 322.046V322.046C60 323.703 61.3431 325.046 63 325.046H87V319.046Z" fill="#E5EFFE"/>
<path d="M86 319.046H87V325.046H86V319.046Z" fill="#D8E5F8"/>
<circle cx="33" cy="337.046" r="5" fill="#6D9ADC"/>
<rect x="46" y="332.046" width="44" height="10" rx="1" fill="#6D9ADC"/>
<ellipse cx="337.561" cy="429.117" rx="136.162" ry="13.4935" fill="#D8E8FF"/>
<path d="M404.415 162.927H396.441C396.032 187.052 397.055 234.665 406.868 234.665C416.682 234.665 418.739 231.598 418.522 228.555C417.295 211.381 414.842 175.562 414.842 169.674C414.842 163.786 407.89 162.723 404.415 162.927Z" fill="#153E55"/>
<path d="M335.721 162.927C328.851 162.927 328.361 167.425 328.974 169.674C330.201 186.234 332.777 220.95 333.268 227.328C333.758 233.707 337.97 234.893 340.014 234.688C357.597 234.484 394.97 234.198 403.802 234.688C412.634 235.179 411.987 230.372 411.775 227.328C410.753 212.608 408.709 181.573 408.709 175.194C409.322 167.221 405.233 163.95 402.575 162.927H335.721Z" fill="#1F4171"/>
<mask id="mask1_17_1986" style="mask-type:alpha" maskUnits="userSpaceOnUse" x="328" y="162" width="84" height="73">
<path d="M335.72 162.925C328.851 162.925 328.36 167.423 328.973 169.672C330.2 186.232 332.776 220.947 333.267 227.326C333.758 233.705 337.969 234.891 340.014 234.686C357.596 234.482 394.969 234.195 403.801 234.686C412.633 235.177 411.775 230.37 411.775 227.326C410.752 212.606 408.708 181.571 408.708 175.192C409.321 167.219 405.232 163.948 402.575 162.925H335.72Z" fill="#163561"/>
</mask>
<g mask="url(#mask1_17_1986)">
<path d="M422.201 209.54C381.475 159.982 340.627 166.81 325.293 176.419L328.974 238.98L419.748 244.5L422.201 209.54Z" fill="#163561"/>
</g>
<path d="M370.067 234.074L374.974 205.247H376.814L380.494 234.074H370.067Z" fill="#0A1D38"/>
<path d="M355.348 205.247L346.761 250.021H371.295L376.815 205.247H355.348Z" fill="#395782"/>
<path d="M255.373 233.463C259.789 239.841 259.666 247.161 259.053 250.023H308.12L305.053 233.463H255.373Z" fill="#F27559"/>
<path d="M322.841 250.022H308.121L305.054 233.439L321.614 240.209L322.841 250.022Z" fill="#FFC3B6"/>
<rect x="156" y="250.046" width="345" height="9" rx="4.5" fill="#83A7DA"/>
<path d="M208.759 258.606H218.573L216.119 434.022H211.213L208.759 258.606Z" fill="#83A6DA"/>
<path d="M451.642 258.606H461.456L459.002 434.022H454.096L451.642 258.606Z" fill="#83A6DA"/>
<path d="M233.293 257.379H243.107L240.654 427.888H234.52L233.293 257.379Z" fill="#83A6DA"/>
<path d="M419.749 257.379H429.562L427.109 427.888H420.975L419.749 257.379Z" fill="#83A6DA"/>
<path d="M414.112 449.992L418.142 434.323H427.543L426.648 453.126C426.2 454.618 424.678 457.782 422.171 458.498C411.068 460.289 412.172 453.573 414.112 449.992Z" fill="#FFC7C7"/>
<path d="M412.769 454.916C413.127 449.544 419.185 449.693 422.17 450.439C423.513 450.738 426.11 452.051 425.752 454.916C424.319 459.214 419.484 459.094 417.245 458.498C415.902 458.498 413.127 457.781 412.769 454.916Z" fill="#355389"/>
<path d="M416.589 130.45C408.351 116.482 414.947 101.947 419.275 96.4253C423.005 95.3807 432.616 93.381 441.212 93.7392C449.807 94.0973 455.538 128.51 457.329 145.672L415.693 174.324C408.53 164.654 415.693 156.565 420.17 153.73C422.409 151.79 424.826 144.418 416.589 130.45Z" fill="#FFB27F"/>
<path d="M448.349 459.605C438.679 462.828 438.948 444.234 440.291 434.534C442.828 432.893 447.901 430.773 447.901 435.429C447.901 440.085 450.587 446.025 451.931 448.413C452.826 450.054 454.617 453.874 454.617 456.023C454.617 458.709 451.483 459.157 448.349 459.605L448.349 459.605Z" fill="#FFC7C7"/>
<path d="M404.5 348.924C399.844 323.137 399.576 281.173 400.023 263.415H461.805C470.759 279.89 464.823 342.152 459.899 370.357L450.492 435.007H437.182L431.81 305.05H430.019V435.007H416.588C413.156 408.145 405.933 362.176 404.5 348.924Z" fill="url(#paint0_linear_17_1986)"/>
<path d="M398.68 169.4C383.637 190.173 376.892 224.615 375.4 239.24L388.83 237.896L397.784 228.047L399.575 266.101C422.139 276.488 450.761 268.936 462.252 263.863L465.386 225.809C466.729 227.152 469.684 230.375 470.758 232.524C472.101 235.21 489.114 244.164 489.561 242.821C490.009 241.478 484.637 210.139 483.294 203.872C482.219 198.858 476.578 182.382 473.892 174.772C470.758 168.952 463.595 154.088 460.014 141.195C455.537 125.078 427.739 162.784 425.5 160.546C423.262 158.307 409.872 156.417 398.68 169.4Z" fill="url(#paint1_linear_17_1986)"/>
<path d="M375.4 244.612C375.758 249.626 398.232 252.67 409.425 253.566C413.155 253.566 425.81 254.461 446.583 253.566C472.525 252.448 449.269 244.612 444.792 243.268C440.747 242.055 415.245 237.001 394.651 235.21C374.057 233.42 374.952 238.344 375.4 244.612Z" fill="#F8AA77"/>
<path d="M489.113 241.925C489.83 232.971 475.086 233.717 467.624 235.21C464.341 235.508 452.402 237.09 430.913 241.03C401.545 253.565 440.165 254.013 463.147 252.67C471.504 252.819 488.397 250.879 489.113 241.925Z" fill="#FFB889"/>
<path d="M440.739 454.68C440.38 451.814 446.559 451.098 449.692 451.098C450.737 450.949 452.916 450.74 453.274 451.098C455.512 456.918 454.169 456.918 453.274 458.261C452.558 459.336 447.603 459.903 445.215 460.052C443.872 459.455 441.097 457.545 440.739 454.68Z" fill="#355389"/>
<path d="M408.977 102.693C400.381 100.544 414.051 92.5449 421.96 88.8141C434.943 82.0987 449.717 82.9941 456.433 90.6049C463.148 98.2156 463.596 112.542 463.596 119.705C463.596 125.435 473.743 148.954 478.817 159.997C477.176 163.131 471.207 169.399 460.462 169.399C441.211 164.922 439.868 137.613 442.107 134.031C444.345 130.45 445.688 119.705 445.24 116.571C444.793 113.437 440.763 110.303 438.973 112.542C437.182 114.78 435.391 113.437 434.496 109.408C433.6 105.379 427.78 102.245 425.094 101.349C422.945 100.633 418.528 102.245 416.588 103.14C415.991 103.289 413.633 103.409 408.977 102.693Z" fill="#30215A"/>
<path d="M214.569 428.941C215.415 427.461 215.45 418.808 215.362 414.667L231.106 413.092C231.113 412.19 231.173 412.539 231.223 413.081L231.106 413.092C231.101 413.805 231.129 415.301 231.223 418.103C231.434 424.447 242.766 428.324 248.405 429.47C250.432 430.087 255.384 432.06 258.979 435.021C265.587 443.48 256.864 444.802 253.692 446.388C251.154 447.657 242.766 446.917 238.889 446.388C237.038 445.595 231.646 444.167 224.878 444.802C212.454 452.732 213.512 430.792 214.569 428.941Z" fill="#1C4385"/>
<mask id="mask2_17_1986" style="mask-type:alpha" maskUnits="userSpaceOnUse" x="213" y="412" width="49" height="36">
<path d="M214.569 428.941C215.415 427.461 215.45 418.808 215.362 414.667L231.106 413.092C231.113 412.191 231.173 412.54 231.223 413.081L231.106 413.092C231.101 413.806 231.129 415.301 231.223 418.103C231.434 424.448 242.766 428.325 248.405 429.47C250.432 430.087 255.384 432.061 258.979 435.021C265.587 443.48 256.864 444.802 253.692 446.388C251.154 447.657 242.766 446.917 238.889 446.388C237.038 445.595 231.646 444.168 224.878 444.802C212.454 452.732 213.512 430.792 214.569 428.941Z" fill="#EA4949"/>
</mask>
<g mask="url(#mask2_17_1986)">
<path d="M234.924 429.735C227.945 428.043 226.729 421.628 226.993 418.632L229.108 415.724L254.75 428.942L249.198 432.378C247.348 432.202 241.902 431.426 234.924 429.735Z" fill="#193E7C"/>
<path d="M252.37 430.792C246.026 431.003 244.264 439.867 244.176 444.273L246.291 449.56L261.887 448.238L262.944 438.458C262.063 435.814 258.715 430.58 252.37 430.792Z" fill="#E5E5E5"/>
<path d="M227.786 423.919C228.579 423.038 230.641 421.328 232.545 421.54M231.752 428.148C232.985 426.915 235.664 424.553 236.51 424.976M237.303 430.527C238.272 429.206 240.422 426.668 241.268 427.091M242.854 431.321C243.559 430.263 245.18 428.254 246.026 428.677" stroke="#2A5297"/>
<path d="M218.005 440.573C217.582 438.67 214.657 438.547 213.247 438.723C210.604 448.504 224.085 448.768 228.579 449.297C233.073 449.825 258.45 447.711 261.622 445.86C264.16 444.38 261.622 441.719 260.036 440.573C258.185 445.067 251.048 444.01 247.612 444.538C243.871 445.114 237.038 441.366 229.372 442.159C221.706 442.952 218.534 442.952 218.005 440.573Z" fill="#202750"/>
</g>
<path d="M176.197 429.171C178.524 424.519 177.167 417.011 176.197 413.839L194.437 413.046C195.406 416.394 197.451 423.884 197.874 427.056C198.402 431.021 204.747 434.987 213.734 435.251C222.722 435.515 223.515 443.71 223.251 446.353C223.039 448.468 215.056 449.173 211.091 449.261C201.574 448.733 182.277 447.675 181.22 447.675C179.898 447.675 174.083 446.618 173.29 446.353C172.497 446.089 173.29 434.987 176.197 429.171Z" fill="#1C4385"/>
<mask id="mask3_17_1986" style="mask-type:alpha" maskUnits="userSpaceOnUse" x="173" y="413" width="51" height="37">
<path d="M176.197 429.171C178.524 424.518 177.167 417.011 176.197 413.839L194.437 413.046C195.406 416.394 197.451 423.884 197.874 427.056C198.402 431.021 204.747 434.986 213.734 435.251C222.722 435.515 223.515 443.71 223.251 446.353C223.039 448.468 215.056 449.173 211.091 449.261C201.574 448.732 182.277 447.675 181.22 447.675C179.898 447.675 174.083 446.618 173.29 446.353C172.497 446.089 173.29 434.986 176.197 429.171Z" fill="#1C4385"/>
</mask>
<g mask="url(#mask3_17_1986)">
<path d="M191.265 422.298C192.586 422.475 195.494 422.668 196.551 422.034M193.115 428.643C194.26 428.731 196.816 428.748 197.873 428.114M199.988 434.458C200.693 434.018 202.155 432.978 202.367 432.343M205.803 436.573C206.244 436.22 207.178 435.304 207.389 434.458M172.496 432.343C175.756 431.198 182.964 431.392 185.713 441.331C186.348 448.521 185.273 453.138 184.656 454.548C178.224 451.288 165.359 444.609 165.359 443.974C165.359 443.34 170.117 435.956 172.496 432.343Z" stroke="#2A5297" stroke-width="1.5"/>
<path d="M198.666 433.929C192.111 430.757 190.824 421.681 191.001 417.54L196.552 414.896L216.642 431.814L212.941 437.894C210.914 437.894 205.222 437.101 198.666 433.929Z" fill="#193E7C"/>
<path d="M209.24 448.204C207.548 441.226 210.826 436.661 212.676 435.251C217.434 429.965 226.687 441.596 228.008 446.354C229.33 451.112 211.355 456.928 209.24 448.204Z" fill="#E5E5E5"/>
<path d="M188.886 446.882C171.175 445.824 172.32 443.181 171.175 441.066C169.853 453.755 187.3 450.054 204.482 450.054C217.593 453.226 223.603 450.054 224.572 444.503C218.016 448.098 207.918 448.115 203.689 447.675L188.886 446.882Z" fill="#202750"/>
<path d="M191.529 421.77C192.672 421.77 194.965 421.241 196.816 422.034M193.379 427.585C195.077 427.181 197.08 427.169 198.054 427.169M196.478 432.344C197.996 431.726 199.507 430.58 200.252 431.022M200.517 434.458C201.671 433.927 203.159 432.816 204.217 433.401" stroke="#2A5297"/>
</g>
<path d="M174.653 310.251C169.892 292.045 174.83 276.15 176.768 270.07L223.557 267.956L221.706 298.091C220.385 307.255 217.635 326.693 217.212 331.134C216.79 335.575 208.753 367.877 204.788 383.474L195.801 417.31C194.109 419.213 182.407 418.103 176.768 417.31C176.063 414.842 174.336 405.943 173.067 390.082C171.798 374.222 175.006 352.986 176.768 344.351C178.09 336.597 178 323.045 174.653 310.251Z" fill="#1D468A"/>
<path d="M245.497 313.686L247.083 267.162L212.454 262.668C211.573 295.182 209.599 362.642 208.753 372.37C207.907 382.098 210.868 406.382 212.454 417.309C219.221 420.058 229.019 418.454 233.073 417.309C235.54 401.977 240.791 369.462 242.06 362.061C244.598 353.813 245.409 326.374 245.497 313.686Z" fill="#24467C"/>
<path d="M233.424 173.427C233.395 173.398 233.366 173.37 233.337 173.342C233.337 172.978 233.362 172.915 233.424 173.427C237.784 177.765 247.484 192.271 252.106 216.43L254.749 236.784C254.749 238.688 252.106 247.799 250.784 252.116L245.233 246.036C242.501 240.133 236.668 222.404 235.188 198.719C234.089 181.143 233.602 174.902 233.424 173.427Z" fill="url(#paint2_linear_17_1986)"/>
<path d="M246.554 251.301C244.017 248.975 245.144 246.808 246.026 246.015C247.347 245.838 250.097 246.173 250.52 248.922C250.943 251.672 248.405 256.765 247.083 258.967C247.436 257.293 247.823 253.416 246.554 251.301Z" fill="#8C4949"/>
<path d="M191.042 160.103C182.584 160.737 173.42 167.064 169.895 170.148L179.676 234.119C177.649 244.604 173.702 266.633 174.125 270.862C174.653 276.149 182.319 276.942 201.352 280.379C216.578 283.128 234.659 279.938 241.796 278C244.352 276.766 249.515 273.982 249.727 272.713C249.991 271.127 249.727 269.276 247.876 265.576C246.026 261.875 249.727 253.944 246.026 245.75C237.303 231.74 239.417 180.721 234.395 174.641C229.954 168.086 219.856 163.275 215.362 161.689C206.692 165.284 196.77 160.719 192.893 157.988L191.042 160.103Z" fill="#F99744"/>
<path d="M229.109 191.825L229.373 205.306C228.051 206.275 223.452 209.113 215.627 212.708C207.803 216.303 207.785 209.8 208.754 206.099V191.825C214.464 188.653 224.703 190.503 229.109 191.825Z" fill="#E3E9EE"/>
<path d="M208.225 197.904C204.207 198.327 207.432 200.724 209.547 201.869L210.34 203.72C209.9 203.896 208.648 204.09 207.168 203.455C205.318 202.662 203.996 200.812 204.525 197.64C204.948 195.102 208.226 194.997 209.812 195.261L211.662 197.376C211.398 197.464 210.34 197.693 208.225 197.904Z" fill="#E3E9EE"/>
<path d="M204.524 220.902L198.18 215.616L206.639 204.777C206.639 204.249 206.956 202.293 208.225 198.698C209.917 194.68 210.339 196.143 210.339 197.376V206.364C222.605 208.902 228.315 200.901 229.637 196.583C229.637 197.288 229.689 198.856 229.901 199.491C230.958 198.645 231.223 199.843 231.223 200.548C230.694 201.605 229.742 203.72 230.165 203.72C230.588 203.72 230.87 204.249 230.958 204.513C231.17 205.359 229.108 210.593 226.993 212.972C225.407 215.88 217.477 217.202 214.04 216.409C211.736 215.877 209.635 216.849 208.753 217.73L204.524 220.902Z" fill="#FFBA8C"/>
<path d="M181.5 170.046C171.138 162.221 160.291 176.492 158 184.687C155.262 191.824 155.092 226.453 155.621 243.9C156.149 261.347 168.045 262.14 183.377 252.095C195.642 244.059 204.348 226.365 207.168 218.523L200.559 212.972L180.469 224.339L183.377 190.238C184.082 186.45 187.633 177.236 181.5 170.046Z" fill="url(#paint3_linear_17_1986)"/>
<path d="M210.604 192.618C214.833 192.353 223.979 191.983 226.728 192.618C230.165 193.411 212.19 195.261 210.604 192.618Z" fill="#64403C"/>
<path d="M211.925 200.284C212.454 198.522 213.881 196.054 215.362 200.284C216.419 203.033 218.446 200.9 219.327 199.491C219.855 198.698 221.389 197.587 223.292 199.491C224.349 200.76 225.495 199.314 225.935 198.433" stroke="black"/>
<path d="M213.776 204.249C214.657 203.544 216.683 202.61 217.741 204.513C219.063 206.892 220.384 204.778 220.649 204.249C220.913 203.72 222.763 203.191 223.292 203.72" stroke="black"/>
<path d="M190.778 163.275C196.699 158.622 198.356 146.709 198.444 141.334L216.683 149.793C213.511 160.103 216.948 165.389 216.683 169.09C216.419 172.791 183.376 169.09 190.778 163.275Z" fill="#FFB27F"/>
<path d="M215.362 159.574C207.749 159.363 200.471 150.675 197.916 146.357C202.145 152.701 211.485 154.463 215.627 154.552C215.362 155.873 215.362 158.781 215.362 159.574Z" fill="#E69964"/>
<path d="M225.671 131.026C225.671 119.394 221.97 114.019 220.12 112.786C211.396 101.683 198.708 117.28 192.628 123.095C187.764 127.748 190.954 136.136 193.157 139.749C195.095 142.216 199.395 147.626 201.087 149.53C203.202 151.909 206.638 153.495 215.097 154.552C223.556 155.61 225.671 145.564 225.671 131.026Z" fill="#FFB27F"/>
<path d="M210.868 104.062C203.678 101.524 197.651 106.353 195.536 109.085C184.698 115.165 186.02 119.658 185.491 127.589C185.068 133.933 193.157 146.533 197.122 151.908L198.973 141.863C197.21 140.982 193.157 138.268 193.157 134.462C194.214 128.329 198.356 131.906 200.294 134.462L200 128.046C199.735 124.546 199.766 125.546 199.766 121.773C200 117.546 201.5 114.546 203.466 115.165C208.5 116.546 213.247 115.693 218.005 115.165C223.729 114.529 224.078 109.977 224.341 106.553L224.35 106.441C224.614 103.005 220.12 103.798 219.591 104.062C218.27 105.384 216.155 105.12 210.868 104.062Z" fill="#30215A"/>
<circle cx="201.087" cy="442.686" r="1.58606" fill="#2A5297"/>
<circle cx="195.272" cy="442.686" r="1.58606" fill="#2A5297"/>
<circle cx="184.699" cy="423.653" r="3.70081" fill="#2A5297"/>
<defs>
<linearGradient id="paint0_linear_17_1986" x1="416.819" y1="237.057" x2="519.848" y2="274.768" gradientUnits="userSpaceOnUse">
<stop stop-color="#398B79"/>
<stop offset="1" stop-color="#2DA58A"/>
</linearGradient>
<linearGradient id="paint1_linear_17_1986" x1="437.721" y1="136.756" x2="437.721" y2="271.298" gradientUnits="userSpaceOnUse">
<stop stop-color="#00A3FE"/>
<stop offset="1" stop-color="#0047FE"/>
</linearGradient>
<linearGradient id="paint2_linear_17_1986" x1="253.159" y1="180.126" x2="224.84" y2="186.731" gradientUnits="userSpaceOnUse">
<stop stop-color="#FFB372"/>
<stop offset="1" stop-color="#FF9D2B"/>
</linearGradient>
<linearGradient id="paint3_linear_17_1986" x1="203.321" y1="175.766" x2="145.104" y2="204.313" gradientUnits="userSpaceOnUse">
<stop stop-color="#FFB372"/>
<stop offset="1" stop-color="#FF9D2B"/>
</linearGradient>
</defs>
</svg>
