<svg width="651" height="519" viewBox="0 0 651 519" fill="none" xmlns="http://www.w3.org/2000/svg">
<path d="M13.4592 499.049L30.2866 408.359L25.1498 405.17L6.72825 499.049H13.4592Z" fill="url(#paint0_linear_16_965)"/>
<path d="M70.6719 500.644L56.5015 425.363L63.0553 427.843L77.7571 500.644H70.6719Z" fill="url(#paint1_linear_16_965)"/>
<path d="M122.925 499.049L135.324 435.991H141.347L129.302 499.049H122.925Z" fill="url(#paint2_linear_16_965)"/>
<path d="M212.706 475.303L196.587 395.417H190.741L206.86 475.303H212.706Z" fill="url(#paint3_linear_16_965)"/>
<path d="M2.28642 325.613C13.442 251.365 42.2945 229.513 58.8543 228.262C132.33 214.504 158.631 281.836 165.728 293.718C172.825 305.601 172.616 336.244 198.5 381.48C224.383 426.716 207.777 386.914 204.855 417.01C-1.87811 496.719 -6.10754 381.48 2.28642 325.613Z" fill="url(#paint4_linear_16_965)"/>
<path d="M38.8253 317.112C43.5016 253.487 68.0507 228.898 82.103 227.835C144.453 216.144 166.771 273.357 172.794 283.454C178.816 293.55 178.639 319.589 200.603 358.026C222.568 396.463 213.002 419.844 199.186 423.387C36.2262 459.876 35.3364 364.583 38.8253 317.112Z" fill="url(#paint5_linear_16_965)"/>
<path d="M144.371 391.61C143.24 391.987 32.417 394.626 90.8441 381.055C137.586 370.199 146.004 383.568 144.371 391.61Z" fill="#D0A85B"/>
<path d="M201.441 480.639L196.54 462.546L213.88 458.399L215.765 481.77C216.519 489.686 218.403 491.571 220.665 497.602C222.514 502.533 226.445 507.528 228.581 509.288L230.089 511.926L215.011 510.418L202.948 498.356C201.566 496.22 199.179 491.42 200.687 489.309C202.195 487.198 201.818 482.65 201.441 480.639Z" fill="#FFB27D"/>
<path d="M203.326 514.942C202.723 508.911 200.561 501.372 199.556 498.356L205.964 502.125L205.587 514.942H203.326Z" fill="#253D68"/>
<path d="M201.44 500.241C196.012 498.13 198.676 491.822 200.686 488.932C200.686 491.043 202.697 494.587 203.702 496.094C205.838 499.11 211.015 505.669 214.634 507.78C218.252 509.891 224.937 508.911 227.827 508.157C228.958 508.911 231.822 510.645 234.235 511.549C236.647 512.454 236.497 513.434 236.12 513.811C232.978 513.811 225.565 513.886 221.042 514.188C216.518 514.49 214.131 512.555 213.503 511.549C211.618 508.785 206.567 502.653 201.44 500.241Z" fill="#355389"/>
<path d="M236.488 476.038L230.501 455.184L251.117 450.246L253.557 477.221C254.522 486.356 256.782 488.517 259.526 495.463C261.77 501.142 266.493 506.877 269.052 508.89L270.869 511.924L252.899 510.313L238.432 496.486C236.768 494.031 233.885 488.508 235.663 486.057C237.441 483.607 236.954 478.357 236.488 476.038Z" fill="#FFB27D"/>
<path d="M238.359 515.695C237.579 508.841 234.782 500.274 233.481 496.848L241.774 501.131L241.286 515.695H238.359Z" fill="#253D68"/>
<path d="M236.039 499.105C229.166 496.713 232.538 489.567 235.084 486.293C235.084 488.685 237.63 492.699 238.902 494.407C241.607 497.824 248.162 505.254 252.744 507.646C257.326 510.037 265.79 508.927 269.449 508.073C270.881 508.927 274.509 510.891 277.563 511.916C280.618 512.941 280.427 514.052 279.95 514.479C275.972 514.479 266.586 514.564 260.858 514.906C255.131 515.247 252.108 513.055 251.312 511.916C248.926 508.785 242.53 501.838 236.039 499.105Z" fill="#355389"/>
<path d="M253.459 450.483L226.695 458.399C220.061 428.846 217.146 399.344 216.518 388.286H209.356L166.007 364.162L133.212 341.545L146.405 318.928C146.782 319.933 147.611 322.697 147.913 325.713C148.516 336.267 159.222 337.901 164.499 337.398C170.907 337.398 195.032 341.545 219.156 348.33C239.088 353.935 245.417 368.811 245.92 376.224L253.459 450.483Z" fill="url(#paint6_linear_16_965)"/>
<path d="M76.6809 357C76.3794 352.175 82.3352 329.859 85.3508 319.305C90.628 321.943 107.968 322.32 122.292 322.697C133.751 322.999 143.401 319.305 146.793 317.42C145.286 348.481 174.688 349.461 190.897 351.722C218.037 357 214.644 391.679 214.644 395.825C214.644 400.726 217.66 438.923 218.037 458.022C212.006 459.404 198.586 462.47 193.158 463.676C189.389 454.629 183.106 410.149 180.719 385.271H109.476C72.5345 387.532 77.0579 363.031 76.6809 357Z" fill="url(#paint7_linear_16_965)"/>
<path d="M213.213 309.881C221.199 314.613 230.402 323.176 203.325 319.575C205.759 313.205 210.931 310.458 213.213 309.881Z" fill="#FFB27D"/>
<path d="M291.943 270.302H242.186L208.26 324.205H258.394C269.2 307.368 291.038 273.468 291.943 272.563C292.848 271.659 292.32 270.679 291.943 270.302Z" fill="#163561"/>
<path d="M156.241 324.205C154.13 322.697 155.361 321.315 156.241 320.813H208.26L241.431 269.925H243.316L208.26 324.205H156.241Z" fill="#0B2346"/>
<path d="M176.939 317.043C169.4 315.535 159.599 316.163 155.076 317.043L157.714 307.996L190.886 298.573L198.802 314.404C194.53 315.661 184.176 317.948 176.939 317.043Z" fill="#FFB27D"/>
<path d="M158.578 235.999C162.348 242.407 170.942 258.616 175.164 272.186C180.441 289.149 192.881 297.819 197.781 298.573C201.701 299.176 210.22 305.861 213.99 309.127L203.812 320.436C193.132 318.677 169.811 312.218 161.971 300.458C156.253 291.88 154.197 289.064 153.698 288.558L153.678 288.772C153.542 288.5 153.513 288.37 153.698 288.558L158.578 235.999Z" fill="url(#paint8_linear_16_965)"/>
<path d="M71.0155 239.015C62.2702 258.013 79.4341 275.453 88.7322 281.61L129.443 217.906L147.913 237.13C149.17 237.381 152.512 236.828 155.829 232.607C159.976 227.329 159.599 225.821 160.353 220.921C161.106 216.021 152.814 199.058 150.175 196.042C148.064 193.63 149.295 185.237 150.175 181.341C150.678 180.713 151.532 178.477 150.929 174.556C150.175 169.656 146.782 159.855 127.558 157.217C108.334 154.578 102.302 165.51 100.795 190.011C93.2556 215.644 81.947 215.267 71.0155 239.015Z" fill="#163561"/>
<path d="M103.433 225.445C107.052 224.842 113.359 218.157 115.495 215.644C113.083 220.771 114.49 226.324 115.872 228.083L134.72 258.239L138.489 235.999L136.228 219.414C137.735 220.544 141.203 223.485 143.013 226.199C147.913 226.199 147.913 228.46 157.337 233.738C165.177 243.086 159.096 274.574 155.075 289.149C151.934 296.562 146.028 311.917 147.536 314.028C149.421 316.666 148.29 320.813 144.144 324.205C140.826 326.919 123.16 327.598 114.742 327.598C107.956 327.095 93.4816 325.939 89.8629 325.336C85.3396 324.582 83.0778 319.682 86.0934 314.028C88.5059 309.504 86.5961 295.557 85.3396 289.149C82.8266 280.982 78.4037 261.255 80.8162 247.685C83.8318 230.722 98.9098 226.199 103.433 225.445Z" fill="url(#paint9_linear_16_965)"/>
<path d="M80.439 265.024C83.8314 286.133 84.8367 285.38 87.2241 291.411C90.2397 297.065 97.4772 310.56 102.302 319.305C106.826 325.713 141.505 321.19 159.975 317.043C161.357 313.022 163.896 304.905 162.991 304.604C161.86 304.227 146.782 298.573 134.343 300.08C124.391 301.287 119.893 295.808 118.888 292.918L104.941 256.731C100.794 243.538 77.0465 243.915 80.439 265.024Z" fill="url(#paint10_linear_16_965)"/>
<path d="M124.165 180.965C132.006 174.933 134.72 168.4 135.097 165.887C135.097 166.641 136.756 168.827 143.39 171.541C150.024 174.255 150.677 179.959 150.175 182.472C150.552 188.127 150.853 200.114 149.044 202.828C145.727 212.779 139.118 214.262 136.228 213.759V219.79L142.259 236.376L134.72 258.616C129.694 250.952 118.888 234.341 115.873 229.214C111.952 225.294 113.736 218.911 114.365 216.775L117.38 200.189C116.124 200.189 113.309 198.531 112.103 191.896C112.103 182.849 118.511 190.011 120.019 190.388C120.773 186.619 122.281 183.603 124.165 180.965Z" fill="#FFB27D"/>
<path d="M637.418 499.049L620.59 408.359L625.727 405.17L644.149 499.049H637.418Z" fill="url(#paint11_linear_16_965)"/>
<path d="M580.205 500.644L594.375 425.363L587.822 427.843L573.12 500.644H580.205Z" fill="url(#paint12_linear_16_965)"/>
<path d="M527.95 499.049L515.551 435.991H509.529L521.574 499.049H527.95Z" fill="url(#paint13_linear_16_965)"/>
<path d="M438.171 475.303L454.29 395.417H460.135L444.016 475.303H438.171Z" fill="url(#paint14_linear_16_965)"/>
<path d="M648.591 325.613C637.436 251.365 608.583 229.513 592.023 228.262C518.548 214.504 492.247 281.836 485.15 293.718C478.053 305.601 478.261 336.244 452.378 381.48C426.494 426.716 443.1 386.914 446.023 417.01C652.756 496.719 656.985 381.48 648.591 325.613Z" fill="url(#paint15_linear_16_965)"/>
<path d="M612.052 317.112C607.376 253.487 582.827 228.898 568.775 227.835C506.425 216.144 484.106 273.357 478.084 283.454C472.062 293.55 472.239 319.589 450.274 358.026C428.31 396.463 437.875 419.844 451.692 423.387C614.652 459.876 615.541 364.583 612.052 317.112Z" fill="url(#paint16_linear_16_965)"/>
<path d="M506.508 391.61C507.638 391.987 618.461 394.626 560.034 381.055C513.293 370.199 504.874 383.568 506.508 391.61Z" fill="#D0A85B"/>
<path d="M421.646 496.07L423.874 471.104V462.537L407.783 458.375L407.288 491.175L421.646 496.07Z" fill="#FFB27D"/>
<path d="M423.872 492.262C414.192 492.462 408.074 488.853 406.226 487.024C406.394 487.855 406.629 490.267 406.226 493.26C404.209 499.497 383.79 498.499 371.437 499.497C359.589 505.983 370.177 511.97 370.177 515.213C370.177 518.456 385.806 520.203 391.604 516.96C396.243 514.365 415.721 514.049 424.88 514.216L425.889 500.744C426.309 498.333 426.494 493.26 423.872 492.262Z" fill="#1C4385"/>
<path d="M386.932 468.176L387.454 487.846L405.983 494.563L407.287 468.656L386.932 468.176Z" fill="#FFB27D"/>
<path d="M365.057 517.037C342.195 517.037 344.348 507.842 349.153 503.121C353.046 501.381 361.677 497.604 365.057 496.411C369.281 494.921 380.214 492.684 382.948 486.969C385.119 482.43 388.122 485.433 390.111 487.422L390.154 487.466C392.639 489.454 395.124 490.696 398.603 491.193C401.005 491.525 406.058 492.088 407.052 491.69C408.294 491.193 410.779 492.933 410.282 501.133C409.885 507.693 409.62 512.315 409.537 513.806C409.537 514.469 407.599 515.695 399.846 515.297C390.154 514.8 370.027 514.303 365.057 517.037Z" fill="#2555A5"/>
<path d="M369.041 498.168C369.206 499.659 370.78 502.989 375.75 504.38" stroke="#4271BE" stroke-linecap="round"/>
<path d="M373.762 496.428C373.928 497.919 375.502 501.249 380.472 502.641" stroke="#4271BE" stroke-linecap="round"/>
<path d="M379.23 494.44C379.395 495.931 380.969 499.261 385.939 500.653" stroke="#4271BE" stroke-linecap="round"/>
<path d="M383.205 491.458C383.37 492.949 384.944 496.279 389.914 497.671" stroke="#4271BE" stroke-linecap="round"/>
<path d="M437.906 410.742C443.088 384.632 475.442 383.709 490.971 386.511C449.316 349.324 415.816 370.192 404.273 385.275C405.186 411.649 407.711 465.683 410.501 470.826C413.291 475.969 421.297 474.122 424.951 472.556C427.11 462.831 432.724 436.853 437.906 410.742Z" fill="url(#paint17_linear_16_965)"/>
<path d="M414.133 341.212C382.786 343.783 377.509 355.845 380.125 366.651C381.118 400.403 383.6 468.605 385.586 471.399C388.068 474.89 399.487 475.389 409.665 471.399C416.119 460.674 414.133 409.797 416.119 389.845C418.105 369.893 463.283 384.607 512.93 387.351C552.648 389.546 562.081 381.116 561.832 376.627L532.044 366.651C505.632 359.867 488.603 345.701 474.702 341.212C468.496 342.708 447.773 338.453 414.133 341.212Z" fill="#1D468A"/>
<path d="M423.72 234.455C423.72 237.409 428.346 245.696 430.659 249.47L428.181 257.839L412.073 244.055C409.347 242.004 402.309 237.409 395.965 235.44C389.621 233.471 393.322 232.486 395.965 232.24C396.13 232.322 395.618 232.043 392.248 230.271C384.913 223.97 395.304 230.107 401.417 233.963L391.504 227.563C383.974 220.807 396.685 229.19 403.492 231.146C399.301 229.909 390.066 224.57 391.504 223.379C403.152 222.148 415.542 232.732 415.79 231.255C416.038 229.779 415.542 227.071 412.568 221.656C410.834 213.779 415.542 217.964 417.277 220.917C419.011 223.871 423.72 230.763 423.72 234.455Z" fill="#FFB27D"/>
<path d="M458.553 288.749C460.698 293.136 464.344 302.596 461.77 305.334C465.73 303.228 466.225 290.855 458.553 288.749Z" fill="#BC8E35"/>
<path d="M503.787 227.663L505.472 198.281L526.404 200.6V228.437L503.787 227.663Z" fill="#FFB27D"/>
<path d="M501.35 220.242C497.491 224.113 488.26 229.385 482.886 232.827L477.138 299.274C476.472 309.935 475.139 333.588 475.139 342.91C481.137 343.158 507.627 361.257 521.621 372.663C532.171 381.26 552.426 380.993 562.813 379.62C563.957 379.468 564.954 378.797 565.488 377.775C567.066 374.755 570.068 368.261 574.101 357.538C583.297 325.803 567.77 275.389 558.857 254.149C557.23 249.51 554.235 241.887 547.425 232.554C544.181 228.109 538.815 225.945 534.118 223.08C532.071 221.831 530.54 220.343 529.532 218.888C528.748 217.756 527.013 217.056 525.665 217.341C520.828 218.366 511.802 218.049 505.954 217.923C504.213 217.886 502.58 219.009 501.35 220.242Z" fill="#F99744"/>
<path d="M485.966 230.293C475.837 232.871 468.504 252.02 466.105 261.272C464.119 263.453 459.815 278.868 457.912 286.303C449.222 273.086 431.894 246.452 432.092 245.659C432.34 244.668 416.452 242.933 417.941 253.59C419.431 264.246 436.313 297.456 443.016 310.839C449.719 324.222 456.67 325.461 466.105 318.522C475.539 311.582 470.822 316.539 493.91 288.038C509.303 246.154 498.627 227.071 485.966 230.293Z" fill="url(#paint18_linear_16_965)"/>
<path d="M516.98 206.197L505.442 208.268C496.184 210.442 489.743 210.404 486.534 204.526C477.671 188.288 489.305 148.992 502.456 153.388H502.955C508.843 163.366 520.569 183.621 520.37 184.819C520.171 186.016 517.892 199.545 516.98 206.197Z" fill="#FFB27D"/>
<path d="M506.894 144.058C490.197 144.849 492.244 154.273 495.354 158.887C501.983 167.043 500.354 177.429 498.439 182.429C498.241 182.945 498.464 183.538 498.969 183.765L499.32 183.922C499.843 184.157 500.447 183.898 500.755 183.414C501.756 181.843 504.211 179.926 510.331 181.871C520.546 186.023 518.843 199.995 516.715 206.339C518.68 206.751 524.229 207.327 530.711 207.327C543.724 192.004 547.162 177.67 545.689 166.301C544.215 154.932 527.764 143.069 506.894 144.058Z" fill="#5F3F3F"/>
<path d="M516.795 206.197C512.875 208.006 507.12 208.458 504.733 208.458V211.851C509.256 211.097 518.002 208.911 516.795 206.197Z" fill="#E79964"/>
<rect x="149.114" y="323.695" width="326" height="4" fill="#C3D5EF"/>
<path fill-rule="evenodd" clip-rule="evenodd" d="M173.975 98C167.348 98 161.975 103.373 161.975 110V132.337C161.975 133.712 162.206 135.033 162.632 136.263L154.559 149.317C153.988 150.241 155.094 151.286 155.984 150.661L167.608 142.51C169.453 143.667 171.636 144.337 173.975 144.337H237.5C244.127 144.337 249.5 138.964 249.5 132.337V110C249.5 103.373 244.127 98 237.5 98H173.975Z" fill="white"/>
<path d="M207.484 128.594H204.578C204.588 127.594 204.677 126.776 204.844 126.141C205.021 125.495 205.307 124.906 205.703 124.375C206.099 123.844 206.625 123.24 207.281 122.562C207.76 122.073 208.198 121.615 208.594 121.188C209 120.75 209.328 120.281 209.578 119.781C209.828 119.271 209.953 118.661 209.953 117.953C209.953 117.234 209.823 116.615 209.562 116.094C209.312 115.573 208.937 115.172 208.437 114.891C207.948 114.609 207.338 114.469 206.609 114.469C206.005 114.469 205.432 114.578 204.891 114.797C204.349 115.016 203.911 115.354 203.578 115.812C203.245 116.26 203.073 116.849 203.062 117.578H200.172C200.193 116.401 200.484 115.391 201.047 114.547C201.62 113.703 202.391 113.057 203.359 112.609C204.328 112.161 205.411 111.938 206.609 111.938C207.932 111.938 209.057 112.177 209.984 112.656C210.922 113.135 211.635 113.823 212.125 114.719C212.615 115.604 212.859 116.656 212.859 117.875C212.859 118.812 212.667 119.677 212.281 120.469C211.906 121.25 211.422 121.984 210.828 122.672C210.234 123.359 209.604 124.016 208.937 124.641C208.365 125.172 207.979 125.771 207.781 126.438C207.583 127.104 207.484 127.823 207.484 128.594ZM204.453 133.547C204.453 133.078 204.599 132.682 204.891 132.359C205.182 132.036 205.604 131.875 206.156 131.875C206.719 131.875 207.146 132.036 207.437 132.359C207.729 132.682 207.875 133.078 207.875 133.547C207.875 133.995 207.729 134.38 207.437 134.703C207.146 135.026 206.719 135.188 206.156 135.188C205.604 135.188 205.182 135.026 204.891 134.703C204.599 134.38 204.453 133.995 204.453 133.547Z" fill="#163561"/>
<path fill-rule="evenodd" clip-rule="evenodd" d="M473.32 78C479.947 78 485.32 83.3726 485.32 90V113.287C485.32 114.601 485.109 115.865 484.719 117.048L492.94 130.343C493.512 131.268 492.406 132.312 491.516 131.688L479.738 123.428C477.882 124.605 475.681 125.287 473.32 125.287H408C401.373 125.287 396 119.915 396 113.287V90C396 83.3726 401.373 78 408 78H473.32Z" fill="white"/>
<circle cx="420" cy="102" r="3" fill="#163561"/>
<circle cx="436" cy="102" r="3" fill="#163561"/>
<circle cx="452" cy="102" r="3" fill="#163561"/>
<circle cx="331.24" cy="35.2405" r="25.5" transform="rotate(19.977 331.24 35.2405)" fill="white" stroke="#6985D5" stroke-width="4"/>
<line x1="341.24" y1="13.5869" x2="338.689" y2="20.6037" stroke="#6985D5" stroke-width="4"/>
<line x1="327.471" y1="51.4633" x2="324.92" y2="58.4801" stroke="#6985D5" stroke-width="4"/>
<line x1="347.463" y1="39.0097" x2="354.48" y2="41.5605" stroke="#6985D5" stroke-width="4"/>
<line x1="309.367" y1="25.1614" x2="316.384" y2="27.7121" stroke="#6985D5" stroke-width="4"/>
<circle cx="331.119" cy="34.9803" r="1.24434" transform="rotate(19.977 331.119 34.9803)" fill="#6985D5"/>
<rect x="323.178" y="19.2463" width="0.746606" height="18.117" rx="0.373303" transform="rotate(-25.1709 323.178 19.2463)" fill="#6985D5"/>
<rect x="331.029" y="35.458" width="0.497738" height="13.7877" rx="0.248869" transform="rotate(2.17874 331.029 35.458)" fill="#6985D5"/>
<defs>
<linearGradient id="paint0_linear_16_965" x1="6.6464" y1="501.579" x2="10.2868" y2="401.655" gradientUnits="userSpaceOnUse">
<stop offset="0.550331" stop-color="#7C8DB7"/>
<stop offset="1" stop-color="#A1ACBB"/>
</linearGradient>
<linearGradient id="paint1_linear_16_965" x1="56.4276" y1="502.672" x2="59.0228" y2="422.522" gradientUnits="userSpaceOnUse">
<stop offset="0.550331" stop-color="#7C8DB7"/>
<stop offset="1" stop-color="#A1ACBB"/>
</linearGradient>
<linearGradient id="paint2_linear_16_965" x1="122.861" y1="500.748" x2="124.963" y2="433.606" gradientUnits="userSpaceOnUse">
<stop offset="0.550331" stop-color="#7C8DB7"/>
<stop offset="1" stop-color="#A1ACBB"/>
</linearGradient>
<linearGradient id="paint3_linear_16_965" x1="190.665" y1="477.456" x2="193.493" y2="392.407" gradientUnits="userSpaceOnUse">
<stop offset="0.550331" stop-color="#7C8DB7"/>
<stop offset="1" stop-color="#A1ACBB"/>
</linearGradient>
<linearGradient id="paint4_linear_16_965" x1="106.395" y1="226.418" x2="106.395" y2="444.233" gradientUnits="userSpaceOnUse">
<stop stop-color="#F7CD7E"/>
<stop offset="1" stop-color="#EEBA59"/>
</linearGradient>
<linearGradient id="paint5_linear_16_965" x1="123.546" y1="226.268" x2="123.546" y2="431.123" gradientUnits="userSpaceOnUse">
<stop stop-color="#FBE0B3"/>
<stop offset="1" stop-color="#FFCB6A"/>
</linearGradient>
<linearGradient id="paint6_linear_16_965" x1="193.335" y1="318.928" x2="193.335" y2="458.399" gradientUnits="userSpaceOnUse">
<stop stop-color="#337F6D"/>
<stop offset="1" stop-color="#267361"/>
</linearGradient>
<linearGradient id="paint7_linear_16_965" x1="147.353" y1="317.42" x2="147.353" y2="463.676" gradientUnits="userSpaceOnUse">
<stop stop-color="#3D8F7D"/>
<stop offset="1" stop-color="#44B09D"/>
</linearGradient>
<linearGradient id="paint8_linear_16_965" x1="164.117" y1="238.835" x2="231.737" y2="287.033" gradientUnits="userSpaceOnUse">
<stop stop-color="#1DAEFF"/>
<stop offset="1" stop-color="#2A66FF"/>
</linearGradient>
<linearGradient id="paint9_linear_16_965" x1="120.629" y1="215.644" x2="120.629" y2="327.598" gradientUnits="userSpaceOnUse">
<stop stop-color="#00A3FE"/>
<stop offset="1" stop-color="#0047FE"/>
</linearGradient>
<linearGradient id="paint10_linear_16_965" x1="94.6137" y1="250.315" x2="157.564" y2="320.051" gradientUnits="userSpaceOnUse">
<stop stop-color="#1DAEFF"/>
<stop offset="1" stop-color="#2A66FF"/>
</linearGradient>
<linearGradient id="paint11_linear_16_965" x1="644.23" y1="501.579" x2="640.59" y2="401.655" gradientUnits="userSpaceOnUse">
<stop offset="0.550331" stop-color="#7C8DB7"/>
<stop offset="1" stop-color="#A1ACBB"/>
</linearGradient>
<linearGradient id="paint12_linear_16_965" x1="594.449" y1="502.672" x2="591.854" y2="422.522" gradientUnits="userSpaceOnUse">
<stop offset="0.550331" stop-color="#7C8DB7"/>
<stop offset="1" stop-color="#A1ACBB"/>
</linearGradient>
<linearGradient id="paint13_linear_16_965" x1="528.014" y1="500.748" x2="525.913" y2="433.606" gradientUnits="userSpaceOnUse">
<stop offset="0.550331" stop-color="#7C8DB7"/>
<stop offset="1" stop-color="#A1ACBB"/>
</linearGradient>
<linearGradient id="paint14_linear_16_965" x1="460.211" y1="477.456" x2="457.383" y2="392.407" gradientUnits="userSpaceOnUse">
<stop offset="0.550331" stop-color="#7C8DB7"/>
<stop offset="1" stop-color="#A1ACBB"/>
</linearGradient>
<linearGradient id="paint15_linear_16_965" x1="544.483" y1="226.418" x2="544.483" y2="444.233" gradientUnits="userSpaceOnUse">
<stop stop-color="#F7CD7E"/>
<stop offset="1" stop-color="#EEBA59"/>
</linearGradient>
<linearGradient id="paint16_linear_16_965" x1="527.332" y1="226.268" x2="527.332" y2="431.123" gradientUnits="userSpaceOnUse">
<stop stop-color="#FBE0B3"/>
<stop offset="1" stop-color="#FFCB6A"/>
</linearGradient>
<linearGradient id="paint17_linear_16_965" x1="447.614" y1="365.704" x2="447.614" y2="474.207" gradientUnits="userSpaceOnUse">
<stop stop-color="#163561"/>
<stop offset="1" stop-color="#113D7B"/>
</linearGradient>
<linearGradient id="paint18_linear_16_965" x1="495.31" y1="238.237" x2="422.559" y2="294.78" gradientUnits="userSpaceOnUse">
<stop stop-color="#FFB372"/>
<stop offset="1" stop-color="#FF9D2B"/>
</linearGradient>
</defs>
</svg>
