<svg width="667" height="603" viewBox="0 0 667 603" fill="none" xmlns="http://www.w3.org/2000/svg">
<path fill-rule="evenodd" clip-rule="evenodd" d="M367.932 549.27C367.932 552.327 367.764 555.321 367.448 558.23C365.529 575.476 358.15 590.297 347.756 599.404H299.456C297.706 597.865 296.041 596.179 294.459 594.324C291.065 590.318 288.114 585.616 285.731 580.388C283.813 576.15 282.274 571.575 281.177 566.726C280.861 565.293 280.566 563.859 280.334 562.404C280.081 560.95 279.891 559.495 279.723 557.998C279.406 555.152 279.259 552.221 279.259 549.249C279.259 544.611 279.659 540.099 280.397 535.756H366.815C367.363 538.982 367.722 542.313 367.869 545.707C367.911 546.888 367.932 548.068 367.932 549.27Z" fill="#F67459"/>
<path fill-rule="evenodd" clip-rule="evenodd" d="M367.932 549.249C367.932 552.306 367.763 555.3 367.447 558.209C365.529 575.455 358.15 590.276 347.756 599.384H299.435C297.685 597.845 296.019 596.158 294.438 594.303C291.044 590.297 288.092 585.596 285.71 580.388C285.499 579.946 285.14 579.461 284.677 578.997C284.845 579.081 285.035 579.165 285.204 579.229C297.158 584.542 312.548 586.924 325.999 582.834C349.084 575.813 351.108 555.469 346.681 535.777H366.794C367.342 539.003 367.7 542.334 367.848 545.728C367.911 546.888 367.932 548.069 367.932 549.249Z" fill="#F67459"/>
<path fill-rule="evenodd" clip-rule="evenodd" d="M365.993 535.777C365.993 535.777 361.65 537.949 351.172 539.635C348.284 540.099 344.932 540.521 341.073 540.858C336.098 541.28 330.3 541.554 323.575 541.554C317.229 541.554 311.684 541.301 306.898 540.921C306.139 540.858 305.423 540.795 304.706 540.732C287.861 539.129 281.135 535.777 281.135 535.777C331.291 533.837 365.993 535.777 365.993 535.777Z" fill="#1B1A60"/>
<path d="M263.046 492.494C292.14 490.47 325.303 512.797 325.303 512.797C325.303 512.797 296.209 496.563 307.025 492.494C317.861 488.425 346.787 495.973 346.787 495.973L351.678 506.704L330.026 529.705L309.723 530.38L263.046 492.494Z" fill="url(#paint0_linear_17_1286)"/>
<path d="M310.42 533.079C310.42 535.777 274.558 558.125 254.255 553.381C251.789 552.791 250.587 550.915 250.418 548.279C249.849 539.53 260.538 522.664 272.513 519.544C279.47 517.731 287.798 519.712 294.861 522.685C303.61 526.375 310.42 531.603 310.42 533.079Z" fill="url(#paint1_linear_17_1286)"/>
<path opacity="0.5" d="M265.07 518.194C284.023 513.451 312.907 537.379 312.907 537.379L315.141 533.078L279.954 512.776L265.07 518.194Z" fill="url(#paint2_linear_17_1286)"/>
<path d="M405.144 522.938C405.144 526.185 364.855 540.563 345.374 532.889C344.51 532.552 343.667 532.151 342.887 531.729C324.608 521.589 343.561 507.379 343.561 507.379H353.702C367.195 506.304 377.294 507.126 384.799 508.876C401.054 512.628 405.144 520.64 405.144 522.938Z" fill="url(#paint3_linear_17_1286)"/>
<path d="M297.011 492.516C312.591 479.887 346.787 495.952 346.787 495.952C346.787 495.952 309.281 503.774 302.682 498.841C296.105 493.907 297.011 492.516 297.011 492.516Z" fill="url(#paint4_linear_17_1286)"/>
<path opacity="0.4" d="M277.552 513.936C277.826 515.411 276.856 516.971 274.979 518.532L277.552 513.936Z" fill="url(#paint5_linear_17_1286)"/>
<path opacity="0.4" d="M273.462 508.834C272.45 508.496 271.122 507.99 269.393 507.316C268.76 507.063 268.128 506.852 267.495 506.662C269.709 507.189 271.775 507.885 273.462 508.834Z" fill="url(#paint6_linear_17_1286)"/>
<path d="M389.775 536.62C389.838 539.087 388.911 540.921 387.351 542.207C381.194 547.309 365.277 543.936 361.883 538.37C359.69 534.765 359.036 532.109 359.184 530.19C359.458 526.142 363.148 525.236 363.148 525.236C363.148 525.236 362.093 521.862 364.455 518.763C364.666 518.468 364.919 518.194 365.193 517.92C366.689 516.423 371.897 517.625 377.125 520.555C383.345 524.034 389.627 529.937 389.775 536.62Z" fill="url(#paint7_linear_17_1286)"/>
<path opacity="0.5" d="M383.619 534.512C382.628 533.395 362.621 522.474 359.163 530.169C359.437 526.121 363.127 525.215 363.127 525.215C363.127 525.215 362.073 521.841 364.434 518.742C363.654 525.172 379.951 530.295 383.619 534.512Z" fill="url(#paint8_linear_17_1286)"/>
<path opacity="0.4" d="M384.715 534.997C384.568 534.934 384.273 534.807 383.809 534.596C384.273 534.807 384.589 534.934 384.715 534.997Z" fill="url(#paint9_linear_17_1286)"/>
<path opacity="0.5" d="M388.764 536.009C388.806 538.349 387.941 540.078 386.466 541.301C387.731 536.873 387.562 529.22 376.81 520.851C382.692 524.139 388.637 529.726 388.764 536.009Z" fill="url(#paint10_linear_17_1286)"/>
<path d="M345.606 492.495C340.188 491.82 337.489 496.563 333.42 493.169C333.42 493.169 328.002 489.796 325.303 485.052C324.987 484.525 324.818 484.04 324.755 483.598C324.228 480.161 330.047 479.212 331.354 475.713C331.375 475.671 331.396 475.628 331.396 475.586C332.345 472.761 337.911 470.906 344.193 472.593C344.973 477.42 344.488 480.077 344.046 481.363L347.588 473.857C349.211 474.616 350.813 475.628 352.373 476.957C361.165 484.357 351.024 493.169 345.606 492.495Z" fill="url(#paint11_linear_17_1286)"/>
<path opacity="0.5" d="M343.561 484.356C343.476 484.272 343.245 484.04 342.865 483.703C343.308 483.998 343.519 484.272 343.561 484.356Z" fill="url(#paint12_linear_17_1286)"/>
<path d="M339.344 486.043C340.483 486.992 341.263 485.663 342.781 485.853C344.32 486.043 347.187 483.555 344.699 481.447C342.212 479.339 339.155 479.908 338.775 481.067C338.396 482.206 336.288 482.396 337.046 483.745C337.827 485.094 339.344 486.043 339.344 486.043Z" fill="#FFF764"/>
<path d="M344.025 481.363C343.814 482.016 343.582 482.29 343.561 482.333L344.025 481.363Z" fill="#FFF764"/>
<path opacity="0.4" d="M384.82 508.876C357.265 518.257 348.157 528.504 345.374 532.91C344.51 532.572 343.667 532.172 342.887 531.75C324.608 521.61 343.561 507.4 343.561 507.4H353.702C367.216 506.303 377.315 507.126 384.82 508.876Z" fill="url(#paint13_linear_17_1286)"/>
<path opacity="0.4" d="M350.835 498.735C351.446 498.292 352.205 497.702 353.133 496.964C353.449 496.711 353.786 496.458 354.145 496.247C352.796 496.985 351.615 497.828 350.835 498.735Z" fill="url(#paint14_linear_17_1286)"/>
<path d="M339.998 513.155C363.021 515.032 397.765 502.15 393.253 499.283C389.395 496.816 368.144 489.058 361.018 491.693C359.415 492.283 358.108 493.338 357.244 495.13C357.244 495.13 352.964 496.099 348.073 497.807C345.838 498.587 343.414 499.557 341.158 500.674C339.029 501.728 337.047 502.93 335.55 504.258C333.442 506.114 332.282 508.18 333.02 510.351C333.02 510.351 333.02 510.351 333.02 510.372C333.568 511.932 336.098 512.818 339.998 513.155Z" fill="url(#paint15_linear_17_1286)"/>
<path opacity="0.4" d="M384.63 498.334C384.419 498.292 384.103 498.229 383.702 498.166C384.103 498.25 384.419 498.292 384.63 498.334Z" fill="url(#paint16_linear_17_1286)"/>
<path opacity="0.5" d="M348.073 497.807C360.196 494.35 378.516 497.259 383.597 498.145C378.432 497.175 360.406 493.654 360.997 491.672C359.394 492.263 358.087 493.317 357.223 495.109C357.223 495.13 352.943 496.079 348.073 497.807Z" fill="url(#paint17_linear_17_1286)"/>
<path d="M339.641 513.577C336.12 513.134 334.37 516.212 331.735 514.02C331.735 514.02 328.214 511.827 326.464 508.749C326.253 508.412 326.148 508.074 326.105 507.8C325.768 505.566 329.542 504.954 330.385 502.677C330.385 502.656 330.406 502.614 330.406 502.593C331.018 500.759 334.644 499.557 338.713 500.653C339.219 503.795 338.903 505.523 338.608 506.346L340.906 501.476C341.96 501.96 343.014 502.635 344.026 503.478C349.76 508.306 343.161 514.02 339.641 513.577Z" fill="url(#paint18_linear_17_1286)"/>
<path opacity="0.5" d="M338.312 508.285C338.27 508.243 338.101 508.074 337.869 507.863C338.143 508.074 338.27 508.243 338.312 508.285Z" fill="url(#paint19_linear_17_1286)"/>
<path d="M335.572 509.403C336.31 510.014 336.816 509.15 337.806 509.276C338.797 509.403 340.674 507.779 339.05 506.409C337.427 505.039 335.445 505.418 335.192 506.156C334.939 506.894 333.569 507.02 334.075 507.885C334.581 508.77 335.572 509.403 335.572 509.403Z" fill="#FFF764"/>
<path d="M338.629 506.345C338.481 506.767 338.355 506.957 338.334 506.978L338.629 506.345Z" fill="#FFF764"/>
<path d="M347.756 563.332C343.182 564.956 338.311 564.85 333.462 563.564C314.34 558.462 295.956 534.892 301.143 526.838C304.516 521.631 308.501 519.101 312.338 518.089C320.37 515.938 327.812 520.345 327.812 520.345C327.812 520.345 332.514 516.803 341.98 518.047C342.844 518.152 343.772 518.321 344.721 518.511C349.886 519.607 355.662 527.365 358.277 536.241C361.439 546.804 360.069 558.947 347.756 563.332Z" fill="url(#paint20_linear_17_1286)"/>
<path opacity="0.5" d="M342.149 553.74C342.739 551.716 332.177 517.899 312.359 518.068C320.391 515.917 327.833 520.324 327.833 520.324C327.833 520.324 332.535 516.782 342.001 518.026C328.761 520.956 344.383 546.129 342.149 553.74Z" fill="url(#paint21_linear_17_1286)"/>
<path opacity="0.4" d="M342.95 555.51C342.845 555.3 342.613 554.794 342.297 554.056C342.634 554.794 342.866 555.3 342.95 555.51Z" fill="url(#paint22_linear_17_1286)"/>
<path opacity="0.5" d="M347.335 561.604C343.013 563.143 338.417 563.037 333.842 561.815C344.13 560.76 358.256 555.722 357.307 535.988C360.258 546.003 358.951 557.472 347.335 561.604Z" fill="url(#paint23_linear_17_1286)"/>
<path d="M290.243 519.206C278.521 528.925 231.486 538.876 229.357 533.542C227.269 528.314 234.29 499.873 251.915 501.834C255.162 502.192 258.767 503.584 262.751 506.325C262.751 506.325 268.402 505.819 274.832 506.24C277.467 506.409 280.208 506.746 282.759 507.315C284.994 507.821 287.039 508.517 288.725 509.466C290.876 510.689 292.415 512.333 292.836 514.547C292.836 514.547 292.836 514.547 292.836 514.568C293.089 516.107 292.141 517.646 290.243 519.206Z" fill="url(#paint24_linear_17_1286)"/>
<path opacity="0.4" d="M237.958 526.711C238.106 526.522 238.359 526.247 238.696 525.91C238.38 526.269 238.127 526.522 237.958 526.711Z" fill="url(#paint25_linear_17_1286)"/>
<path opacity="0.5" d="M274.811 506.282C258.24 506.556 242.892 521.504 238.78 525.826C242.828 521.356 256.701 505.418 251.915 501.855C255.162 502.213 258.767 503.605 262.751 506.346C262.73 506.346 268.402 505.861 274.811 506.282Z" fill="url(#paint26_linear_17_1286)"/>
<rect x="124.638" y="58.9565" width="435.686" height="297.465" rx="16" fill="white"/>
<mask id="mask0_17_1286" style="mask-type:alpha" maskUnits="userSpaceOnUse" x="124" y="58" width="437" height="299">
<rect x="124.638" y="58.9565" width="435.686" height="297.465" rx="16" fill="white"/>
</mask>
<g mask="url(#mask0_17_1286)">
<circle cx="579.769" cy="53.701" r="133.988" stroke="black" stroke-opacity="0.02" stroke-width="40"/>
<circle cx="105.718" cy="372.713" r="133.988" stroke="black" stroke-opacity="0.02" stroke-width="40"/>
</g>
<rect x="319.335" y="200.554" width="198.782" height="122.537" rx="8" fill="#E6F4F1"/>
<rect opacity="0.54" x="341.119" y="265.907" width="10.8921" height="39.484" rx="2" fill="url(#paint27_linear_17_1286)"/>
<rect opacity="0.54" x="451.402" y="241.4" width="10.8921" height="63.9913" rx="2" fill="url(#paint28_linear_17_1286)"/>
<rect opacity="0.54" x="377.88" y="249.569" width="10.8921" height="55.8222" rx="2" fill="url(#paint29_linear_17_1286)"/>
<rect opacity="0.54" x="488.163" y="265.907" width="10.8921" height="39.484" rx="2" fill="url(#paint30_linear_17_1286)"/>
<rect opacity="0.54" x="414.641" y="249.569" width="10.8921" height="55.8222" rx="2" fill="url(#paint31_linear_17_1286)"/>
<rect x="331.588" y="214.169" width="21.7843" height="5.44607" rx="1" fill="#D9E4F3"/>
<rect x="369.711" y="214.169" width="21.7843" height="5.44607" rx="1" fill="#D9E4F3"/>
<rect x="407.833" y="214.169" width="21.7843" height="5.44607" rx="1" fill="#D9E4F3"/>
<rect x="445.956" y="214.169" width="21.7843" height="5.44607" rx="1" fill="#D9E4F3"/>
<rect x="484.078" y="214.169" width="21.7843" height="5.44607" rx="1" fill="#D9E4F3"/>
<rect x="347.203" y="114.324" width="164.744" height="87.1372" rx="8" transform="rotate(-9.71309 347.203 114.324)" fill="#E6F4F1"/>
<path d="M381.309 184.459C381.309 184.459 394.157 144.433 408.542 141.811C423.137 139.151 427.713 159.569 442.527 158.786C465.624 157.565 484.371 104.658 484.371 104.658" stroke="#6C95FF" stroke-width="3" stroke-linecap="round"/>
<g filter="url(#filter0_d_17_1286)">
<circle cx="406.529" cy="142.155" r="5.44607" transform="rotate(-9.71309 406.529 142.155)" fill="white"/>
</g>
<g filter="url(#filter1_d_17_1286)">
<circle cx="478.731" cy="120.128" r="5.44607" transform="rotate(-9.71309 478.731 120.128)" fill="white"/>
</g>
<path d="M551.904 73.6369L516.466 78.9277C520.455 100.011 535.317 107.064 542.25 107.955L551.904 73.6369Z" fill="#E4C6C7"/>
<path d="M550.868 66.5495L515.038 66.7353C515.982 88.172 529.687 97.271 536.422 99.1409L550.868 66.5495Z" fill="#F27559"/>
<mask id="mask1_17_1286" style="mask-type:alpha" maskUnits="userSpaceOnUse" x="515" y="66" width="36" height="34">
<path d="M550.868 66.5495L515.038 66.7353C515.982 88.172 529.687 97.271 536.421 99.1409L550.868 66.5495Z" fill="#F27559"/>
</mask>
<g mask="url(#mask1_17_1286)">
<path d="M543.659 76.2449C543.892 73.6531 537.073 68.9038 533.635 66.8532C485.588 58.7666 506.186 78.9874 522.491 90.1086C524.335 90.5441 529.845 91.6699 537.131 92.6882C546.237 93.9611 546.35 86.5891 541.781 85.091C537.213 83.5929 536.248 83.7842 523.476 81.7334C510.113 80.4813 512.28 72.8852 515.034 69.2437C514.922 68.7356 516.033 67.8974 521.376 68.609C530.52 70.9465 535.341 76.8563 538.512 78.718C541.682 80.5797 543.367 79.4847 543.659 76.2449Z" stroke="white" stroke-width="3" stroke-linecap="round"/>
</g>
<path opacity="0.24" d="M558.707 37.7268C554.337 37.0775 551.226 32.9295 553.023 28.8936C554.32 25.982 556.089 23.284 558.273 20.9145C562.278 16.5704 567.497 13.5311 573.251 12.1915C579.006 10.8519 585.031 11.274 590.542 13.4028C596.054 15.5317 600.798 19.269 604.158 24.1291C607.518 28.9892 609.339 34.7476 609.384 40.6559C609.429 46.5643 607.695 52.3495 604.41 57.2601C601.124 62.1707 596.437 65.9796 590.958 68.1919C587.97 69.3986 584.821 70.0998 581.639 70.2849C577.228 70.5413 574.447 66.1652 575.383 61.8473L576.323 57.5131C577.068 54.0779 580.66 52.0761 583.919 50.76V50.76C585.901 49.9597 587.597 48.5818 588.785 46.8053C589.974 45.0289 590.601 42.936 590.585 40.7986C590.569 38.6612 589.91 36.5781 588.694 34.8199C587.479 33.0617 585.763 31.7097 583.769 30.9396C581.775 30.1694 579.595 30.0168 577.514 30.5014C575.432 30.986 573.544 32.0855 572.095 33.657V33.657C569.713 36.2414 566.571 38.895 563.094 38.3785L558.707 37.7268Z" fill="url(#paint32_linear_17_1286)"/>
<rect x="164.122" y="99.802" width="171.551" height="87.1372" rx="8" fill="#E6F4F1"/>
<path d="M218.582 144.051C221.759 144.732 228.249 147.319 228.794 152.221C229.475 158.347 243.09 163.113 244.451 147.455C245.813 131.798 256.004 113.353 262.151 133.159C268.278 152.901 269.639 150.859 275.085 145.413C277.808 142.69 284.208 139.286 288.02 147.455C293.466 153.991 294.827 155.851 296.87 156.986" stroke="#6C95FF" stroke-width="3" stroke-linecap="round"/>
<g filter="url(#filter2_d_17_1286)">
<circle cx="300.274" cy="158.347" r="4.08455" fill="#E9EAFF"/>
</g>
<rect x="196.798" y="117.502" width="13.6152" height="4.08455" rx="1.5" fill="#D5DEFF"/>
<rect x="196.798" y="129.756" width="13.6152" height="4.08455" rx="1.5" fill="#D5DEFF"/>
<rect x="196.798" y="142.009" width="13.6152" height="4.08455" rx="1.5" fill="#D5DEFF"/>
<rect x="196.798" y="154.263" width="13.6152" height="4.08455" rx="1.5" fill="#D5DEFF"/>
<rect x="196.798" y="166.517" width="13.6152" height="4.08455" rx="1.5" fill="#D5DEFF"/>
<path d="M130.159 256.545C128.875 257.327 129.097 258.364 129.368 258.785C129.764 259.516 130.752 261.055 131.528 261.359C131.576 261.377 131.624 261.394 131.671 261.409C132.853 261.787 134.19 261.931 135.233 262.602C135.996 263.094 136.768 262.731 137.058 262.488C137.699 262.038 139.22 261.006 140.176 260.48C140.995 260.029 141.228 259.223 141.253 258.726C141.26 258.578 141.243 258.485 141.2 258.344C140.914 257.428 141.357 256.369 141.553 255.43C141.708 254.69 141.488 253.934 141.276 253.517L140.183 251.82C139.593 250.904 138.491 251.216 138.013 251.486C135.93 252.846 131.442 255.763 130.159 256.545Z" fill="url(#paint33_linear_17_1286)"/>
<path d="M118.413 249.926C122.008 250.514 124.597 252.476 125.443 253.384C126.983 255.429 128.553 255.178 129.145 254.797C131.267 253.467 135.603 250.726 135.973 250.399C136.435 249.989 138.269 249.367 137.29 246.982C136.312 244.596 136.789 244.903 136.365 243.724C136.026 242.781 136.501 239.021 136.78 237.258C136.898 236.661 136.872 234.765 135.822 231.956C133.16 226.522 130.832 224.727 125.789 223.228C120.747 221.729 114.064 224.358 111.134 229.26C108.205 234.163 108.691 238.819 109.856 241.755C111.02 244.691 113.952 248.722 118.413 249.926Z" fill="url(#paint34_linear_17_1286)"/>
<path d="M129.721 228.514L128.181 229.505L129.517 230.712L130.426 229.176L129.721 228.514Z" fill="white"/>
<path d="M127.372 227.232L126.325 228.734L128.018 229.342L128.276 227.576L127.372 227.232Z" fill="white"/>
<path d="M124.652 226.997L124.189 228.768L125.988 228.754L125.62 227.008L124.652 226.997Z" fill="white"/>
<path d="M121.963 228.027L122.494 229.779L124.02 228.826L122.793 227.53L121.963 228.027Z" fill="white"/>
<path d="M119.915 229.913L120.986 231.397L122.12 230L120.538 229.173L119.915 229.913Z" fill="white"/>
<path d="M118.792 232.492L120.402 233.364L120.816 231.613L119.032 231.555L118.792 232.492Z" fill="white"/>
<path d="M119.014 235.296L120.843 235.389L120.463 233.63L118.828 234.346L119.014 235.296Z" fill="white"/>
<path d="M120.024 237.851L121.815 237.471L120.996 235.869L119.6 236.981L120.024 237.851Z" fill="white"/>
<path d="M122.347 239.725L123.78 238.584L122.331 237.518L121.579 239.136L122.347 239.725Z" fill="white"/>
<path d="M125.179 240.276L125.762 238.541L123.966 238.433L124.215 240.2L125.179 240.276Z" fill="white"/>
<path d="M127.923 239.921L127.871 238.09L126.148 238.608L126.991 240.182L127.923 239.921Z" fill="white"/>
<path d="M130.189 238.316L129.429 236.65L128.043 237.798L129.432 238.919L130.189 238.316Z" fill="white"/>
<path d="M131.79 236.031L130.411 234.827L129.621 236.444L131.349 236.893L131.79 236.031Z" fill="white"/>
<path d="M132.148 233.336L130.395 232.806L130.342 234.605L132.101 234.302L132.148 233.336Z" fill="white"/>
<path d="M131.565 230.62L129.754 230.894L130.478 232.541L131.937 231.513L131.565 230.62Z" fill="white"/>
<path fill-rule="evenodd" clip-rule="evenodd" d="M128.446 238.326C131.018 236.67 131.76 233.241 130.103 230.669C128.447 228.097 125.018 227.354 122.446 229.011C119.874 230.668 119.132 234.096 120.788 236.668C122.445 239.241 125.873 239.983 128.446 238.326ZM126.971 236.037C128.279 235.194 128.657 233.451 127.814 232.143C126.972 230.835 125.229 230.458 123.921 231.3C122.613 232.143 122.235 233.886 123.078 235.194C123.92 236.502 125.663 236.879 126.971 236.037Z" fill="white"/>
<path d="M124.781 240.283L124.079 241.276L125.201 241.688L125.381 240.516L124.781 240.283Z" fill="white"/>
<path d="M123.015 240.076L122.743 241.262L123.938 241.216L123.658 240.064L123.015 240.076Z" fill="white"/>
<path d="M121.281 240.607L121.435 241.813L122.541 241.358L121.88 240.373L121.281 240.607Z" fill="white"/>
<path d="M119.88 241.909L120.643 242.857L121.346 241.891L120.268 241.397L119.88 241.909Z" fill="white"/>
<path d="M119.086 243.58L120.115 244.229L120.467 243.086L119.287 242.969L119.086 243.58Z" fill="white"/>
<path d="M119.035 245.449L120.243 245.586L120.064 244.404L118.95 244.811L119.035 245.449Z" fill="white"/>
<path d="M119.868 247.121L121.018 246.724L120.347 245.735L119.517 246.582L119.868 247.121Z" fill="white"/>
<path d="M121.125 248.445L122.134 247.766L121.231 246.982L120.647 248.014L121.125 248.445Z" fill="white"/>
<path d="M123.022 249.022L123.622 247.964L122.464 247.666L122.402 248.85L123.022 249.022Z" fill="white"/>
<path d="M124.904 248.659L124.832 247.444L123.698 247.824L124.291 248.851L124.904 248.659Z" fill="white"/>
<path d="M126.506 247.758L126.02 246.643L125.087 247.391L125.997 248.151L126.506 247.758Z" fill="white"/>
<path d="M127.504 246.207L126.622 245.369L126.053 246.42L127.187 246.766L127.504 246.207Z" fill="white"/>
<path d="M127.923 244.401L126.774 244.001L126.69 245.194L127.865 245.042L127.923 244.401Z" fill="white"/>
<path d="M127.474 242.652L126.263 242.76L126.677 243.882L127.686 243.259L127.474 242.652Z" fill="white"/>
<path d="M126.44 241.123L125.393 241.741L126.248 242.576L126.892 241.58L126.44 241.123Z" fill="white"/>
<path fill-rule="evenodd" clip-rule="evenodd" d="M126.432 246.646C127.606 244.986 127.212 242.689 125.552 241.515C123.892 240.342 121.595 240.736 120.422 242.395C119.248 244.055 119.642 246.352 121.302 247.526C122.961 248.699 125.258 248.305 126.432 246.646ZM124.955 245.601C125.552 244.757 125.351 243.589 124.507 242.993C123.664 242.396 122.496 242.596 121.899 243.44C121.302 244.284 121.502 245.452 122.346 246.049C123.19 246.646 124.358 246.445 124.955 245.601Z" fill="white"/>
<path d="M117.677 235.945L117.138 236.706L117.998 237.021L118.136 236.123L117.677 235.945Z" fill="white"/>
<path d="M116.324 235.786L116.115 236.695L117.031 236.66L116.816 235.777L116.324 235.786Z" fill="white"/>
<path d="M114.995 236.193L115.113 237.117L115.96 236.768L115.454 236.014L114.995 236.193Z" fill="white"/>
<path d="M113.921 237.191L114.505 237.917L115.045 237.177L114.219 236.798L113.921 237.191Z" fill="white"/>
<path d="M113.313 238.471L114.102 238.968L114.371 238.092L113.467 238.003L113.313 238.471Z" fill="white"/>
<path d="M113.274 239.903L114.2 240.008L114.062 239.102L113.209 239.414L113.274 239.903Z" fill="white"/>
<path d="M113.912 241.184L114.793 240.88L114.279 240.122L113.643 240.771L113.912 241.184Z" fill="white"/>
<path d="M114.875 242.198L115.649 241.678L114.957 241.078L114.509 241.868L114.875 242.198Z" fill="white"/>
<path d="M116.329 242.641L116.788 241.83L115.901 241.602L115.854 242.509L116.329 242.641Z" fill="white"/>
<path d="M117.771 242.362L117.715 241.432L116.847 241.723L117.301 242.51L117.771 242.362Z" fill="white"/>
<path d="M118.998 241.672L118.626 240.818L117.911 241.391L118.608 241.973L118.998 241.672Z" fill="white"/>
<path d="M119.763 240.484L119.087 239.842L118.651 240.647L119.52 240.912L119.763 240.484Z" fill="white"/>
<path d="M120.084 239.1L119.204 238.794L119.139 239.707L120.04 239.591L120.084 239.1Z" fill="white"/>
<path d="M119.74 237.76L118.812 237.843L119.129 238.702L119.902 238.225L119.74 237.76Z" fill="white"/>
<path d="M118.948 236.588L118.145 237.062L118.801 237.702L119.294 236.939L118.948 236.588Z" fill="white"/>
<path fill-rule="evenodd" clip-rule="evenodd" d="M118.942 240.82C119.841 239.548 119.539 237.789 118.267 236.889C116.996 235.99 115.236 236.292 114.337 237.564C113.437 238.835 113.739 240.595 115.011 241.494C116.283 242.393 118.042 242.092 118.942 240.82ZM117.81 240.02C118.267 239.373 118.114 238.478 117.467 238.021C116.82 237.564 115.926 237.717 115.468 238.364C115.011 239.01 115.165 239.905 115.811 240.363C116.458 240.82 117.353 240.666 117.81 240.02Z" fill="white"/>
<path d="M120.908 215.195C120.775 211.894 123.156 205.933 125.763 200.962" stroke="#FFC2A4" stroke-width="2" stroke-linecap="round"/>
<path d="M96.258 261.293C98.316 258.708 104.014 255.754 109.238 253.697" stroke="#FFC2A4" stroke-width="2" stroke-linecap="round"/>
<path d="M106.143 221.029C103.162 219.604 99.0051 214.714 95.8287 210.085" stroke="#FFC2A4" stroke-width="2" stroke-linecap="round"/>
<path d="M143.722 241.765C146.915 240.913 153.252 241.93 158.673 243.386" stroke="#FFC2A4" stroke-width="2" stroke-linecap="round"/>
<path d="M99.9781 231.649C96.6937 232.009 90.5835 230.044 85.4445 227.785" stroke="#FFC2A4" stroke-width="2" stroke-linecap="round"/>
<path d="M145.223 230.679C147.666 228.455 153.762 226.446 159.246 225.247" stroke="#FFC2A4" stroke-width="2" stroke-linecap="round"/>
<path d="M101.502 244.103C98.5295 245.546 92.1145 245.749 86.5151 245.349" stroke="#FFC2A4" stroke-width="2" stroke-linecap="round"/>
<path d="M135.808 220.365C137.176 217.357 141.986 213.107 146.553 209.843" stroke="#FFC2A4" stroke-width="2" stroke-linecap="round"/>
<path d="M102.014 111.37C100.663 109.059 102.251 106.881 103.214 106.08C108.653 100.741 120.11 89.4018 122.421 86.7608C124.732 84.1199 126.86 84.385 127.635 84.8477C128.811 83.5972 131.169 81.1413 131.199 81.3214C131.229 81.5015 132.787 82.997 133.562 83.7223C132.912 84.41 131.319 86.0556 130.149 87.136C130.809 89.5668 129.448 91.2499 128.686 91.7876C122.758 97.7898 110.477 110.169 108.766 111.67C107.19 113.808 103.702 114.258 102.014 111.37Z" fill="#23649A"/>
<path d="M140.69 55.1368C143.828 54.1114 151.644 53.4112 157.796 58.8131C155.32 55.9996 150.031 50.7477 140.69 55.1368Z" fill="#23649A"/>
<path d="M138.573 80.4513C141.217 81.7567 148.072 83.6873 154.34 80.9661C151.724 82.5168 146.245 85.2891 138.573 80.4513Z" fill="#23649A"/>
<circle cx="147.067" cy="67.6666" r="17.9185" stroke="#23649A" stroke-width="2"/>
<rect x="333.779" y="50.5137" width="10.7216" height="8.56383" transform="rotate(56.3598 333.779 50.5137)" fill="#30215A"/>
<rect x="358.158" y="346.237" width="16.3247" height="14.4049" rx="2" transform="rotate(42.8614 358.158 346.237)" fill="#30215A"/>
<rect x="119.667" y="302.15" width="13.7312" height="10.9677" rx="2" transform="rotate(15.0588 119.667 302.15)" fill="#30215A"/>
<path d="M572.011 240.444C561.929 244.33 553.461 239.278 550.487 236.266C555.519 246.439 548.201 255.24 547.291 257.03C555.214 253.848 564.377 258.644 567.969 261.44C564.141 248.766 568.756 245.679 572.011 240.444Z" fill="#F27559"/>
<path d="M134.825 144.05C126.24 147.36 119.029 143.058 116.497 140.493C120.782 149.156 114.55 156.65 113.776 158.174C120.521 155.464 128.324 159.548 131.383 161.929C128.123 151.136 132.053 148.508 134.825 144.05Z" fill="#F27559"/>
<rect x="164.122" y="200.554" width="136.152" height="122.537" rx="8" fill="#E6F4F1"/>
<path d="M164.122 208.554C164.122 204.136 167.703 200.554 172.122 200.554H292.274C296.692 200.554 300.274 204.136 300.274 208.554V218.602H164.122V208.554Z" fill="#D6E4FF"/>
<ellipse cx="171.164" cy="209.578" rx="2.34745" ry="2.37474" fill="white"/>
<ellipse cx="177.737" cy="209.578" rx="2.34745" ry="2.37474" fill="white"/>
<ellipse cx="184.31" cy="209.578" rx="2.34745" ry="2.37474" fill="white"/>
<path d="M261.926 266.895C260.373 273.669 256.605 279.715 251.232 284.053C245.859 288.391 239.195 290.766 232.321 290.794C225.447 290.822 218.765 288.502 213.357 284.208C207.949 279.915 204.133 273.9 202.526 267.138L232.198 259.923L261.926 266.895Z" fill="#F27559"/>
<path d="M233.137 227.151C237.648 227.151 242.103 228.163 246.181 230.114C250.26 232.065 253.86 234.906 256.722 238.433C259.585 241.961 261.639 246.086 262.737 250.513C263.834 254.939 263.948 259.557 263.069 264.033L233.137 258.023L233.137 227.151Z" fill="#51C0A6"/>
<path d="M202.114 263.207C201.377 258.827 201.582 254.337 202.717 250.045C203.852 245.753 205.89 241.759 208.691 238.337C211.491 234.914 214.99 232.143 218.946 230.214C222.902 228.285 227.224 227.242 231.615 227.157L232.198 258.023L202.114 263.207Z" fill="#86B2F3"/>
<rect x="192.291" y="296.494" width="79.8131" height="3.79959" fill="#CED5E7"/>
<rect x="207.315" y="305.043" width="49.7658" height="3.79959" fill="#CED5E7"/>
<path d="M544.834 601.343L595.059 602.071L592.148 586.057H565.943C549.638 588.386 545.076 597.218 544.834 601.343Z" fill="#1D468A"/>
<path d="M611.801 601.342L655.476 602.07L652.565 586.784C647.712 587.027 635.24 587.367 624.176 586.784C613.111 589.113 611.316 597.46 611.801 601.342Z" fill="#1D468A"/>
<path d="M586.741 248.265L582.315 221.713L609.888 220.692L610.909 248.265H586.741Z" fill="#F7B39D"/>
<path d="M640.19 250.488C604.086 216.131 549.929 250.489 549.929 259.95L561.576 341.477L562.304 374.961L643.102 376.417L648.925 283.244C647.469 256.311 648.197 260.679 640.19 250.488Z" fill="#F99744"/>
<path d="M643.101 376.418L562.303 374.962L565.943 586.057H592.148L603.066 420.093L624.904 586.785L638.5 587.95L652.564 586.785L643.101 376.418Z" fill="#1D468A"/>
<path d="M662.755 307.994C655.767 272.472 645.285 255.827 640.918 251.945L638.734 398.255L648.925 404.079L662.755 351.669C663.483 348.272 665.084 341.042 665.667 339.295C666.249 337.548 666.395 334.684 666.395 333.471V331.287C666.395 330.802 665.667 325.464 662.755 307.994Z" fill="#ED7D31"/>
<path d="M648.196 402.623L643.101 400.439L641.645 413.541C642.616 416.938 644.993 421.985 646.74 414.997C647.468 408.446 646.74 410.63 646.74 407.718C646.74 403.351 647.711 403.351 648.196 402.623Z" fill="#F7B39D"/>
<path d="M506.253 357.492C502.614 360.161 494.898 365.936 493.151 367.683C490.967 369.867 485.872 372.051 485.144 372.051C484.416 372.051 477.137 374.962 485.144 369.139C486.89 367.974 487.812 367.198 488.054 366.955C485.87 368.168 481.066 370.74 479.319 371.323C477.135 372.051 471.312 372.778 477.863 368.411C480.686 366.53 482.228 365.549 483.012 365.082C479.676 366.604 473.857 369.139 472.77 369.139C471.315 369.139 464.763 371.323 472.042 366.227L477.863 362.588L469.858 364.043C466.947 364.286 462.87 364.043 469.858 361.132C476.846 358.22 479.564 356.522 480.049 356.036L482.961 353.853C483.446 353.61 483.98 352.834 482.233 351.669C480.049 350.213 476.41 348.029 480.777 347.302C484.271 347.302 488.542 347.787 490.24 348.029C492.181 348.515 496.791 349.194 499.703 348.029C502.615 346.865 505.283 353.853 506.253 357.492Z" fill="#F7B39D"/>
<path d="M573.222 265.048C567.399 245.248 555.752 251.945 550.657 257.768C545.416 266.503 542.165 307.509 541.194 326.92L496.792 348.03L501.159 362.588C515.475 358.706 546.581 349.777 556.48 345.118C566.38 340.459 570.311 328.133 571.039 322.553C573.222 312.119 576.716 286.011 573.222 265.048Z" fill="#ED7D31"/>
<path d="M576.862 208.271C576.28 203.612 577.832 191.286 579.045 185.705C588.023 184.007 607.725 180.756 614.713 181.338C623.448 182.066 634.366 204.631 605.25 222.101C581.957 236.077 576.619 218.704 576.862 208.271Z" fill="#F7B39D"/>
<path d="M593.604 166.779C585.452 166.779 578.561 170.176 576.135 171.874C566.314 178.749 572.494 179.881 576.134 180.609C572.058 182.939 570.068 185.462 569.583 186.433C563.761 195.896 572.495 191.528 578.318 192.256C584.142 192.984 584.142 196.623 583.414 198.079C582.686 199.535 582.686 200.263 582.686 202.447C582.686 204.63 584.142 208.998 586.325 207.542C588.072 206.377 589.48 206.086 589.965 206.086C595.788 206.086 593.604 214.093 592.877 217.733C589.965 227.924 602.339 230.107 610.346 227.924C620.537 222.1 623.449 214.093 627.816 200.991C631.31 190.509 627.816 184.006 625.633 182.065C623.691 180.367 619.518 176.824 618.353 176.242C614.714 174.058 615.442 173.33 611.802 171.147C608.163 168.963 603.795 166.779 593.604 166.779Z" fill="#163561" stroke="#FF4B4B" stroke-width="0.05"/>
<path d="M582.996 224.776C587.421 227.84 599.063 232.81 610.228 228.18C603.76 231.925 588.442 234.988 582.996 224.776Z" fill="#F8A9A9"/>
<path d="M169.721 251.652C167.134 260.382 162.715 263.912 160.829 264.586L168.104 278.731C170.664 274.42 176.268 265.232 178.208 262.968C180.633 260.139 186.696 257.714 189.929 255.693C193.163 253.672 194.779 250.035 189.929 251.247C186.049 252.217 186.426 250.304 187.1 249.227C187.774 247.206 189.929 241.871 193.163 236.697C196.396 231.524 193.971 232.925 192.354 234.272L185.483 241.143C186.292 240.2 188.232 237.183 189.525 232.656C190.818 228.129 188.178 230.77 186.696 232.656C185.483 233.868 182.25 238.718 180.229 242.356C181.846 238.799 183.058 234.947 183.463 233.465C184.271 230.636 182.051 232.097 180.633 233.869C179.017 235.89 176.996 240.066 175.783 242.761C176.322 241.414 177.481 238.315 177.804 236.698C178.208 234.677 178.208 234.273 176.592 235.89C173.358 238.719 172.954 240.74 169.721 251.652Z" fill="#FFC7C7"/>
<path d="M26.2421 378.157L18.1587 587.112L44.4296 589.133L66.2547 425.445L77.1673 589.133H100.205L102.226 378.157H26.2421Z" fill="#0D264A"/>
<path d="M44.4281 585.495L18.5613 585.091H18.1571L14.9238 600.449H56.9573C58.574 589.779 49.2781 586.034 44.4281 585.495Z" fill="#06152C"/>
<path d="M73.5589 600.409L76.7923 585.051H101.447C119.23 587.637 121.79 596.367 120.847 600.409H73.5589Z" fill="#06152C"/>
<path d="M103.841 297.728V261.352L141.429 283.986L165.275 257.311C167.7 258.793 173.763 262.565 178.613 265.798C162.042 298.94 151.937 307.023 150.321 308.236C148.704 309.449 147.492 310.257 143.046 309.853C126.879 309.529 110.173 301.635 103.841 297.728Z" fill="#122D53"/>
<path d="M47.2579 251.248L49.2788 238.719L70.2955 239.931L72.7205 250.036L63.4247 262.969L47.2579 251.248Z" fill="#FFC7C7"/>
<path d="M50.3453 250.55C46.9321 251.404 41.3296 253.403 38.3657 254.481L49.2782 385.432H83.6325L79.995 251.652L71.1033 249.631L63.0199 260.139C59.7866 257.984 52.2854 252.814 50.3453 250.55Z" fill="#00A3FE"/>
<path d="M105.488 262.122C94.8182 255.332 82.6901 252.057 77.9748 251.249L75.5498 282.774V291.665L78.379 404.428L105.458 408.066C105.458 360.778 105.488 265.355 105.488 262.122Z" fill="#163561"/>
<path d="M15.3288 266.607C23.0888 260.14 37.1539 254.751 43.2164 252.865L52.9164 286.411L55.3414 404.428L20.1788 408.066L15.3288 266.607Z" fill="#163561"/>
<path fill-rule="evenodd" clip-rule="evenodd" d="M50.3453 250.55L60.5851 257.803V265.483L47.6346 251.625L50.3453 250.55Z" fill="#89C2D9"/>
<path fill-rule="evenodd" clip-rule="evenodd" d="M60.5851 257.803L58.8785 342.008L66.498 353.633L73.9259 342.02L65.2523 257.377L60.5851 257.803Z" fill="#00243D"/>
<path d="M71.9122 247.611C55.4221 249.551 48.8746 241.413 48.0663 237.506L71.9422 239.488L71.9122 247.611Z" fill="#F3B1B1"/>
<path d="M71.9126 243.57C51.8658 246.157 42.2736 236.025 39.9833 230.637C32.3041 194.666 69.0834 185.774 76.3584 195.474C83.6335 205.174 83.1995 218.956 81.2085 225.382C79.2174 231.809 80.4001 237.912 71.9126 243.57Z" fill="#FFC7C7"/>
<path d="M54.1285 184.156C43.1351 187.712 36.6145 192.913 34.7284 195.068C30.2017 197.655 29.0701 206.115 29.0701 210.022C29.8784 213.66 30.2826 224.168 38.3659 233.464C44.5187 240.54 45.1021 235.216 44.4285 231.848C44.0243 230.366 43.0543 226.108 42.4076 220.935C42.0035 214.468 48.066 216.085 48.4701 220.935C48.8743 225.785 50.8952 223.764 51.7035 221.743C52.3502 220.127 52.7813 215.142 52.916 212.852C54.5327 200.242 67.0619 204.813 78.3786 206.385C92.9287 208.406 88.887 199.514 83.6328 190.622C79.5911 182.943 71.2383 182.539 67.0619 182.539C65.1758 182.404 59.9485 182.539 54.1285 184.156Z" fill="#163561"/>
<path d="M36.7493 287.219C38.3659 263.939 23.8159 262.159 15.3283 266.606C10.0741 273.478 3.60745 293.28 1.58661 309.447C-0.43423 325.614 -1.24257 336.526 3.60745 349.46C7.48747 359.806 17.6186 378.021 22.1992 385.835L36.3451 375.731L23.8159 338.143C27.3725 324.563 33.9201 298.535 36.7493 287.219Z" fill="#224373"/>
<path fill-rule="evenodd" clip-rule="evenodd" d="M70.5969 249.657C71.1967 249.578 74.1 250.251 74.1 250.251L65.7049 261.643L65.2783 257.377C65.2783 257.377 69.9971 249.75 70.5884 249.668L70.5969 249.657Z" fill="#89C2D9"/>
<defs>
<filter id="filter0_d_17_1286" x="393.082" y="130.708" width="26.8939" height="26.894" filterUnits="userSpaceOnUse" color-interpolation-filters="sRGB">
<feFlood flood-opacity="0" result="BackgroundImageFix"/>
<feColorMatrix in="SourceAlpha" type="matrix" values="0 0 0 0 0 0 0 0 0 0 0 0 0 0 0 0 0 0 127 0" result="hardAlpha"/>
<feOffset dy="2"/>
<feGaussianBlur stdDeviation="4"/>
<feComposite in2="hardAlpha" operator="out"/>
<feColorMatrix type="matrix" values="0 0 0 0 0.201043 0 0 0 0 0.167438 0 0 0 0 0.5875 0 0 0 0.12 0"/>
<feBlend mode="normal" in2="BackgroundImageFix" result="effect1_dropShadow_17_1286"/>
<feBlend mode="normal" in="SourceGraphic" in2="effect1_dropShadow_17_1286" result="shape"/>
</filter>
<filter id="filter1_d_17_1286" x="465.284" y="108.681" width="26.8939" height="26.894" filterUnits="userSpaceOnUse" color-interpolation-filters="sRGB">
<feFlood flood-opacity="0" result="BackgroundImageFix"/>
<feColorMatrix in="SourceAlpha" type="matrix" values="0 0 0 0 0 0 0 0 0 0 0 0 0 0 0 0 0 0 127 0" result="hardAlpha"/>
<feOffset dy="2"/>
<feGaussianBlur stdDeviation="4"/>
<feComposite in2="hardAlpha" operator="out"/>
<feColorMatrix type="matrix" values="0 0 0 0 0.201043 0 0 0 0 0.167438 0 0 0 0 0.5875 0 0 0 0.12 0"/>
<feBlend mode="normal" in2="BackgroundImageFix" result="effect1_dropShadow_17_1286"/>
<feBlend mode="normal" in="SourceGraphic" in2="effect1_dropShadow_17_1286" result="shape"/>
</filter>
<filter id="filter2_d_17_1286" x="292.189" y="152.263" width="16.1691" height="16.1692" filterUnits="userSpaceOnUse" color-interpolation-filters="sRGB">
<feFlood flood-opacity="0" result="BackgroundImageFix"/>
<feColorMatrix in="SourceAlpha" type="matrix" values="0 0 0 0 0 0 0 0 0 0 0 0 0 0 0 0 0 0 127 0" result="hardAlpha"/>
<feOffset dy="2"/>
<feGaussianBlur stdDeviation="2"/>
<feComposite in2="hardAlpha" operator="out"/>
<feColorMatrix type="matrix" values="0 0 0 0 0.443137 0 0 0 0 0.517647 0 0 0 0 0.819608 0 0 0 0.16 0"/>
<feBlend mode="normal" in2="BackgroundImageFix" result="effect1_dropShadow_17_1286"/>
<feBlend mode="normal" in="SourceGraphic" in2="effect1_dropShadow_17_1286" result="shape"/>
</filter>
<linearGradient id="paint0_linear_17_1286" x1="307.362" y1="491.29" x2="307.362" y2="530.38" gradientUnits="userSpaceOnUse">
<stop stop-color="#50AF9A"/>
<stop offset="1" stop-color="#349B44"/>
</linearGradient>
<linearGradient id="paint1_linear_17_1286" x1="280.408" y1="518.85" x2="280.408" y2="554.04" gradientUnits="userSpaceOnUse">
<stop stop-color="#50AF9A"/>
<stop offset="1" stop-color="#349B44"/>
</linearGradient>
<linearGradient id="paint2_linear_17_1286" x1="306.505" y1="554.731" x2="258.005" y2="547.414" gradientUnits="userSpaceOnUse">
<stop stop-color="white"/>
<stop offset="1" stop-color="white"/>
</linearGradient>
<linearGradient id="paint3_linear_17_1286" x1="370.039" y1="506.897" x2="370.039" y2="535.114" gradientUnits="userSpaceOnUse">
<stop stop-color="#50AF9A"/>
<stop offset="1" stop-color="#349B44"/>
</linearGradient>
<linearGradient id="paint4_linear_17_1286" x1="321.878" y1="487.674" x2="321.878" y2="500.473" gradientUnits="userSpaceOnUse">
<stop stop-color="#337F6D"/>
<stop offset="1" stop-color="#5FDBBD"/>
</linearGradient>
<linearGradient id="paint5_linear_17_1286" x1="273.671" y1="530.276" x2="276.768" y2="514.19" gradientUnits="userSpaceOnUse">
<stop stop-color="white"/>
<stop offset="1" stop-color="#5B2B00"/>
</linearGradient>
<linearGradient id="paint6_linear_17_1286" x1="269.932" y1="510.542" x2="270.545" y2="507.355" gradientUnits="userSpaceOnUse">
<stop stop-color="white"/>
<stop offset="1" stop-color="#5B2B00"/>
</linearGradient>
<linearGradient id="paint7_linear_17_1286" x1="374.471" y1="517.275" x2="374.471" y2="544.72" gradientUnits="userSpaceOnUse">
<stop stop-color="#50AF9A"/>
<stop offset="1" stop-color="#349B44"/>
</linearGradient>
<linearGradient id="paint8_linear_17_1286" x1="379.401" y1="545.634" x2="355.489" y2="542.885" gradientUnits="userSpaceOnUse">
<stop stop-color="white"/>
<stop offset="1" stop-color="white"/>
</linearGradient>
<linearGradient id="paint9_linear_17_1286" x1="385.551" y1="536.763" x2="384.081" y2="534.514" gradientUnits="userSpaceOnUse">
<stop stop-color="white"/>
<stop offset="1" stop-color="#5B2B00"/>
</linearGradient>
<linearGradient id="paint10_linear_17_1286" x1="386.703" y1="555.723" x2="374.882" y2="555.211" gradientUnits="userSpaceOnUse">
<stop stop-color="white"/>
<stop offset="1" stop-color="white"/>
</linearGradient>
<linearGradient id="paint11_linear_17_1286" x1="325.713" y1="472.125" x2="380.839" y2="513.629" gradientUnits="userSpaceOnUse">
<stop offset="0.00540541" stop-color="#DDF25C"/>
<stop offset="0.2342" stop-color="#DDE767"/>
<stop offset="0.6581" stop-color="#6064CA"/>
<stop offset="0.9946" stop-color="#40A8AF"/>
</linearGradient>
<linearGradient id="paint12_linear_17_1286" x1="342.268" y1="483.423" x2="343.648" y2="484.293" gradientUnits="userSpaceOnUse">
<stop offset="0.3659" stop-color="white"/>
<stop offset="0.5772" stop-color="#D3A1B9"/>
<stop offset="0.7848" stop-color="#AB4A78"/>
<stop offset="0.9297" stop-color="#921550"/>
<stop offset="1" stop-color="#880041"/>
</linearGradient>
<linearGradient id="paint13_linear_17_1286" x1="406.876" y1="507.524" x2="361.034" y2="516.79" gradientUnits="userSpaceOnUse">
<stop stop-color="white"/>
<stop offset="1" stop-color="#5B2B00"/>
</linearGradient>
<linearGradient id="paint14_linear_17_1286" x1="352.95" y1="498.188" x2="352.392" y2="497.353" gradientUnits="userSpaceOnUse">
<stop stop-color="white"/>
<stop offset="1" stop-color="#5B2B00"/>
</linearGradient>
<linearGradient id="paint15_linear_17_1286" x1="363.225" y1="491.154" x2="363.225" y2="513.341" gradientUnits="userSpaceOnUse">
<stop stop-color="#337F6D"/>
<stop offset="1" stop-color="#5FDBBD"/>
</linearGradient>
<linearGradient id="paint16_linear_17_1286" x1="385.217" y1="499.818" x2="384.017" y2="498.022" gradientUnits="userSpaceOnUse">
<stop stop-color="white"/>
<stop offset="1" stop-color="#5B2B00"/>
</linearGradient>
<linearGradient id="paint17_linear_17_1286" x1="377.47" y1="502.709" x2="347.276" y2="490.424" gradientUnits="userSpaceOnUse">
<stop stop-color="white"/>
<stop offset="1" stop-color="white"/>
</linearGradient>
<linearGradient id="paint18_linear_17_1286" x1="326.728" y1="500.348" x2="362.523" y2="527.298" gradientUnits="userSpaceOnUse">
<stop offset="0.00540541" stop-color="#DDF25C"/>
<stop offset="0.2342" stop-color="#DDE767"/>
<stop offset="0.6581" stop-color="#6064CA"/>
<stop offset="0.9946" stop-color="#40A8AF"/>
</linearGradient>
<linearGradient id="paint19_linear_17_1286" x1="337.473" y1="507.693" x2="338.37" y2="508.258" gradientUnits="userSpaceOnUse">
<stop offset="0.3659" stop-color="white"/>
<stop offset="0.5772" stop-color="#D3A1B9"/>
<stop offset="0.7848" stop-color="#AB4A78"/>
<stop offset="0.9297" stop-color="#921550"/>
<stop offset="1" stop-color="#880041"/>
</linearGradient>
<linearGradient id="paint20_linear_17_1286" x1="329.991" y1="517.498" x2="329.991" y2="564.54" gradientUnits="userSpaceOnUse">
<stop stop-color="#50AF9A"/>
<stop offset="1" stop-color="#349B44"/>
</linearGradient>
<linearGradient id="paint21_linear_17_1286" x1="337.195" y1="579.314" x2="307.574" y2="577.497" gradientUnits="userSpaceOnUse">
<stop stop-color="white"/>
<stop offset="1" stop-color="white"/>
</linearGradient>
<linearGradient id="paint22_linear_17_1286" x1="341.422" y1="557.645" x2="342.806" y2="554.36" gradientUnits="userSpaceOnUse">
<stop stop-color="white"/>
<stop offset="1" stop-color="#5B2B00"/>
</linearGradient>
<linearGradient id="paint23_linear_17_1286" x1="354.373" y1="581.615" x2="329.91" y2="579.934" gradientUnits="userSpaceOnUse">
<stop stop-color="white"/>
<stop offset="1" stop-color="white"/>
</linearGradient>
<linearGradient id="paint24_linear_17_1286" x1="260.938" y1="501.737" x2="260.938" y2="535.034" gradientUnits="userSpaceOnUse">
<stop stop-color="#337F6D"/>
<stop offset="1" stop-color="#5FDBBD"/>
</linearGradient>
<linearGradient id="paint25_linear_17_1286" x1="237.835" y1="528.902" x2="238.407" y2="525.934" gradientUnits="userSpaceOnUse">
<stop stop-color="white"/>
<stop offset="1" stop-color="#5B2B00"/>
</linearGradient>
<linearGradient id="paint26_linear_17_1286" x1="268.596" y1="542.731" x2="233.34" y2="538.803" gradientUnits="userSpaceOnUse">
<stop stop-color="white"/>
<stop offset="1" stop-color="white"/>
</linearGradient>
<linearGradient id="paint27_linear_17_1286" x1="346.565" y1="265.907" x2="346.565" y2="305.391" gradientUnits="userSpaceOnUse">
<stop stop-color="#00A3FE"/>
<stop offset="1" stop-color="#0047FE"/>
</linearGradient>
<linearGradient id="paint28_linear_17_1286" x1="456.848" y1="241.4" x2="456.848" y2="305.391" gradientUnits="userSpaceOnUse">
<stop stop-color="#00A3FE"/>
<stop offset="1" stop-color="#0047FE"/>
</linearGradient>
<linearGradient id="paint29_linear_17_1286" x1="383.326" y1="249.569" x2="383.326" y2="305.391" gradientUnits="userSpaceOnUse">
<stop stop-color="#00A3FE"/>
<stop offset="1" stop-color="#0047FE"/>
</linearGradient>
<linearGradient id="paint30_linear_17_1286" x1="493.609" y1="265.907" x2="493.609" y2="305.391" gradientUnits="userSpaceOnUse">
<stop stop-color="#00A3FE"/>
<stop offset="1" stop-color="#0047FE"/>
</linearGradient>
<linearGradient id="paint31_linear_17_1286" x1="420.087" y1="249.569" x2="420.087" y2="305.391" gradientUnits="userSpaceOnUse">
<stop stop-color="#00A3FE"/>
<stop offset="1" stop-color="#0047FE"/>
</linearGradient>
<linearGradient id="paint32_linear_17_1286" x1="586.046" y1="12.0666" x2="573.813" y2="69.6924" gradientUnits="userSpaceOnUse">
<stop stop-color="#00A3FE"/>
<stop offset="1" stop-color="#0047FE"/>
</linearGradient>
<linearGradient id="paint33_linear_17_1286" x1="133.975" y1="254.086" x2="138.708" y2="261.436" gradientUnits="userSpaceOnUse">
<stop stop-color="#50AF9A"/>
<stop offset="1" stop-color="#349B44"/>
</linearGradient>
<linearGradient id="paint34_linear_17_1286" x1="115.241" y1="225.102" x2="132.857" y2="252.455" gradientUnits="userSpaceOnUse">
<stop stop-color="#FBE0B3"/>
<stop offset="1" stop-color="#FFCB6A"/>
</linearGradient>
</defs>
</svg>
