<svg width="602" height="92" viewBox="0 0 602 92" fill="none" xmlns="http://www.w3.org/2000/svg">
<path d="M0.4 0.399994H15.888L42.128 58.768L43.664 61.84L70.416 0.399994H86.672V90H73.104C73.0187 77.456 72.976 64.9547 72.976 52.496C72.976 42.3413 73.0187 34.1493 73.104 27.92L73.36 18.96L73.104 18.832C70.544 24.6347 68.624 28.944 67.344 31.76C65.2107 36.368 62.5227 42.4693 59.28 50.064C56.0373 57.6587 53.3067 64.0587 51.088 69.264L47.888 77.2H36.496C30.7787 64.4 26.512 54.8 23.696 48.4C20.88 41.9147 18.4907 36.368 16.528 31.76C14.6507 27.152 13.4987 24.1227 13.072 22.672L12.432 20.624L12.176 20.752C12.176 21.008 12.176 21.648 12.176 22.672C12.2613 23.696 12.3467 25.0613 12.432 26.768C12.5173 28.3893 12.6027 30.0107 12.688 31.632C12.7733 37.6053 12.816 45.0293 12.816 53.904L12.688 90H0.4V0.399994ZM144.584 42.64C140.915 38.544 136.093 36.496 130.12 36.496C124.147 36.496 119.283 38.544 115.528 42.64C111.773 46.736 109.896 51.856 109.896 58C109.896 64.144 111.773 69.264 115.528 73.36C119.283 77.456 124.147 79.504 130.12 79.504C136.093 79.504 140.915 77.456 144.584 73.36C148.253 69.264 150.088 64.144 150.088 58C150.088 51.856 148.253 46.736 144.584 42.64ZM106.568 34.576C113.139 28.0053 120.989 24.72 130.12 24.72C139.251 24.72 147.059 28.0053 153.544 34.576C160.115 41.0613 163.4 48.8693 163.4 58C163.4 67.1307 160.115 74.9813 153.544 81.552C147.059 88.0373 139.251 91.28 130.12 91.28C120.989 91.28 113.139 88.0373 106.568 81.552C100.083 74.9813 96.84 67.1307 96.84 58C96.84 48.8693 100.083 41.0613 106.568 34.576ZM233.938 89.872H221.138V58.128C221.138 50.96 219.559 45.456 216.402 41.616C213.33 37.6907 208.893 35.728 203.09 35.728C197.458 35.728 193.149 37.648 190.162 41.488C187.261 45.328 185.81 50.9173 185.81 58.256V90L173.65 89.872V54.544C173.65 46.096 176.381 39.0133 181.842 33.296C187.389 27.4933 194.898 24.592 204.37 24.592C205.735 24.592 207.058 24.6347 208.338 24.72C209.618 24.8053 211.282 25.104 213.33 25.616C215.463 26.0427 217.383 26.64 219.09 27.408C220.882 28.176 222.717 29.328 224.594 30.864C226.557 32.3147 228.178 34.064 229.458 36.112C230.738 38.16 231.805 40.7627 232.658 43.92C233.511 47.0773 233.938 50.6187 233.938 54.544V89.872ZM243.284 0.527992H256.084V26.128H273.492V37.008H256.084V58.128C256.084 64.1867 257.961 69.0933 261.716 72.848C265.556 76.5173 270.505 78.352 276.564 78.352V90.128C267.348 90.128 259.497 87.0987 253.012 81.04C246.527 74.896 243.284 67.2587 243.284 58.128V0.527992ZM320.055 0.399994H344.631V11.92H320.055C313.996 11.92 309.047 13.84 305.207 17.68C301.452 21.52 299.575 26.4693 299.575 32.528V41.616H340.663V52.496H299.575V90.128H286.263V32.528C286.263 23.4827 289.591 15.888 296.247 9.744C302.903 3.51466 310.839 0.399994 320.055 0.399994ZM395.334 42.64C391.665 38.544 386.843 36.496 380.87 36.496C374.897 36.496 370.033 38.544 366.278 42.64C362.523 46.736 360.646 51.856 360.646 58C360.646 64.144 362.523 69.264 366.278 73.36C370.033 77.456 374.897 79.504 380.87 79.504C386.843 79.504 391.665 77.456 395.334 73.36C399.003 69.264 400.838 64.144 400.838 58C400.838 51.856 399.003 46.736 395.334 42.64ZM357.318 34.576C363.889 28.0053 371.739 24.72 380.87 24.72C390.001 24.72 397.809 28.0053 404.294 34.576C410.865 41.0613 414.15 48.8693 414.15 58C414.15 67.1307 410.865 74.9813 404.294 81.552C397.809 88.0373 390.001 91.28 380.87 91.28C371.739 91.28 363.889 88.0373 357.318 81.552C350.833 74.9813 347.59 67.1307 347.59 58C347.59 48.8693 350.833 41.0613 357.318 34.576ZM457.68 24.592V39.312C451.621 39.312 446.672 41.0187 442.832 44.432C439.077 47.8453 437.2 52.3253 437.2 57.872V89.872H424.4V57.872C424.4 47.632 427.429 39.5253 433.488 33.552C439.632 27.5787 447.696 24.592 457.68 24.592ZM496.15 36.24C490.177 36.24 485.27 38.3307 481.43 42.512C477.59 46.6933 475.67 51.856 475.67 58C475.67 64.144 477.59 69.3067 481.43 73.488C485.27 77.6693 490.177 79.76 496.15 79.76C502.123 79.76 507.115 77.6693 511.126 73.488C515.137 69.3067 517.142 64.1867 517.142 58.128C517.142 51.984 515.137 46.8213 511.126 42.64C507.115 38.3733 502.123 36.24 496.15 36.24ZM496.15 24.72C500.417 24.72 504.47 25.4027 508.31 26.768C512.235 28.048 515.777 29.968 518.934 32.528C522.177 35.088 524.737 38.5867 526.614 43.024C528.491 47.376 529.43 52.368 529.43 58V90H516.63V81.808C516.459 82.064 516.118 82.448 515.606 82.96C515.179 83.3867 514.326 84.1547 513.046 85.264C511.766 86.288 510.358 87.2267 508.822 88.08C507.286 88.9333 505.323 89.7013 502.934 90.384C500.63 91.0667 498.241 91.408 495.766 91.408C495.766 91.408 495.723 91.408 495.638 91.408C485.739 91.408 477.718 88.1653 471.574 81.68C465.515 75.1093 462.486 67.1733 462.486 57.872C462.486 53.776 463.169 49.808 464.534 45.968C465.899 42.0427 467.905 38.5013 470.55 35.344C473.195 32.1013 476.694 29.5413 481.046 27.664C485.483 25.7013 490.433 24.72 495.894 24.72C495.979 24.72 496.065 24.72 496.15 24.72ZM601.188 89.872H588.388V58.128C588.388 50.96 586.809 45.456 583.652 41.616C580.58 37.6907 576.143 35.728 570.34 35.728C564.708 35.728 560.399 37.648 557.412 41.488C554.511 45.328 553.06 50.9173 553.06 58.256V90L540.9 89.872V54.544C540.9 46.096 543.631 39.0133 549.092 33.296C554.639 27.4933 562.148 24.592 571.62 24.592C572.985 24.592 574.308 24.6347 575.588 24.72C576.868 24.8053 578.532 25.104 580.58 25.616C582.713 26.0427 584.633 26.64 586.34 27.408C588.132 28.176 589.967 29.328 591.844 30.864C593.807 32.3147 595.428 34.064 596.708 36.112C597.988 38.16 599.055 40.7627 599.908 43.92C600.761 47.0773 601.188 50.6187 601.188 54.544V89.872Z" fill="#79747E"/>
</svg>
