<svg width="799" height="121" viewBox="0 0 799 121" fill="none" xmlns="http://www.w3.org/2000/svg">
<path d="M0.5 -8.10623e-06H21.07L55.92 77.52L57.96 81.6L93.49 -8.10623e-06H115.08V119H97.06C96.9467 102.34 96.89 85.7367 96.89 69.19C96.89 55.7033 96.9467 44.8233 97.06 36.55L97.4 24.65L97.06 24.48C93.66 32.1867 91.11 37.91 89.41 41.65C86.5767 47.77 83.0067 55.8733 78.7 65.96C74.3933 76.0467 70.7667 84.5467 67.82 91.46L63.57 102H48.44C40.8467 85 35.18 72.25 31.44 63.75C27.7 55.1367 24.5267 47.77 21.92 41.65C19.4267 35.53 17.8967 31.5067 17.33 29.58L16.48 26.86L16.14 27.03C16.14 27.37 16.14 28.22 16.14 29.58C16.2533 30.94 16.3667 32.7533 16.48 35.02C16.5933 37.1733 16.7067 39.3267 16.82 41.48C16.9333 49.4133 16.99 59.2733 16.99 71.06L16.82 119H0.5V-8.10623e-06ZM191.994 56.1C187.121 50.66 180.718 47.94 172.784 47.94C164.851 47.94 158.391 50.66 153.404 56.1C148.418 61.54 145.924 68.34 145.924 76.5C145.924 84.66 148.418 91.46 153.404 96.9C158.391 102.34 164.851 105.06 172.784 105.06C180.718 105.06 187.121 102.34 191.994 96.9C196.868 91.46 199.304 84.66 199.304 76.5C199.304 68.34 196.868 61.54 191.994 56.1ZM141.504 45.39C150.231 36.6633 160.658 32.3 172.784 32.3C184.911 32.3 195.281 36.6633 203.894 45.39C212.621 54.0033 216.984 64.3733 216.984 76.5C216.984 88.6267 212.621 99.0533 203.894 107.78C195.281 116.393 184.911 120.7 172.784 120.7C160.658 120.7 150.231 116.393 141.504 107.78C132.891 99.0533 128.584 88.6267 128.584 76.5C128.584 64.3733 132.891 54.0033 141.504 45.39ZM310.668 118.83H293.668V76.67C293.668 67.15 291.571 59.84 287.378 54.74C283.298 49.5267 277.404 46.92 269.698 46.92C262.218 46.92 256.494 49.47 252.528 54.57C248.674 59.67 246.748 67.0933 246.748 76.84V119L230.598 118.83V71.91C230.598 60.69 234.224 51.2833 241.478 43.69C248.844 35.9833 258.818 32.13 271.398 32.13C273.211 32.13 274.968 32.1867 276.668 32.3C278.368 32.4133 280.578 32.81 283.298 33.49C286.131 34.0567 288.681 34.85 290.948 35.87C293.328 36.89 295.764 38.42 298.258 40.46C300.864 42.3867 303.018 44.71 304.718 47.43C306.418 50.15 307.834 53.6067 308.968 57.8C310.101 61.9933 310.668 66.6967 310.668 71.91V118.83ZM323.08 0.16999H340.08V34.17H363.2V48.62H340.08V76.67C340.08 84.7167 342.574 91.2333 347.56 96.22C352.66 101.093 359.234 103.53 367.28 103.53V119.17C355.04 119.17 344.614 115.147 336 107.1C327.387 98.94 323.08 88.7967 323.08 76.67V0.16999ZM425.042 -8.10623e-06H457.682V15.3H425.042C416.995 15.3 410.422 17.85 405.322 22.95C400.335 28.05 397.842 34.6233 397.842 42.67V54.74H452.412V69.19H397.842V119.17H380.162V42.67C380.162 30.6567 384.582 20.57 393.422 12.41C402.262 4.13666 412.802 -8.10623e-06 425.042 -8.10623e-06ZM525.022 56.1C520.148 50.66 513.745 47.94 505.812 47.94C497.878 47.94 491.418 50.66 486.432 56.1C481.445 61.54 478.952 68.34 478.952 76.5C478.952 84.66 481.445 91.46 486.432 96.9C491.418 102.34 497.878 105.06 505.812 105.06C513.745 105.06 520.148 102.34 525.022 96.9C529.895 91.46 532.332 84.66 532.332 76.5C532.332 68.34 529.895 61.54 525.022 56.1ZM474.532 45.39C483.258 36.6633 493.685 32.3 505.812 32.3C517.938 32.3 528.308 36.6633 536.922 45.39C545.648 54.0033 550.012 64.3733 550.012 76.5C550.012 88.6267 545.648 99.0533 536.922 107.78C528.308 116.393 517.938 120.7 505.812 120.7C493.685 120.7 483.258 116.393 474.532 107.78C465.918 99.0533 461.612 88.6267 461.612 76.5C461.612 64.3733 465.918 54.0033 474.532 45.39ZM607.825 32.13V51.68C599.778 51.68 593.205 53.9467 588.105 58.48C583.118 63.0133 580.625 68.9633 580.625 76.33V118.83H563.625V76.33C563.625 62.73 567.648 51.9633 575.695 44.03C583.855 36.0967 594.565 32.13 607.825 32.13ZM658.918 47.6C650.985 47.6 644.468 50.3767 639.368 55.93C634.268 61.4833 631.718 68.34 631.718 76.5C631.718 84.66 634.268 91.5167 639.368 97.07C644.468 102.623 650.985 105.4 658.918 105.4C666.851 105.4 673.481 102.623 678.808 97.07C684.135 91.5167 686.798 84.7167 686.798 76.67C686.798 68.51 684.135 61.6533 678.808 56.1C673.481 50.4333 666.851 47.6 658.918 47.6ZM658.918 32.3C664.585 32.3 669.968 33.2067 675.068 35.02C680.281 36.72 684.985 39.27 689.178 42.67C693.485 46.07 696.885 50.7167 699.378 56.61C701.871 62.39 703.118 69.02 703.118 76.5V119H686.118V108.12C685.891 108.46 685.438 108.97 684.758 109.65C684.191 110.217 683.058 111.237 681.358 112.71C679.658 114.07 677.788 115.317 675.748 116.45C673.708 117.583 671.101 118.603 667.928 119.51C664.868 120.417 661.695 120.87 658.408 120.87C658.408 120.87 658.351 120.87 658.238 120.87C645.091 120.87 634.438 116.563 626.278 107.95C618.231 99.2233 614.208 88.6833 614.208 76.33C614.208 70.89 615.115 65.62 616.928 60.52C618.741 55.3067 621.405 50.6033 624.918 46.41C628.431 42.1033 633.078 38.7033 638.858 36.21C644.751 33.6033 651.325 32.3 658.578 32.3C658.691 32.3 658.805 32.3 658.918 32.3ZM798.422 118.83H781.422V76.67C781.422 67.15 779.325 59.84 775.132 54.74C771.052 49.5267 765.158 46.92 757.452 46.92C749.972 46.92 744.248 49.47 740.282 54.57C736.428 59.67 734.502 67.0933 734.502 76.84V119L718.352 118.83V71.91C718.352 60.69 721.978 51.2833 729.232 43.69C736.598 35.9833 746.572 32.13 759.152 32.13C760.965 32.13 762.722 32.1867 764.422 32.3C766.122 32.4133 768.332 32.81 771.052 33.49C773.885 34.0567 776.435 34.85 778.702 35.87C781.082 36.89 783.518 38.42 786.012 40.46C788.618 42.3867 790.772 44.71 792.472 47.43C794.172 50.15 795.588 53.6067 796.722 57.8C797.855 61.9933 798.422 66.6967 798.422 71.91V118.83Z" fill="#79747E"/>
</svg>
