<svg width="1107" height="188" viewBox="0 0 1107 188" fill="none" xmlns="http://www.w3.org/2000/svg">
<path d="M0 149V8.99998H32.6L90.6 104.2H73.4L129.8 8.99998H162.4L162.8 149H126.4L126 64.4H132.2L90 135.2H72.4L29 64.4H36.6V149H0Z" fill="#E8E8E8"/>
<path d="M257.22 150.8C248.02 150.8 240.154 148.8 233.62 144.8C227.087 140.667 222.087 134.533 218.62 126.4C215.287 118.133 213.62 107.6 213.62 94.8C213.62 81.8666 215.22 71.3333 218.42 63.2C221.62 54.9333 226.42 48.8 232.82 44.8C239.354 40.8 247.487 38.8 257.22 38.8C267.087 38.8 276.02 41.1333 284.02 45.8C292.154 50.3333 298.554 56.8 303.22 65.2C308.02 73.4666 310.42 83.3333 310.42 94.8C310.42 106.267 308.02 116.2 303.22 124.6C298.554 133 292.154 139.467 284.02 144C276.02 148.533 267.087 150.8 257.22 150.8ZM189.02 187.8V40.6H225.22V59L225.02 94.8L227.02 130.8V187.8H189.02ZM249.22 120.6C253.487 120.6 257.287 119.6 260.62 117.6C264.087 115.6 266.82 112.667 268.82 108.8C270.954 104.933 272.02 100.267 272.02 94.8C272.02 89.3333 270.954 84.6666 268.82 80.8C266.82 76.9333 264.087 74 260.62 72C257.287 70 253.487 69 249.22 69C244.954 69 241.087 70 237.62 72C234.287 74 231.554 76.9333 229.42 80.8C227.42 84.6666 226.42 89.3333 226.42 94.8C226.42 100.267 227.42 104.933 229.42 108.8C231.554 112.667 234.287 115.6 237.62 117.6C241.087 119.6 244.954 120.6 249.22 120.6Z" fill="#E8E8E8"/>
<path d="M384.883 150.8C372.083 150.8 360.883 148.4 351.283 143.6C341.816 138.667 334.416 132 329.083 123.6C323.883 115.067 321.283 105.4 321.283 94.6C321.283 83.8 323.816 74.2 328.883 65.8C334.083 57.2666 341.216 50.6666 350.283 46C359.349 41.2 369.549 38.8 380.883 38.8C391.549 38.8 401.283 41 410.083 45.4C418.883 49.6666 425.883 56 431.083 64.4C436.283 72.8 438.883 83 438.883 95C438.883 96.3333 438.816 97.8666 438.683 99.6C438.549 101.333 438.416 102.933 438.283 104.4H352.483V84.4H418.083L403.683 90C403.816 85.0667 402.883 80.8 400.883 77.2C399.016 73.6 396.349 70.8 392.883 68.8C389.549 66.8 385.616 65.8 381.083 65.8C376.549 65.8 372.549 66.8 369.083 68.8C365.749 70.8 363.149 73.6666 361.283 77.4C359.416 81 358.483 85.2666 358.483 90.2V96C358.483 101.333 359.549 105.933 361.683 109.8C363.949 113.667 367.149 116.667 371.283 118.8C375.416 120.8 380.349 121.8 386.083 121.8C391.416 121.8 395.949 121.067 399.683 119.6C403.549 118 407.349 115.6 411.083 112.4L431.083 133.2C425.883 138.933 419.483 143.333 411.883 146.4C404.283 149.333 395.283 150.8 384.883 150.8Z" fill="#E8E8E8"/>
<path d="M456.403 149V0.599976H494.403V149H456.403Z" fill="#E8E8E8"/>
<path d="M575.898 150.8C563.098 150.8 551.898 148.4 542.298 143.6C532.832 138.667 525.432 132 520.098 123.6C514.898 115.067 512.298 105.4 512.298 94.6C512.298 83.8 514.832 74.2 519.898 65.8C525.098 57.2666 532.232 50.6666 541.298 46C550.365 41.2 560.565 38.8 571.898 38.8C582.565 38.8 592.298 41 601.098 45.4C609.898 49.6666 616.898 56 622.098 64.4C627.298 72.8 629.898 83 629.898 95C629.898 96.3333 629.832 97.8666 629.698 99.6C629.565 101.333 629.432 102.933 629.298 104.4H543.498V84.4H609.098L594.698 90C594.832 85.0667 593.898 80.8 591.898 77.2C590.032 73.6 587.365 70.8 583.898 68.8C580.565 66.8 576.632 65.8 572.098 65.8C567.565 65.8 563.565 66.8 560.098 68.8C556.765 70.8 554.165 73.6666 552.298 77.4C550.432 81 549.498 85.2666 549.498 90.2V96C549.498 101.333 550.565 105.933 552.698 109.8C554.965 113.667 558.165 116.667 562.298 118.8C566.432 120.8 571.365 121.8 577.098 121.8C582.432 121.8 586.965 121.067 590.698 119.6C594.565 118 598.365 115.6 602.098 112.4L622.098 133.2C616.898 138.933 610.498 143.333 602.898 146.4C595.298 149.333 586.298 150.8 575.898 150.8Z" fill="#E8E8E8"/>
<path d="M788.619 38.8C797.019 38.8 804.485 40.5333 811.019 44C817.685 47.3333 822.885 52.5333 826.619 59.6C830.485 66.6666 832.419 75.8 832.419 87V149H794.419V93.2C794.419 85.4666 792.952 79.8667 790.019 76.4C787.085 72.8 783.085 71 778.019 71C774.419 71 771.152 71.8666 768.219 73.6C765.285 75.3333 763.019 78 761.419 81.6C759.819 85.0666 759.019 89.6 759.019 95.2V149H721.019V93.2C721.019 85.4666 719.552 79.8667 716.619 76.4C713.819 72.8 709.819 71 704.619 71C700.885 71 697.552 71.8666 694.619 73.6C691.819 75.3333 689.552 78 687.819 81.6C686.219 85.0666 685.419 89.6 685.419 95.2V149H647.419V40.6H683.619V70.8L676.419 62.2C680.419 54.4666 685.885 48.6666 692.819 44.8C699.752 40.8 707.485 38.8 716.019 38.8C725.752 38.8 734.285 41.3333 741.619 46.4C749.085 51.3333 754.085 59.0667 756.619 69.6L744.219 67C748.085 58.2 753.885 51.3333 761.619 46.4C769.485 41.3333 778.485 38.8 788.619 38.8Z" fill="#E8E8E8"/>
<path d="M924.603 150.8C914.87 150.8 906.736 148.8 900.203 144.8C893.803 140.8 889.003 134.667 885.803 126.4C882.603 118.133 881.003 107.533 881.003 94.6C881.003 81.9333 882.67 71.4666 886.003 63.2C889.47 54.9333 894.47 48.8 901.003 44.8C907.536 40.8 915.403 38.8 924.603 38.8C934.47 38.8 943.403 41.0666 951.403 45.6C959.536 50.1333 965.936 56.6 970.603 65C975.403 73.2667 977.803 83.1333 977.803 94.6C977.803 106.2 975.403 116.2 970.603 124.6C965.936 132.867 959.536 139.333 951.403 144C943.403 148.533 934.47 150.8 924.603 150.8ZM856.403 149V0.599976H894.403V58.8L892.403 94.6L892.603 130.4V149H856.403ZM916.603 120.6C920.87 120.6 924.67 119.6 928.003 117.6C931.47 115.6 934.203 112.667 936.203 108.8C938.336 104.8 939.403 100.067 939.403 94.6C939.403 89.1333 938.336 84.5333 936.203 80.8C934.203 76.9333 931.47 74 928.003 72C924.67 70 920.87 69 916.603 69C912.336 69 908.47 70 905.003 72C901.67 74 898.936 76.9333 896.803 80.8C894.803 84.5333 893.803 89.1333 893.803 94.6C893.803 100.067 894.803 104.8 896.803 108.8C898.936 112.667 901.67 115.6 905.003 117.6C908.47 119.6 912.336 120.6 916.603 120.6Z" fill="#E8E8E8"/>
<path d="M1052.27 150.8C1039.47 150.8 1028.27 148.4 1018.67 143.6C1009.2 138.667 1001.8 132 996.466 123.6C991.266 115.067 988.666 105.4 988.666 94.6C988.666 83.8 991.199 74.2 996.266 65.8C1001.47 57.2666 1008.6 50.6666 1017.67 46C1026.73 41.2 1036.93 38.8 1048.27 38.8C1058.93 38.8 1068.67 41 1077.47 45.4C1086.27 49.6666 1093.27 56 1098.47 64.4C1103.67 72.8 1106.27 83 1106.27 95C1106.27 96.3333 1106.2 97.8666 1106.07 99.6C1105.93 101.333 1105.8 102.933 1105.67 104.4H1019.87V84.4H1085.47L1071.07 90C1071.2 85.0667 1070.27 80.8 1068.27 77.2C1066.4 73.6 1063.73 70.8 1060.27 68.8C1056.93 66.8 1053 65.8 1048.47 65.8C1043.93 65.8 1039.93 66.8 1036.47 68.8C1033.13 70.8 1030.53 73.6666 1028.67 77.4C1026.8 81 1025.87 85.2666 1025.87 90.2V96C1025.87 101.333 1026.93 105.933 1029.07 109.8C1031.33 113.667 1034.53 116.667 1038.67 118.8C1042.8 120.8 1047.73 121.8 1053.47 121.8C1058.8 121.8 1063.33 121.067 1067.07 119.6C1070.93 118 1074.73 115.6 1078.47 112.4L1098.47 133.2C1093.27 138.933 1086.87 143.333 1079.27 146.4C1071.67 149.333 1062.67 150.8 1052.27 150.8Z" fill="#E8E8E8"/>
</svg>
