<svg width="685" height="120" viewBox="0 0 685 120" fill="none" xmlns="http://www.w3.org/2000/svg">
<path d="M0.440001 95V5.39999H10.936L51.128 73.112H45.496L85.176 5.39999H95.672L95.8 95H83.512L83.384 24.728H86.328L51 84.12H45.112L9.528 24.728H12.728V95H0.440001ZM156.866 95.768C151.234 95.768 146.071 94.488 141.378 91.928C136.77 89.2827 133.058 85.4 130.242 80.28C127.511 75.16 126.146 68.76 126.146 61.08C126.146 53.4 127.469 47 130.114 41.88C132.845 36.76 136.514 32.92 141.122 30.36C145.815 27.8 151.063 26.52 156.866 26.52C163.522 26.52 169.41 27.9707 174.53 30.872C179.65 33.7733 183.703 37.8267 186.69 43.032C189.677 48.152 191.17 54.168 191.17 61.08C191.17 67.992 189.677 74.0507 186.69 79.256C183.703 84.4613 179.65 88.5147 174.53 91.416C169.41 94.3173 163.522 95.768 156.866 95.768ZM120.898 119.832V27.16H132.674V45.464L131.906 61.208L133.186 76.952V119.832H120.898ZM155.842 85.016C160.194 85.016 164.077 84.0347 167.49 82.072C170.989 80.1093 173.719 77.336 175.682 73.752C177.73 70.0827 178.754 65.8587 178.754 61.08C178.754 56.216 177.73 52.0347 175.682 48.536C173.719 44.952 170.989 42.1787 167.49 40.216C164.077 38.2533 160.194 37.272 155.842 37.272C151.575 37.272 147.693 38.2533 144.194 40.216C140.781 42.1787 138.05 44.952 136.002 48.536C134.039 52.0347 133.058 56.216 133.058 61.08C133.058 65.8587 134.039 70.0827 136.002 73.752C138.05 77.336 140.781 80.1093 144.194 82.072C147.693 84.0347 151.575 85.016 155.842 85.016ZM238.356 95.768C231.103 95.768 224.703 94.2747 219.156 91.288C213.695 88.3013 209.428 84.2053 206.356 79C203.369 73.7947 201.876 67.8213 201.876 61.08C201.876 54.3387 203.327 48.3653 206.228 43.16C209.215 37.9547 213.268 33.9013 218.388 31C223.593 28.0133 229.439 26.52 235.924 26.52C242.495 26.52 248.297 27.9707 253.332 30.872C258.367 33.7733 262.292 37.8693 265.108 43.16C268.009 48.3653 269.46 54.4667 269.46 61.464C269.46 61.976 269.417 62.5733 269.332 63.256C269.332 63.9387 269.289 64.5787 269.204 65.176H211.476V56.344H262.804L257.812 59.416C257.897 55.064 257.001 51.1813 255.124 47.768C253.247 44.3547 250.644 41.7093 247.316 39.832C244.073 37.8693 240.276 36.888 235.924 36.888C231.657 36.888 227.86 37.8693 224.532 39.832C221.204 41.7093 218.601 44.3973 216.724 47.896C214.847 51.3093 213.908 55.2347 213.908 59.672V61.72C213.908 66.2427 214.932 70.296 216.98 73.88C219.113 77.3787 222.057 80.1093 225.812 82.072C229.567 84.0347 233.876 85.016 238.74 85.016C242.751 85.016 246.377 84.3333 249.62 82.968C252.948 81.6027 255.849 79.5547 258.324 76.824L265.108 84.76C262.036 88.344 258.196 91.0747 253.588 92.952C249.065 94.8293 243.988 95.768 238.356 95.768ZM286.523 95V0.0239944H298.811V95H286.523ZM352.481 95.768C345.228 95.768 338.828 94.2747 333.281 91.288C327.82 88.3013 323.553 84.2053 320.481 79C317.494 73.7947 316.001 67.8213 316.001 61.08C316.001 54.3387 317.452 48.3653 320.353 43.16C323.34 37.9547 327.393 33.9013 332.513 31C337.718 28.0133 343.564 26.52 350.049 26.52C356.62 26.52 362.422 27.9707 367.457 30.872C372.492 33.7733 376.417 37.8693 379.233 43.16C382.134 48.3653 383.585 54.4667 383.585 61.464C383.585 61.976 383.542 62.5733 383.457 63.256C383.457 63.9387 383.414 64.5787 383.329 65.176H325.601V56.344H376.929L371.937 59.416C372.022 55.064 371.126 51.1813 369.249 47.768C367.372 44.3547 364.769 41.7093 361.441 39.832C358.198 37.8693 354.401 36.888 350.049 36.888C345.782 36.888 341.985 37.8693 338.657 39.832C335.329 41.7093 332.726 44.3973 330.849 47.896C328.972 51.3093 328.033 55.2347 328.033 59.672V61.72C328.033 66.2427 329.057 70.296 331.105 73.88C333.238 77.3787 336.182 80.1093 339.937 82.072C343.692 84.0347 348.001 85.016 352.865 85.016C356.876 85.016 360.502 84.3333 363.745 82.968C367.073 81.6027 369.974 79.5547 372.449 76.824L379.233 84.76C376.161 88.344 372.321 91.0747 367.713 92.952C363.19 94.8293 358.113 95.768 352.481 95.768ZM485.512 26.52C490.973 26.52 495.795 27.5867 499.976 29.72C504.157 31.8533 507.4 35.096 509.704 39.448C512.093 43.8 513.288 49.304 513.288 55.96V95H501V57.368C501 50.7973 499.464 45.848 496.392 42.52C493.32 39.192 489.011 37.528 483.464 37.528C479.368 37.528 475.784 38.3813 472.712 40.088C469.64 41.7947 467.251 44.312 465.544 47.64C463.923 50.968 463.112 55.1067 463.112 60.056V95H450.824V57.368C450.824 50.7973 449.288 45.848 446.216 42.52C443.229 39.192 438.92 37.528 433.288 37.528C429.277 37.528 425.736 38.3813 422.664 40.088C419.592 41.7947 417.203 44.312 415.496 47.64C413.789 50.968 412.936 55.1067 412.936 60.056V95H400.648V27.16H412.424V45.208L410.504 40.6C412.637 36.1627 415.923 32.7067 420.36 30.232C424.797 27.7573 429.96 26.52 435.848 26.52C442.333 26.52 447.923 28.1413 452.616 31.384C457.309 34.5413 460.381 39.3627 461.832 45.848L456.84 43.8C458.888 38.5947 462.472 34.4133 467.592 31.256C472.712 28.0987 478.685 26.52 485.512 26.52ZM571.866 95.768C566.063 95.768 560.815 94.488 556.122 91.928C551.514 89.2827 547.845 85.4 545.114 80.28C542.469 75.16 541.146 68.76 541.146 61.08C541.146 53.4 542.511 47 545.242 41.88C548.058 36.76 551.77 32.92 556.378 30.36C561.071 27.8 566.234 26.52 571.866 26.52C578.522 26.52 584.41 27.9707 589.53 30.872C594.65 33.7733 598.703 37.8267 601.69 43.032C604.677 48.152 606.17 54.168 606.17 61.08C606.17 67.992 604.677 74.0507 601.69 79.256C598.703 84.4613 594.65 88.5147 589.53 91.416C584.41 94.3173 578.522 95.768 571.866 95.768ZM535.898 95V0.0239944H548.186V45.208L546.906 60.952L547.674 76.696V95H535.898ZM570.842 85.016C575.194 85.016 579.077 84.0347 582.49 82.072C585.989 80.1093 588.719 77.336 590.682 73.752C592.73 70.0827 593.754 65.8587 593.754 61.08C593.754 56.216 592.73 52.0347 590.682 48.536C588.719 44.952 585.989 42.1787 582.49 40.216C579.077 38.2533 575.194 37.272 570.842 37.272C566.575 37.272 562.693 38.2533 559.194 40.216C555.781 42.1787 553.05 44.952 551.002 48.536C549.039 52.0347 548.058 56.216 548.058 61.08C548.058 65.8587 549.039 70.0827 551.002 73.752C553.05 77.336 555.781 80.1093 559.194 82.072C562.693 84.0347 566.575 85.016 570.842 85.016ZM653.356 95.768C646.103 95.768 639.703 94.2747 634.156 91.288C628.695 88.3013 624.428 84.2053 621.356 79C618.369 73.7947 616.876 67.8213 616.876 61.08C616.876 54.3387 618.327 48.3653 621.228 43.16C624.215 37.9547 628.268 33.9013 633.388 31C638.593 28.0133 644.439 26.52 650.924 26.52C657.495 26.52 663.297 27.9707 668.332 30.872C673.367 33.7733 677.292 37.8693 680.108 43.16C683.009 48.3653 684.46 54.4667 684.46 61.464C684.46 61.976 684.417 62.5733 684.332 63.256C684.332 63.9387 684.289 64.5787 684.204 65.176H626.476V56.344H677.804L672.812 59.416C672.897 55.064 672.001 51.1813 670.124 47.768C668.247 44.3547 665.644 41.7093 662.316 39.832C659.073 37.8693 655.276 36.888 650.924 36.888C646.657 36.888 642.86 37.8693 639.532 39.832C636.204 41.7093 633.601 44.3973 631.724 47.896C629.847 51.3093 628.908 55.2347 628.908 59.672V61.72C628.908 66.2427 629.932 70.296 631.98 73.88C634.113 77.3787 637.057 80.1093 640.812 82.072C644.567 84.0347 648.876 85.016 653.74 85.016C657.751 85.016 661.377 84.3333 664.62 82.968C667.948 81.6027 670.849 79.5547 673.324 76.824L680.108 84.76C677.036 88.344 673.196 91.0747 668.588 92.952C664.065 94.8293 658.988 95.768 653.356 95.768Z" fill="#959595"/>
</svg>
